<?xml version="1.0" encoding="UTF-8"?>
<svg id="Ebene_1" xmlns="http://www.w3.org/2000/svg" xmlns:xlink="http://www.w3.org/1999/xlink" version="1.1" viewBox="0 0 155.9 56.7">
  <!-- Generator: Adobe Illustrator 29.5.1, SVG Export Plug-In . SVG Version: 2.1.0 Build 141)  -->
  <defs>
    <style>
      .st0 {
        fill: none;
      }

      .st1 {
        fill: #969696;
      }

      .st2 {
        clip-path: url(#clippath);
      }
    </style>
    <clipPath id="clippath">
      <rect class="st0" x="0" y="0" width="155.9" height="56.7"/>
    </clipPath>
  </defs>
  <g class="st2">
    <path class="st1" d="M62,26.1h-4.3l1.5-7.3H23.1l-3.8,18.9h14.4l.9-4.7h-8.5l.5-2.6h8.5l.9-4.2h-8.5l.5-2.6h13.5l-2.9,14.2h5.9l2.8-14.2h5l-2.8,14.2h5.9l1.4-7.3h4.3l-1.4,7.3h5.9l3.8-18.9h-5.9l-1.5,7.3ZM87.2,21.2h1.9l.5-2.4h-1.9l-.5,2.4ZM92.3,21.2h1.9l.5-2.4h-1.9l-.5,2.4ZM110.6,21.2h1.9l.5-2.4h-1.9l-.5,2.4ZM120.4,24.6c-3.4,0-5.8,2.4-6.6,6.6-.1.7-.2,1.3-.2,2,0,2.9,1.7,4.7,4.6,4.7s3.2-.7,4.3-1.8l-1.1-1.3c-.8.9-1.9,1.5-3.1,1.5s-2.8-.8-2.8-3,0-1.3.2-1.9c.2-1.4.8-2.7,1.7-3.7.7-.8,1.8-1.2,2.8-1.2,1,0,2,.5,2.5,1.4h0s1.4-1.1,1.4-1.1c-.8-1.3-2.2-2-3.8-1.9h0ZM133,24.6c-1.4,0-2.7.5-3.7,1.5l1.5-7.2h-1.9l-3.8,18.9h1.9l1.6-7.9c.7-3.3,3.3-3.5,3.8-3.5,1.2-.1,2.2.7,2.3,1.9,0,.1,0,.3,0,.4,0,.4,0,.8-.1,1.2l-1.6,8h1.9l1.7-8.2c0-.4.1-.9.1-1.3.1-1.9-1.3-3.5-3.2-3.7h-.4ZM107.3,37.7h0s1.9,0,1.9,0l2.6-13h-1.9l-2.6,12.9ZM73,26.4h0s6.4,0,6.4,0l-8.6,9.7-.3,1.6h9.1l.3-1.7h-6.8l8.6-9.7.3-1.6h-8.8l-.4,1.6ZM104.2,24.6c-1.4,0-2.7.6-3.6,1.6l.3-1.4h-1.9l-2.5,12.9h0s1.9,0,1.9,0l1.6-7.9c.4-2,2-3.5,3.7-3.5.7,0,1.4.3,1.8.9l1.5-1.4c-.7-.8-1.7-1.3-2.8-1.2h0ZM91.4,32.7c-.7,3.3-3.3,3.5-3.8,3.5-1.5,0-2.3-.8-2.3-2.2s0-.8.1-1.2l1.6-8h-1.9l-1.6,8.2h0c0,.5-.1.9-.1,1.3-.1,1.9,1.3,3.5,3.2,3.7h.4c1.4,0,2.8-.5,3.8-1.5l-.3,1.3h0s1.9,0,1.9,0l2.6-12.9h-2l-1.6,7.9h0Z"/>
  </g>
</svg>