<?xml version="1.0" encoding="UTF-8"?>
<svg id="Ebene_1" xmlns="http://www.w3.org/2000/svg" xmlns:xlink="http://www.w3.org/1999/xlink" version="1.1" viewBox="0 0 155.9 56.7">
  <!-- Generator: Adobe Illustrator 29.5.1, SVG Export Plug-In . SVG Version: 2.1.0 Build 141)  -->
  <defs>
    <style>
      .st0 {
        fill: none;
      }

      .st1 {
        fill: #969696;
      }

      .st2 {
        clip-path: url(#clippath);
      }
    </style>
    <clipPath id="clippath">
      <rect class="st0" x="0" y="0" width="155.9" height="56.7"/>
    </clipPath>
  </defs>
  <g class="st2">
    <path class="st1" d="M43.9,37.5v-20.1h-.4v-2.2c0-.3,0-.5-.2-.7,0,0,0-.1-.1-.2v-.8s0-.6-.3-1.1c-.3-.5-.8-.8-1.1-.9,0,0-.1,0-.1,0h0s0,0,0,0c0,0-.5.1-.9.7-.4.5-.4,1.2-.4,1.4,0,0,0,0,0,0v.7c0,0-.1.2-.2.3-.1.3-.1.5-.1.7v2.1h-.4v7.4l-1.2-1.2v-2.1l-.4-1.4-.6-4.6-.4,4.5-.4,1.5v1.9l-1.2,1.2v-7.2h-.4v-2.2c0-.3,0-.5-.2-.7,0,0,0-.1-.1-.2v-.8s0-.6-.3-1.1c-.3-.5-.8-.8-1.1-.9,0,0-.1,0-.1,0h0s0,0,0,0c0,0-.5.1-.9.7-.4.5-.4,1.2-.4,1.4,0,0,0,0,0,0v.7c0,0-.1.2-.2.3-.1.3-.1.5-.1.7v2.1h-.4v20.1h-10.6c-1.5-2.7-2.3-5.8-2.3-9.2,0-5.3,2.2-10.1,5.6-13.6,3.5-3.5,8.3-5.6,13.6-5.6s10.1,2.2,13.6,5.6c3.5,3.5,5.6,8.3,5.6,13.6s-.8,6.4-2.3,9.2h-10.4ZM43.4,37.5h-3.4v-4.6h3.4v4.6ZM43.4,32.6h-3.4v-2.7h3.4v2.7ZM43.4,29.7h-3.4v-4.1h3.4v4.1ZM42.3,23.5v1.7h-1.3v-1.7c0-.3.1-.6.3-.8,0,0,.2-.2.3-.2h0c.1,0,.2.1.3.2.2.2.3.5.3.8h0ZM43.4,21.7v3.5h-.8v-1.7c0-.4-.2-.8-.4-1-.1-.1-.3-.2-.5-.3,0,0,0,0,0,0,0,0,0,0,0,0-.2,0-.3.2-.5.3-.3.2-.4.6-.4,1v1.7h-.8v-3.5h3.4ZM42.2,20.2v1.2h-1.2v-1.2c0-.5.2-.8.6-1,.3.2.6.5.6,1M43.4,18.7v2.7h-.8v-1.2c0-.4-.2-.8-.4-1-.1-.1-.3-.2-.5-.3,0,0,0,0,0,0,0,0,0,0,0,0-.2,0-.3.2-.5.3-.2.2-.4.6-.4,1v1.2h-.8v-2.7h3.4ZM43.4,18.4h-3.4v-.7h3.4v.7ZM40.8,14.6c0,.2,0,.4,0,.6v2.2s-.5,0-.5,0v-2.2c0-.1,0-.3.1-.5,0-.1.1-.2.2-.3,0,0,.1.2.2.3M42.1,15.2v2.2h-.8v-2.2c0-.1,0-.3.1-.5.1-.2.3-.3.3-.3,0,0,.2.1.3.3.1.2.1.4.1.5M42.7,14.3c0,0,.1.2.2.3,0,.2.1.4.1.5v2.2h-.6v-2.2c0-.1,0-.4.1-.5,0-.2.1-.2.2-.3M40.7,13.3c0-.2,0-.7.3-1,.2-.2.4-.4.5-.5,0,0,.1,0,.1,0,0,0,0,0,.1,0,.1,0,.3.2.5.5.2.3.3.8.3,1h-1.9ZM42.6,13.6v.2s0,0,0,.1c0,0,0,.2-.2.3,0,0,0,.2-.2.3,0-.1-.2-.2-.2-.3,0,0-.1-.1-.2-.2-.1-.2-.1-.3-.1-.3h0s0,0-.1.3c0,0-.1.2-.2.2,0,0-.1.1-.2.3,0-.1-.1-.2-.2-.3,0-.1-.2-.3-.2-.3,0,0,0-.2,0-.2h0c0-.1,1.9-.1,1.9-.1ZM39.6,37.5h-4.4v-4.6h4.4v4.6ZM36.6,29.9v1.7h1.6v-1.7h1.4v2.7h-4.4v-2.7h1.4ZM39.6,27.7v1.9h-1.4v-.5c0-.4-.4-.8-.8-.8s-.8.4-.8.8v.5h-1.4v-1.9h4.4ZM39.6,27.2h-4.4v-1.7h4.4v1.7ZM37.4,23l2.2,2.2h-4.4l2.2-2.2ZM36.9,21.4l.3-1.5v-2.5c.1,0,.2,2.5.2,2.5l.3,1.5h-.9ZM37.9,21.8v1.2l-.5-.5-.5.5v-1.2h.9ZM34.8,37.5h-3.4v-4.6h3.4v4.6ZM34.8,32.6h-3.4v-2.7h3.4v2.7ZM34.8,29.7h-3.4v-4.1h3.4v4.1ZM33.8,23.5v1.7h-1.3v-1.7c0-.3.1-.6.3-.8,0,0,.2-.2.3-.2h0c.1,0,.2.1.3.2.2.2.3.5.3.8h0ZM34.8,21.7v3.5h-.8v-1.7c0-.4-.2-.8-.4-1-.1-.1-.3-.2-.5-.3,0,0,0,0,0,0,0,0,0,0,0,0-.2,0-.3.2-.5.3-.3.2-.4.6-.4,1v1.7h-.8v-3.5h3.4ZM33.7,20.2v1.2h-1.2v-1.2c0-.5.2-.8.6-1,.3.2.6.5.6,1M34.8,18.7v2.7h-.8v-1.2c0-.4-.1-.8-.4-1-.1-.1-.3-.2-.5-.3,0,0,0,0,0,0,0,0,0,0,0,0-.2,0-.3.2-.5.3-.2.2-.4.6-.4,1v1.2h-.8v-2.7h3.4ZM34.8,18.4h-3.4v-.7h3.4v.7ZM32.3,14.6c0,.2,0,.4,0,.6v2.2s-.5,0-.5,0v-2.2c0-.1,0-.3.1-.5,0-.1.1-.2.2-.3,0,0,.1.2.2.3M33.6,15.2v2.2h-.8c0-.6,0-2.2,0-2.2,0-.1,0-.3.1-.5.1-.2.3-.3.3-.3,0,0,.2.1.3.3.1.2.1.4.1.5M34.1,14.3c0,0,.1.2.2.3,0,.2.1.4.1.5v2.2h-.6v-2.2c0-.1,0-.4.1-.5,0-.2.1-.2.2-.3M32.2,13.3c0-.2,0-.7.3-1,.2-.2.4-.4.5-.5,0,0,.1,0,.1,0,0,0,0,0,.1,0,.1,0,.3.2.5.5.2.3.3.8.3,1h-1.9ZM34.1,13.6v.2s0,0,0,.1c0,0,0,.2-.2.3,0,0,0,.2-.2.3,0-.1-.2-.2-.2-.3,0,0-.1-.1-.2-.2-.1-.2-.1-.3-.1-.3h0s0,0-.1.3c0,0-.1.2-.2.2,0,0-.1.1-.2.3,0-.1-.1-.2-.2-.3,0-.1-.2-.3-.2-.3,0,0,0-.2,0-.2h0c0-.1,1.9-.1,1.9-.1ZM53.9,38.3H20.9c0-.2-.2-.3-.3-.5h33.5c0,.2-.2.3-.3.5M52.6,40.2c-.2-.5-.7-.8-1.3-.8s-1.4.6-1.4,1.4v.4h-.5v-.4c0-.8-.6-1.4-1.4-1.4s-1.4.6-1.4,1.4v.4h-.5v-.4c0-.8-.6-1.4-1.4-1.4s-1.4.6-1.4,1.4v.4h-.5v-.4c0-.8-.6-1.4-1.4-1.4s-1.4.6-1.4,1.4v.4h-.5c-.2-1-1.1-1.8-2.1-1.8s-2,.8-2.1,1.8h-.5v-.4c0-.8-.6-1.4-1.4-1.4s-1.4.6-1.4,1.4v.4h-.5v-.4c0-.8-.6-1.4-1.4-1.4s-1.4.6-1.4,1.4v.4h-.5v-.4c0-.8-.6-1.4-1.4-1.4s-1.4.6-1.4,1.4v.4h-.5v-.4c0-.8-.6-1.4-1.4-1.4s-1,.3-1.3.8c-.3-.4-.7-.9-1-1.4h32.3c-.3.5-.6.9-1,1.4M51,41.9c-3,3-7,5-11.4,5.5v-2.2h.8c1.5,0,2.6-.1,2.6-.1,0,0-1.1-.2-2.6-.2h-.8v-3.2h1v-1c0-.6.5-1,1-1s1,.5,1,1v1h1.3s0,0,0,0v-1c0-.6.5-1,1-1s1,.5,1,1v1h1.3v-1c0-.6.4-1,1-1s1,.5,1,1v1h1.3v-1c0-.6.5-1,1-1s.8.3,1,.7c-.4.5-.9,1-1.4,1.5M38.5,43.5c-.1.5-.6.9-1.2.9s-1-.4-1.2-.9h2.3ZM37.1,42.5c0,.3.3.4.6.4s.6-.2.6-.5c.2,0,.4,0,.6.2.2.2.3.4.3.5h-3.6c0-.1,0-.4.3-.5.4-.3.8-.2,1.2-.2M36.6,39.8l.4.6.4-.8.4.8.4-.6-.2,1h-1.3l-.2-1ZM36.8,41h1.2c0,.1.2.4.2.6,0,.1.1.2,0,.4,0,.1-.2.1-.3.1,0,0,0,0,0,0,0,.2-.3.4-.6.4s-.5-.2-.6-.4c0,0,0,0,0,0,0,0-.2,0-.3-.1,0-.1,0-.2,0-.4,0-.2.2-.4.2-.6M38.9,47.5c-.5,0-1,0-1.5,0s-1,0-1.5,0l-.4-2.3h.4c-.1-.2-.3-.7-.4-.9-.1-.3,0-.5.2-.5.2,0,.4,0,.5.3l.2.7h.3v.4s0,0,0,0h0c0,0-.6,0-.6,0v.3h.9v-.4h1.1v-.4s.3,0,.3,0l.2-.7c0-.2.3-.3.5-.3.2,0,.3.3.2.5,0,0,0,.2-.1.3l-.2.6h-.7v.3h.9l.2-.4h0l-.4,2.3ZM35.2,45h-.9v.3h.9v2.2c-4.4-.5-8.4-2.5-11.4-5.5-.4-.4-.8-.9-1.2-1.4,0-.5.5-.8,1-.8s1,.5,1,1v1h1.3v-1c0-.6.4-1,1-1s1,.5,1,1v1h1.3v-1c0-.6.5-1,1-1s1,.5,1,1v1h1.3v-1c0-.6.5-1,1-1s1,.5,1,1v1h.8v3.2ZM37.4,8.8c-10.8,0-19.6,8.8-19.6,19.6s8.8,19.6,19.6,19.6,19.6-8.8,19.6-19.6c0-10.8-8.8-19.6-19.6-19.6M37.7,41.5h.2v-.3h-.4v.7h.2v-.4ZM22.9,13.9c-3.7,3.7-6,8.8-6,14.5s2.3,10.8,6,14.5c3.7,3.7,8.8,6,14.5,6s10.8-2.3,14.5-6c3.7-3.7,6-8.8,6-14.5s-2.3-10.8-6-14.5c-3.7-3.7-8.8-6-14.5-6s-10.8,2.3-14.5,6M16.4,28.3c0-11.6,9.4-21,21-21s21,9.4,21,21-9.4,21-21,21-21-9.4-21-21M116.4,34.9v-1.7h-1.5v1.7h-.9v-4h.9v1.5h1.5v-1.5h.9v4h-.9ZM110.5,34.9v-.7l1.3-2.1c0-.1.1-.2.2-.3-.1,0-.2,0-.6,0h-.8v-.8h2.6v.8l-1.4,2.2c0,0,0,.1-.2.2,0,0,.3,0,.8,0h.8v.9h-2.6ZM108.1,35c-1.3,0-1.6-.7-1.6-1.5v-2.6h.9v2.5c0,.5.1.8.7.8s.7-.2.7-.8v-2.5h.9v2.4c0,1.1-.6,1.6-1.7,1.6M103,42.4v-5c0-.8-.2-1.3-1-1.3s-1.8,1.2-1.8,2.5v3.8h-2v-11.4h2v3.3c0,.5,0,1.1-.1,1.6h0c.5-.9,1.3-1.4,2.6-1.4,1.8,0,2.3,1.1,2.3,2.5v5.5h-2ZM94.5,42.5c-2.2,0-3.5-1.1-3.5-3.8s1.3-4.3,4-4.3,1.1,0,1.6.2l-.2,1.7c-.4-.2-.9-.3-1.4-.3-1.3,0-1.9.9-1.9,2.4s.5,2.2,1.8,2.2,1.1-.1,1.5-.3l.2,1.7c-.5.2-1.3.4-2.1.4M87.5,34.6h2v7.8h-2v-7.8ZM88.5,33.6c-.7,0-1.2-.5-1.2-1.2s.5-1.2,1.2-1.2,1.3.5,1.3,1.2-.6,1.2-1.3,1.2M86,36.4c-1.4-.3-2.2.6-2.2,2.8v3.2h-2v-7.8h1.9c0,.4,0,1-.1,1.6h0c.4-1,1.1-1.9,2.5-1.7v2ZM77.7,33.3c-.6,0-1.1-.5-1.1-1.1s.5-1.1,1.1-1.1,1.1.5,1.1,1.1-.5,1.1-1.1,1.1M74.6,33.3c-.6,0-1.1-.5-1.1-1.1s.5-1.1,1.1-1.1,1.1.5,1.1,1.1-.5,1.1-1.1,1.1M77.8,42.4c0-.4,0-1,0-1.4h0c-.5.9-1.4,1.6-2.6,1.6s-2.3-1.1-2.3-2.5v-5.5h2v5c0,.8.2,1.3,1,1.3s1.8-1.2,1.8-2.5v-3.8h2v7.8h-1.9ZM64.2,42.4v-1.6l3.8-6.2c.2-.4.4-.7.7-1-.4,0-.9,0-1.9,0h-2.4v-1.8h6.8v1.6l-4,6.4c-.2.3-.3.5-.5.7.3,0,1,0,2.3,0h2.3v1.9h-7ZM137.8,26c-1.7,0-2.3-.6-2.3-2.4v-4h-1.3v-1.6h1.3v-2.4l2-.5v2.9h1.9v1.6h-1.9v3.4c0,1,.2,1.3.9,1.3s.7,0,1-.1v1.6c-.5.1-1.1.2-1.6.2M131.4,16.7c-.6,0-1.1-.5-1.1-1.1s.5-1.1,1.1-1.1,1.1.5,1.1,1.1-.5,1.1-1.1,1.1M130.9,22.3c-2.1,0-2.6.6-2.6,1.2s.3.8.9.8c1,0,1.7-.9,1.7-1.9v-.2ZM128.3,16.7c-.6,0-1.1-.5-1.1-1.1s.5-1.1,1.1-1.1,1.1.5,1.1,1.1-.5,1.1-1.1,1.1M131,25.8c0-.5,0-.9,0-1.3h0c-.4.9-1.3,1.5-2.5,1.5s-2.2-.8-2.2-2.1c0-1.9,1.8-2.9,4.5-2.9v-.4c0-.8-.4-1.2-1.5-1.2s-1.6.2-2.3.6l-.2-1.7c.8-.3,1.8-.5,2.8-.5,2.5,0,3.2,1,3.2,2.7v3.2c0,.6,0,1.4,0,2h-1.9ZM123.3,26c-1.7,0-2.3-.6-2.3-2.4v-4h-1.3v-1.6h1.3v-2.4l2-.5v2.9h1.9v1.6h-1.9v3.4c0,1,.2,1.3.9,1.3s.7,0,1-.1v1.6c-.5.1-1.1.2-1.6.2M116.2,18h2v7.8h-2v-7.8ZM117.2,17c-.7,0-1.2-.5-1.2-1.2s.5-1.2,1.2-1.2,1.3.5,1.3,1.2-.6,1.2-1.3,1.2M111,26c-.6,0-1.1,0-1.6-.1v-1.6c.5.1,1.1.2,1.7.2s1.3-.3,1.3-.8c0-1.4-3.2-.6-3.2-3.2s1.1-2.5,3.3-2.5,1,0,1.4.1v1.6c-.5-.1-1-.2-1.5-.2-.8,0-1.2.3-1.2.8,0,1.3,3.2.7,3.2,3.2s-1.3,2.6-3.5,2.6M108.3,19.8c-1.4-.3-2.2.6-2.2,2.8v3.2h-2v-7.8h1.9c0,.4,0,1-.1,1.6h0c.4-1,1.1-1.9,2.5-1.7v2ZM99.1,19.3c-.8,0-1.4.6-1.5,1.6h2.9c0-1-.5-1.6-1.3-1.6M102.4,22.2h-4.8c0,1.5.7,2.2,2.1,2.2s1.6-.2,2.3-.5l.2,1.6c-.8.3-1.8.5-2.8.5-2.5,0-3.9-1.2-3.9-4s1.3-4.1,3.7-4.1,3.3,1.6,3.3,3.5,0,.6,0,.9M92.3,25.8h-2l-2.9-7.8h2.2l1.2,3.5c.2.5.4,1.2.5,1.7h0c.1-.5.3-1.1.5-1.7l1.3-3.6h2.1l-2.9,7.8ZM84.2,18h2v7.8h-2v-7.8ZM85.3,17c-.7,0-1.2-.5-1.2-1.2s.5-1.2,1.2-1.2,1.3.5,1.3,1.2-.6,1.2-1.3,1.2M80.1,25.8v-5c0-.8-.2-1.3-1-1.3s-1.8,1.2-1.8,2.5v3.8h-2v-7.8h1.9c0,.4,0,1-.1,1.4h0c.5-.9,1.4-1.6,2.7-1.6s2.3,1.1,2.3,2.5v5.5h-2ZM68.7,26c-3.3,0-4.1-1.8-4.1-3.8v-6.9h2v6.8c0,1.3.4,2.3,2.2,2.3s2.2-.7,2.2-2.5v-6.6h2v6.5c0,2.9-1.6,4.3-4.4,4.3M41.6,10.4c-.2,0-.4.2-.4.4s.2.4.4.4.4-.2.4-.4-.2-.4-.4-.4M41.9,35v-.9c0-.2-.1-.3-.3-.3s-.3.1-.3.3v.9h.6ZM41.8,31.7v-1c0-.1,0-.2-.2-.2s-.2,0-.2.2v1h.4ZM41.8,28.7v-1c0-.1,0-.2-.2-.2s-.2,0-.2.2v1h.4ZM42,20.9v-.8c0-.3-.1-.5-.3-.6-.2,0-.3.3-.3.6v.8h.7ZM42,24.7v-1.2c0-.3-.1-.5-.3-.6-.2,0-.3.3-.3.6v1.2h.7ZM33.1,10.4c-.2,0-.4.2-.4.4s.2.4.4.4.4-.2.4-.4-.2-.4-.4-.4M33.4,35v-.9c0-.2-.1-.3-.3-.3s-.3.1-.3.3v.9h.6ZM33.3,31.7v-1c0-.1,0-.2-.2-.2s-.2,0-.2.2v1h.4ZM33.3,28.7v-1c0-.1,0-.2-.2-.2s-.2,0-.2.2v1h.4ZM33.5,20.9v-.8c0-.3-.1-.5-.3-.6-.2,0-.3.3-.3.6v.8h.7ZM33.5,24.7v-1.2c0-.3-.1-.5-.3-.6-.2,0-.3.3-.3.6v1.2h.7ZM33.7,44.7c-.2,0-.4.2-.4.4s.2.4.4.4.4-.2.4-.4-.2-.4-.4-.4M37.2,24.7h.4v-.8h-.4v.8ZM37.4,14.4c-.2,0-.4.2-.4.4s.2.4.4.4.4-.2.4-.4-.2-.4-.4-.4M38.7,35.2v-1c0-.2-.2-.3-.4-.3s-.4.2-.4.3v1h.7ZM36.8,35.2v-1c0-.2-.2-.3-.4-.3s-.4.2-.4.3v1h.7ZM47.7,43.7s0,0,0,0c0,0,0,0,0,0,0,0,0-.2,0-.4v-.3c0-.3,0-.3,0-.4,0,0,0,0,0,0,0,0,0,0,0,0s0,0,0,0c0,0,0,0,0,0,0,0-.2,0-.2,0s-.2,0-.2,0c0,0,0,0,0,0,0,0,0,0,0,0s0,0,0,0c0,0,0,0,0,0,0,0,0,.1,0,.4v.3c0,.2,0,.3,0,.4,0,0,0,0,0,0,0,0,0,0,0,0s0,0,0,0c0,0,0,0,0,0,0,0,.2,0,.2,0s.2,0,.3,0,0,0,0,0c0,0,0,0,0,0M46.6,43.7s0,0,0,0c0,0,0,0,0,0,0,0,0-.2,0-.4v-.3c0-.3,0-.3,0-.4,0,0,0,0,0,0,0,0,0,0,0,0s0,0,0,0c0,0,0,0,0,0,0,0-.2,0-.2,0s-.2,0-.2,0c0,0,0,0,0,0,0,0,0,0,0,0s0,0,0,0c0,0,0,0,0,0,0,0,0,.1,0,.4v.3c0,.2,0,.3,0,.4,0,0,0,0,0,0,0,0,0,0,0,0s0,0,0,0c0,0,0,0,0,0,0,0,.2,0,.2,0s.2,0,.3,0,0,0,0,0c0,0,0,0,0,0M45.5,43.7s0,0,0,0c0,0,0,0,0,0,0,0,0-.2,0-.4v-.3c0-.3,0-.3,0-.4,0,0,0,0,0,0,0,0,0,0,0,0s0,0,0,0c0,0,0,0,0,0,0,0-.2,0-.2,0s-.2,0-.2,0c0,0,0,0,0,0,0,0,0,0,0,0s0,0,0,0c0,0,0,0,0,0,0,0,0,.1,0,.4v.3c0,.2,0,.3,0,.4,0,0,0,0,0,0,0,0,0,0,0,0s0,0,0,0c0,0,0,0,0,0,0,0,.2,0,.2,0s.2,0,.3,0,0,0,0,0c0,0,0,0,0,0M44.6,43.7s0,0,0,0c0,0,0,0,0,0,0,0-.3-.5-.4-.6l.3-.4c0,0,0-.1.1-.1s0,0,0,0,0,0,0,0c0,0,0,0,0,0,0,0-.1,0-.2,0s-.1,0-.2,0,0,0,0,0c0,0,0,0,0,0s0,0,0,0c0,0,0,0,0,0,0,0,0,0,0,0,0,0-.2.3-.2.3,0-.1-.1-.2-.2-.4,0,0,0,0,0,0,0,0,0,0,0,0,0,0,0,0,0,0,0,0,0,0,0,0,0,0,0,0,0,0,0,0-.2,0-.2,0,0,0-.2,0-.3,0,0,0,0,0,0,0,0,0,0,0,0,0s0,0,0,0c0,0,0,0,.1.1l.3.5-.4.5c0,0,0,.1-.1.1,0,0,0,0,0,0,0,0,0,0,0,0s0,0,0,0h0s.1,0,.2,0,.2,0,.2,0h0s0,0,0,0c0,0,0,0,0,0,0,0,0,0,0,0s0,0,0,0h0s0,0,0,0l.3-.4c0,.1.2.3.3.5,0,0,0,0,0,0,0,0,0,0,0,0,0,0,0,0,0,0,0,0,0,0,0,0,.2,0,.3,0,.3,0h0s0,0,0,0c0,0,0,0,0,0M43,43.7s0,0,0,0c0,0,0,0,0,0,0,0-.3-.5-.4-.6l.3-.4c0,0,0-.1.1-.1s0,0,0,0,0,0,0,0,0,0,0,0c0,0-.1,0-.2,0s-.1,0-.2,0,0,0,0,0c0,0,0,0,0,0s0,0,0,0c0,0,0,0,0,0,0,0,0,0,0,0,0,0-.2.3-.2.3,0-.1-.1-.2-.2-.4,0,0,0,0,0,0s0,0,0,0c0,0,0,0,0,0,0,0,0,0,0,0,0,0,0,0,0,0,0,0-.2,0-.2,0,0,0-.2,0-.3,0,0,0,0,0,0,0,0,0,0,0,0,0s0,0,0,0c0,0,0,0,.1.1l.3.5-.4.5c0,0,0,.1-.1.1,0,0,0,0,0,0,0,0,0,0,0,0s0,0,0,0h0s.1,0,.2,0,.2,0,.2,0h0s0,0,0,0c0,0,0,0,0,0,0,0,0,0,0,0s0,0,0,0,0,0,0,0c0,0,0,0,0,0l.3-.4c0,.1.2.3.3.5,0,0,0,0,0,0,0,0,0,0,0,0,0,0,0,0,0,0,0,0,0,0,0,0,.1,0,.3,0,.3,0h0s0,0,0,0c0,0,0,0,0,0M41.5,43.7s0,0,0,0c0,0,0,0,0,0,0,0-.3-.5-.4-.6l.3-.4c0,0,0-.1.1-.1,0,0,0,0,0,0s0,0,0,0c0,0,0,0,0,0,0,0-.1,0-.2,0s-.1,0-.2,0,0,0,0,0c0,0,0,0,0,0s0,0,0,0c0,0,0,0,0,0,0,0,0,0,0,0,0,0-.2.3-.2.3,0-.1-.1-.2-.2-.4,0,0,0,0,0,0s0,0,0,0c0,0,0,0,0,0,0,0,0,0,0,0,0,0,0,0,0,0,0,0-.2,0-.2,0,0,0-.2,0-.3,0,0,0,0,0,0,0,0,0,0,0,0,0s0,0,0,0c0,0,0,0,.1.1l.3.5-.3.5c0,0,0,.1-.1.1,0,0,0,0,0,0,0,0,0,0,0,0s0,0,0,0h0s.1,0,.2,0,.2,0,.2,0h0s0,0,0,0c0,0,0,0,0,0,0,0,0,0,0,0s0,0,0,0h0s0,0,0,0l.3-.4c0,.1.2.3.3.5,0,0,0,0,0,0,0,0,0,0,0,0,0,0,0,0,0,0,0,0,0,0,0,0,.1,0,.3,0,.3,0h0s0,0,0,0c0,0,0,0,0,0M34.4,43.4s0,0,0,0c0,0,0,0,0,.1,0,0-.2,0-.3,0-.2,0-.6-.2-.6-.6s0-.3.2-.4c0,0,.2,0,.3,0s.3,0,.3,0c0,0,0,.1,0,.2,0,0,0,0,0,0,0,0,0,0,0,0,0,0,0-.1,0-.2,0,0,0,0,0,0,0,0,0,0,0,0,0,0-.1,0-.2,0,0,0-.2,0-.3,0-.3,0-.5,0-.6.2-.2.2-.2.4-.2.5s0,.4.2.5c.2.1.4.2.6.2s.3,0,.3,0c0,0,0,0,0,0,0,0,0-.2,0-.2s0,0,0,0M33,43.4s0,0,0,0c0,0,0,0,0,.1,0,0-.2,0-.3,0-.2,0-.6-.2-.6-.6s0-.3.2-.4c0,0,.2,0,.3,0s.3,0,.3,0c0,0,0,.1,0,.2,0,0,0,0,0,0,0,0,0,0,0,0,0,0,0-.1,0-.2,0,0,0,0,0,0,0,0,0,0,0,0,0,0-.1,0-.2,0,0,0-.2,0-.3,0-.3,0-.5,0-.6.2-.2.2-.2.4-.2.5,0,.2,0,.4.2.5.2.1.4.2.6.2s.3,0,.3,0c0,0,0,0,0,0,0,0,0-.2,0-.2s0,0,0,0M31.5,43.4s0,0,0,0c0,0,0,0,0,.1,0,0-.1,0-.3,0-.2,0-.6-.2-.6-.6s0-.3.2-.4c0,0,.2,0,.3,0s.3,0,.3,0c0,0,0,.1,0,.2,0,0,0,0,0,0,0,0,0,0,0,0,0,0,0-.1,0-.2,0,0,0,0,0,0,0,0,0,0,0,0,0,0-.1,0-.2,0,0,0-.2,0-.3,0-.3,0-.5,0-.6.2-.2.2-.2.4-.2.5s0,.4.2.5c.2.1.4.2.6.2s.3,0,.3,0c0,0,0,0,0,0,0,0,0-.2,0-.2s0,0,0,0M29.8,43.1c0,.2,0,.3-.1.4-.1,0-.2.1-.4.1-.1,0-.2,0-.2,0,0,0,0,0,0-.1,0,0,0-.2,0-.4v-.2c0-.1,0-.3,0-.3,0,0,0,0,0,0,0,0,0,0,.1,0,.1,0,.3,0,.5.2,0,0,.2.2.2.4M29.9,42.6c-.2-.2-.5-.2-.7-.2s-.2,0-.3,0-.2,0-.3,0,0,0,0,0c0,0,0,0,0,0s0,0,0,0c0,0,0,0,0,0,0,0,0,.1,0,.4v.3c0,.2,0,.3,0,.4,0,0,0,0,0,0,0,0,0,0,0,0s0,0,0,0c0,0,0,0,0,0,0,0,0,0,.1,0,0,0,0,0,.1,0,0,0,.1,0,.2,0,0,0,.2,0,.2,0,.3,0,.5-.1.6-.2.1-.1.2-.3.2-.5s0-.4-.2-.5M28.4,43.7s0,0,0,0c0,0,0,0,0-.2l-.2-1.1s0,0,0,0c0,0,0,0,0,0l-.5,1-.5-1s0,0,0,0c0,0,0,0,0,0l-.2,1.2c0,0,0,.1,0,.1,0,0,0,0,0,0,0,0,0,0,0,0,0,0,0,0,0,0,0,0,.1,0,.2,0s.1,0,.2,0,0,0,0,0c0,0,0,0,0,0,0,0,0,0,0,0,0,0,0,0,0,0,0,0,0,0,0,0v-.7c.1.1.2.3.2.3,0,0,.2.3.2.4,0,0,0,0,0,0,0,0,0,0,0-.1l.4-.8v.7c0,0,0,0,0,0,0,0,0,0,0,0,0,0,0,0,0,0,0,0,0,0,0,0,0,0,.3,0,.4,0s0,0,0,0c0,0,0,0,0,0M51.7,33.9s0,0,.1,0c.2,0,.3.2.4.2,0,0,0,0,0,0,0,0,0,0,0,0,0,0-.1,0-.2,0-.2,0-.4.1-.5.3-.1.3,0,.5.2.5.1,0,.3,0,.6,0h.2c.4-.3.7-.3.9-.2.3.1.4.5.3.9,0,.2-.2.3-.2.4,0,0,0,0,0,0,0,0-.1,0-.4-.2,0,0,0,0,0,0,0,0,0,0,0,0,0,0,.1,0,.2,0,0,0,.2,0,.3-.3,0-.2,0-.4-.2-.5-.1,0-.3,0-.6.1h0c-.4.3-.7.3-1,.2-.2,0-.4-.2-.4-.5,0-.2,0-.4,0-.5,0-.2.2-.3.3-.4M53.6,32.7c.5.1.6.2.7.2.1,0,.2,0,.2,0,0,0,0,0,0-.1,0,0,0,0,0,0,0,0,0,0,0,0,0,.1,0,.3-.1.4,0,0,0,.3,0,.4,0,0,0,0,0,0,0,0,0,0,0,0,0,0,0,0,0,0,0,0,0-.1-.1-.2,0,0-.2,0-.7-.2l-.6-.2c-.3,0-.6-.2-.7-.2,0,0-.1,0-.2,0,0,0,0,.1,0,.2,0,0,0,0,0,0,0,0,0,0,0,0,0-.2.1-.4.1-.5,0,0,0-.3.1-.4,0,0,0,0,0,0,0,0,0,0,0,0,0,0,0,0,0,.1,0,0,0,.1.1.1.1,0,.4.1.7.2l.6.2ZM52.6,30s0,0,.1,0c.2,0,.4,0,.4,0,0,0,0,0,0,0,0,0,0,0,0,0,0,0-.1,0-.2,0-.2,0-.4.2-.4.4,0,.3.1.5.3.5.2,0,.3,0,.6-.2h.1c.3-.4.6-.5.8-.5.4,0,.6.4.5.8,0,.2,0,.3-.1.4,0,0,0,0,0,0,0,0-.1,0-.4,0,0,0,0,0,0,0,0,0,0,0,0,0,0,0,.1,0,.2,0,0,0,.2-.1.2-.3,0-.2,0-.4-.3-.4-.1,0-.3,0-.5.3h0c-.3.4-.6.5-.9.5-.2,0-.4-.1-.5-.4,0-.2,0-.4,0-.5,0-.2,0-.3.2-.5M53,27c-.3,0-.3,0-.4.1,0,0,0,.1,0,.2,0,0,0,0,0,0,0,0,0,0,0,0,0-.2,0-.3,0-.4,0,0,0-.2,0-.4,0,0,0,0,0,0,0,0,0,0,0,0,0,0,0,.1,0,.1,0,0,.1,0,.4,0h1.9c0,0,.1,0,.1,0,0,0,0,0,0,.1s-.6.6-1,1c-.2.2-.7.7-.7.7h0s1.5,0,1.5,0c.2,0,.3,0,.3-.1,0,0,0-.1,0-.2,0,0,0,0,0,0,0,0,0,0,0,0,0,.2,0,.3,0,.4,0,0,0,.2,0,.3,0,0,0,0,0,0,0,0,0,0,0,0,0,0,0,0,0,0,0,0,0-.1-.3-.1h-2.1c0,0-.1,0-.1,0,0,0,0,0,0-.1.2-.2.6-.6.9-1,.3-.4.7-.7.8-.8h0s-1.4,0-1.4,0ZM53.6,24.2c.5-.1.6-.1.7-.2.1,0,.2,0,.2-.2,0,0,0,0,0-.1,0,0,0,0,0,0,0,0,0,0,0,0,0,0,0,.2,0,.3,0,0,0,.2,0,.2,0,.1.2.7.2.8,0,0,0,.1,0,.1,0,0,0,0,0,0,0,0,0,0,0,0,0,0,0,0-.2,0,0,0-.2,0-.2,0,0,0,0,0,0,0,0,0,0,0,0,0,0,0,0,0,.1,0,0,0,0,0,0-.2,0,0,0-.4,0-.5,0,0,0,0,0,0l-.8.2s0,0,0,0c0,0,0,.4.1.5,0,0,0,.1,0,.1,0,0,0,0,0,0,0,0,0,0,0,0,0,0,0,0-.2,0,0,0-.2,0-.2,0,0,0,0,0,0,0,0,0,0,0,0,0,0,0,0,0,.1,0,0,0,0,0,0-.2,0,0,0-.4,0-.5,0,0,0,0,0,0h-.3c-.1,0-.4.1-.5.2-.2,0-.3.1-.2.4,0,0,0,.2.1.3,0,0,.1,0,.3,0,0,0,0,0,0,0,0,0,0,0,0,0,0,0-.3,0-.4,0,0,0,0,0-.1-.2,0-.2,0-.4-.1-.6,0-.1,0-.2,0-.3,0,0,0-.1,0-.2,0,0,0-.2,0-.2,0,0,0,0,0,0,0,0,0,0,0,0,0,0,0,0,0,.1,0,0,.1,0,.2,0,.1,0,.4,0,.7-.1h.6ZM51.5,21.7c.1-.4.4-.6.7-.7.2,0,.6-.2,1,0,.3.1.5.4.7.8,0,.2.1.3.1.4,0,.1,0,.2,0,.3,0,0,0,0,0,0,0,0,0,0-.2,0-.1,0-.3.1-.3.1,0,0,0,0,0,0,0,0,0,0,0,0,0,0,.2-.1.2-.2,0-.1,0-.4,0-.7-.1-.3-.2-.4-.4-.5-.3-.1-.6,0-.9,0-.7.3-.8,1-.7,1.4.1.3.2.4.4.5,0,0,.2,0,.2,0,0,0,0,0,0,0,0,0,0,0,0,0,0,0-.3,0-.4,0,0,0,0,0-.1,0,0,0-.2-.3-.3-.5-.2-.4-.2-.8,0-1.2M51.7,19.7c.4-.3.5-.3.6-.4,0,0,.1-.1.1-.2,0,0,0,0,0-.1,0,0,0,0,0,0,0,0,0,0,0,0,0,.1.2.3.2.4,0,0,.1.2.2.3,0,0,0,0,0,0,0,0,0,0,0,0,0,0,0,0,0,0,0,0-.1,0-.2,0,0,0-.2,0-.6.3l-.5.3c-.3.2-.5.3-.6.4,0,0-.1.1,0,.2,0,0,0,.1,0,.1,0,0,0,0,0,0,0,0,0,0,0,0-.1-.2-.2-.4-.2-.4,0,0-.1-.2-.2-.3,0,0,0,0,0,0,0,0,0,0,0,0,0,0,0,0,0,0,0,0,.1,0,.2,0,.1,0,.3-.2.6-.3l.5-.3ZM50.1,17.7s0,0,0,0c0,0,0,.1.1.2,0,.1.1.1.2.1.1,0,.3,0,.5-.2.4-.3.3-.6.2-.8,0,0,0-.1-.1-.1,0,0,0,0,0,0l-.8.6ZM50,17.3c.4-.3.5-.4.5-.4,0,0,.1-.1,0-.2,0,0,0,0,0-.1,0,0,0,0,0,0,0,0,0,0,0,0,.1.1.2.3.3.4,0,0,.2.3.3.4.1.2.2.3.3.6,0,.1,0,.3-.2.5-.2.2-.4.2-.8.1-.1.5-.2.8-.2,1.1,0,.3,0,.4,0,.4,0,0,0,0,0,0,0,0,0,0,0,0,0,0,0,0,0,0l-.2-.2c-.1-.1-.2-.2-.2-.3,0-.2,0-.3,0-.6,0-.2.1-.5.1-.5,0,0,0,0,0,0l-.2-.2s0,0,0,0h0c-.2.2-.4.4-.5.5,0,0-.1.1,0,.2,0,0,0,.1,0,.1,0,0,0,0,0,0,0,0,0,0,0,0-.1-.1-.3-.3-.3-.4,0,0-.2-.2-.3-.3,0,0,0,0,0,0,0,0,0,0,0,0,0,0,0,0,0,0,0,0,.1,0,.2,0,.1,0,.3-.2.5-.4l.4-.4ZM47.6,15c.3-.4.4-.4.4-.5,0,0,0-.1,0-.2,0,0,0,0,0,0,0,0,0,0,0,0,0,0,0,0,0,0,.1.1.3.3.4.3,0,0,.2.2.3.3,0,0,0,0,0,0,0,0,0,0,0,0,0,0,0,0,0,0,0,0-.1,0-.2,0,0,0-.1.1-.5.5l-.3.3c-.3.4-.4.6-.3.8,0,.2.1.3.2.4.1,0,.3.2.5.2.3,0,.4-.2.7-.5l.3-.3c.3-.4.4-.4.4-.5,0,0,0-.1,0-.2,0,0,0,0,0,0,0,0,0,0,0,0,0,0,0,0,0,0,.1.1.3.2.3.3,0,0,.2.2.3.2,0,0,0,0,0,0,0,0,0,0,0,0,0,0,0,0,0,0,0,0-.1,0-.2,0,0,0-.1.1-.5.5l-.2.3c-.2.3-.5.5-.9.5s-.5-.1-.7-.3c-.1-.1-.4-.3-.4-.6,0-.2,0-.5.3-.8l.3-.4ZM46.1,13.1l-.4-.2c-.2,0-.2-.1-.3,0,0,0,0,0-.1,0,0,0,0,0,0,0,0,0,0,0,0,0,0,0,.2-.3.2-.3,0,0,0,0,0,0,0,0,0,0,0,.1,0,0,.2.1.3.2l1.1.7c0,0,.2,0,.2,0,0,0,0,0,0,0,0,0,0,0,0,0,0,0-.2.2-.2.3,0,0,0,0,0,0,0,0,0,0,0,0h0c0-.1,0-.2-.2-.4l-.3-.2-.7,1.2c-.2.3-.3.5-.3.6,0,0,0,.2,0,.2,0,0,0,0,.1,0,0,0,0,0,0,0,0,0,0,0,0,0-.2-.1-.4-.2-.4-.3,0,0-.2-.1-.4-.2,0,0,0,0,0,0,0,0,0,0,0,0,0,0,0,0,.1,0,0,0,.1,0,.2-.1,0-.1.2-.3.4-.6l.7-1.2ZM29.1,15.5c0,0,0,0-.1,0,0-.2-.2-.3-.2-.4,0,0,0,0,0,0,0,0,0,0,0,0,0,0,0,0,.1.1.2.2.4.1.6,0,.3-.2.3-.4.2-.5,0-.1-.2-.2-.5-.3h-.2c-.5,0-.7-.2-.8-.4-.2-.3,0-.7.3-.9.2-.1.3-.2.4-.2,0,0,0,0,0,0,0,0,0,.1.2.3,0,0,0,0,0,.1,0,0,0,0,0,0,0,0,0-.1-.2-.1,0,0-.2,0-.4,0-.2.1-.3.3-.2.5,0,.1.2.2.5.2h.1c.5,0,.7.2.9.5,0,.2.1.4,0,.6,0,.2-.2.3-.4.4-.2,0-.3.2-.5.2M27.4,15.5s0,0,0,0l-.7-.4s0,0,0,0c0,0,0,0,0,0l.3.8s0,0,0,0l.5-.4ZM27,16s0,0,0,0l.2.5c0,0,0,.2,0,.2,0,0,0,0,.2,0h0c0,0,0,0,0,0,0,0,0,0,0,0,0,0-.2.1-.3.2,0,0-.2.1-.3.2,0,0,0,0,0,0,0,0,0,0,0,0,0,0,0,0,0,0,.1-.1,0-.2,0-.4l-.6-2.1c0,0,0-.1,0-.2,0,0,0,0,.1,0,.2,0,1.4.8,1.9,1.1.3.2.4.1.4,0,0,0,0,0,.1,0,0,0,0,0,0,0,0,0,0,0,0,.1,0,0-.3.2-.5.4,0,0,0,0,0,0,0,0,0,0,0,0,0,0,0,0,0,0l-.6-.4s0,0,0,0l-.6.5ZM24.5,16.4l-.3.4c-.1.1-.2.2-.1.3,0,0,0,0,0,.1,0,0,0,0,0,0,0,0,0,0,0,0,0,0-.2-.3-.2-.3,0,0,0,0,0,0,0,0,0,0,.1,0,0,0,.2-.1.2-.2l.9-.9c0,0,.1-.1.1-.2,0,0,0,0,0,0,0,0,0,0,0,0,0,0,.2.2.3.3,0,0,0,0,0,0,0,0,0,0,0,0h0c0,0-.2,0-.4.1l-.3.3,1,.9c.2.2.4.4.5.5,0,0,.1,0,.2,0,0,0,0,0,.1-.1,0,0,0,0,0,0,0,0,0,0,0,0-.1.2-.3.3-.4.4,0,0-.2.2-.3.3,0,0,0,0,0,0,0,0,0,0,0,0,0,0,0,0,0,0,0,0,0-.1,0-.2,0-.1-.3-.3-.5-.5l-1-.9ZM23.7,18.6c-.4-.3-.5-.3-.6-.4,0,0-.2,0-.2,0,0,0,0,0,0,0,0,0,0,0,0,0,0,0,0,0,0,0,0,0,.2-.3.3-.3,0,0,.2-.2.2-.3,0,0,0,0,0,0,0,0,0,0,0,0,0,0,0,0,0,0,0,0,0,.1,0,.2,0,0,.2.1.6.4l.5.3c.3.2.5.3.6.4,0,0,.1,0,.2,0,0,0,0,0,.1-.1,0,0,0,0,0,0,0,0,0,0,0,0-.1.2-.3.3-.3.4,0,0-.2.2-.2.3,0,0,0,0,0,0,0,0,0,0,0,0,0,0,0,0,0-.1,0,0,0-.1,0-.2-.1,0-.3-.2-.6-.4l-.5-.3ZM23.8,21.3s0,0-.1,0c-.2,0-.3-.2-.4-.2,0,0,0,0,0,0,0,0,0,0,0,0,0,0,.1,0,.2,0,.2,0,.4,0,.5-.2.1-.3,0-.5-.1-.6-.1,0-.3-.1-.6,0h-.2c-.4.2-.7.2-.9.1-.3-.2-.4-.6-.2-1,.1-.2.2-.3.3-.3,0,0,0,0,0,0,0,0,.1,0,.3.2,0,0,0,0,0,0,0,0,0,0,0,0,0,0-.1,0-.2,0,0,0-.2,0-.3.2-.1.2,0,.4.1.5.1,0,.3,0,.6,0h.1c.5-.2.7-.3,1,0,.2,0,.3.3.3.5,0,.2,0,.4-.1.5,0,.2-.2.3-.3.4M21.9,22.7s0,0,0,0c0,0,0-.1.1-.2,0-.1,0-.2,0-.2,0-.1-.1-.3-.4-.4-.4-.2-.7,0-.7.2,0,0,0,.1,0,.2,0,0,0,0,0,0l.9.4ZM21.5,22.9c-.5-.2-.5-.2-.6-.2-.1,0-.2,0-.2,0,0,0,0,0,0,.1,0,0,0,0,0,0,0,0,0,0,0,0,0-.2.1-.3.2-.4,0-.1.1-.3.2-.4,0-.2.2-.4.3-.5,0,0,.3-.1.5,0,.2,0,.4.3.5.7.4-.1.8-.2,1.1-.3.2-.1.3-.2.3-.3,0,0,0,0,0,0,0,0,0,0,0,0,0,0,0,0,0,0v.3c-.2.2-.2.2-.3.3-.1.1-.3.2-.6.2-.2,0-.5.1-.5.1,0,0,0,0,0,0v.3c-.1,0-.1,0,0,0h0c.3.1.5.2.7.3,0,0,.2,0,.2,0,0,0,0-.1,0-.1,0,0,0,0,0,0,0,0,0,0,0,0,0,.2-.2.4-.2.4,0,0,0,.3-.1.4,0,0,0,0,0,0,0,0,0,0,0,0,0,0,0,0,0-.1,0,0,0-.1-.1-.2-.1,0-.4-.2-.6-.3l-.5-.2ZM20.9,25.3c-.5-.1-.6-.1-.7-.1-.1,0-.2,0-.2,0,0,0,0,0,0,.1,0,0,0,0,0,0,0,0,0,0,0,0,0,0,0-.2,0-.3,0,0,0-.2,0-.2,0-.1.2-.7.2-.8,0,0,0-.1,0-.1,0,0,0,0,0,0,0,0,0,0,0,0,0,0,0,0,.2,0,0,0,.2,0,.2,0,0,0,0,0,0,0,0,0,0,0,0,0,0,0,0,0-.1,0,0,0-.1,0-.2.2,0,0,0,.4-.1.4,0,0,0,0,0,0l.8.2s0,0,0,0c0,0,0-.4.1-.5,0,0,0-.1,0-.2,0,0,0,0,0,0,0,0,0,0,0,0,0,0,0,0,.2,0,0,0,.2,0,.2,0,0,0,0,0,0,0,0,0,0,0,0,0,0,0,0,0-.1,0,0,0-.1,0-.2.2,0,0,0,.4-.1.4,0,0,0,0,0,0h.3c.1,0,.4.1.5.2.2,0,.3,0,.4-.3,0,0,0-.2,0-.3,0,0,0-.1-.2-.2,0,0,0,0,0,0,0,0,0,0,0,0,0,0,.3,0,.3.1,0,0,0,0,0,.2,0,.2,0,.4-.1.5,0,.1,0,.2,0,.3,0,0,0,.1,0,.2,0,0,0,.2,0,.2,0,0,0,0,0,0,0,0,0,0,0,0,0,0,0,0,0-.1,0,0,0,0-.2-.1-.1,0-.4,0-.7-.2h-.6ZM20,28.2c-.2,0-.2.1-.3.2,0,0,0,0,0,.1,0,0,0,0,0,0,0,0,0,0,0,0,0-.2,0-.4,0-.5,0,0,0-.2,0-.4,0,0,0,0,0,0,0,0,0,0,0,0,0,0,0,.1,0,.1,0,0,0,0,0,0,0,0,.1,0,.3,0l1.5-.5h0c-.3-.2-1.4-.7-1.6-.8,0,0,0,0-.1,0,0,0,0,0,0,0,0,0,0,0,0,.1,0,0,0,0,0,0,0,0,0,0,0,0,0-.2,0-.3,0-.3,0,0,0-.2,0-.3,0,0,0,0,0,0,0,0,0,0,0,0,0,0,0,.1,0,.2,0,0,0,0,.3.2.3.1.5.2.9.4.5.2.8.4,1,.5.2,0,.2.1.2.2,0,0,0,0-.2.1l-2,.7ZM20.7,29.6c-.5,0-.6,0-.7,0-.1,0-.2,0-.2.1,0,0,0,0,0,.1,0,0,0,0,0,0,0,0,0,0,0,0,0-.1,0-.3,0-.4,0,0,0-.3,0-.4,0,0,0,0,0,0,0,0,0,0,0,0,0,0,0,0,0,0,0,0,0,.1.2.1.1,0,.2,0,.7,0h.6c.3,0,.6,0,.7,0,0,0,.1,0,.2-.1,0,0,0-.1,0-.2,0,0,0,0,0,0,0,0,0,0,0,0,0,.2,0,.4,0,.5,0,0,0,.3,0,.4,0,0,0,0,0,0,0,0,0,0,0,0,0,0,0,0,0-.1,0,0,0,0-.2,0-.1,0-.4,0-.7,0h-.6ZM22.2,32.5c.2,0,.3-.1.3-.2,0,0,0-.1,0-.2,0,0,0,0,0,0,0,0,0,0,0,0,0,.2,0,.3,0,.4,0,0,0,.2,0,.3,0,0,0,0,0,0,0,0,0,0,0,0,0,0,0,0,0-.1,0,0-.1,0-.4,0l-1.9.4c0,0-.1,0-.1,0,0,0,0,0,0-.1,0,0,.4-.6.8-1.2.2-.3.5-.8.6-.9h0s-1.4.3-1.4.3c-.2,0-.2,0-.3.2,0,0,0,.1,0,.2,0,0,0,0,0,0,0,0,0,0,0,0,0-.2,0-.3,0-.4,0,0,0-.2,0-.3,0,0,0,0,0,0,0,0,0,0,0,0,0,0,0,0,0,0,0,0,.1,0,.3,0l2-.4c0,0,.1,0,.1,0,0,0,0,0,0,.1-.1.2-.5.7-.7,1.1-.3.4-.6.9-.6.9h0s1.3-.3,1.3-.3ZM22.4,35.9c-.5.2-.5.2-.6.3-.1,0-.1,0-.1.2,0,0,0,0,0,.1,0,0,0,0,0,0,0,0,0,0,0,0,0-.2-.1-.3-.2-.4,0,0-.1-.3-.2-.4,0,0,0,0,0,0,0,0,0,0,0,0,0,0,0,0,0,0,0,0,.1,0,.2,0,0,0,.2,0,.6-.3l.4-.2c.4-.2.6-.4.6-.5,0-.2,0-.3,0-.4,0-.1-.2-.3-.3-.3-.2,0-.5,0-.8.1l-.4.2c-.5.2-.5.2-.6.3,0,0-.1,0-.1.2,0,0,0,0,0,.1,0,0,0,0,0,0,0,0,0,0,0,0,0-.2-.1-.3-.1-.3,0,0-.1-.2-.2-.3,0,0,0,0,0,0,0,0,0,0,0,0,0,0,0,0,0,0,0,0,.1,0,.2,0,0,0,.2,0,.6-.3h.3c.3-.3.7-.4,1-.2.3.1.4.3.5.5,0,.2.2.5,0,.8,0,.2-.2.4-.7.6l-.4.2Z"/>
  </g>
</svg>