<?xml version="1.0" encoding="UTF-8"?>
<svg id="Ebene_1" xmlns="http://www.w3.org/2000/svg" xmlns:xlink="http://www.w3.org/1999/xlink" version="1.1" viewBox="0 0 155.9 56.7">
  <!-- Generator: Adobe Illustrator 29.5.1, SVG Export Plug-In . SVG Version: 2.1.0 Build 141)  -->
  <defs>
    <style>
      .st0 {
        fill: none;
      }

      .st1 {
        fill: #969696;
      }

      .st2 {
        fill: #fff;
      }

      .st3 {
        clip-path: url(#clippath);
      }
    </style>
    <clipPath id="clippath">
      <rect class="st0" x="0" y="0" width="155.9" height="56.7"/>
    </clipPath>
  </defs>
  <g class="st3">
    <path class="st1" d="M21.8,26.6v-.7c-.6,0-1,0-1.2-.3-.2-.2-.3-.7-.3-1.6v-2.2h.2c.6,0,1,.1,1.3.4.3.3.5.7.6,1.4h.8c0-.2,0-.5,0-.7,0-.2,0-.4,0-.6v-1.3c0-.4,0-.8,0-1.1,0-.3,0-.6,0-.8h-.8c0,.7-.2,1.2-.5,1.4-.3.3-.8.4-1.4.4h0c0-1.1,0-1.9,0-2.4s0-1,0-1.3c.2,0,.4,0,.5,0,.2,0,.3,0,.5,0,1.1,0,1.9.2,2.3.6.5.4.8,1,1,1.9h.7v-3.4c-.3,0-.5,0-.8,0-.2,0-.5,0-.8,0h-7.5v.7c.6,0,1,0,1.2.3s.3.6.3,1.2v5.8c0,.6-.1,1-.3,1.2-.2.2-.6.3-1.2.3v.7h5.4ZM29.5,18.7l1.4,3.9h-2.8l1.4-3.9ZM28.5,26.6v-.7c-.4,0-.7,0-.9-.2-.2-.1-.3-.3-.3-.6s0-.3,0-.4c0-.2.1-.4.2-.8l.2-.5h3.4l.3.6c0,.2.2.5.2.7,0,.2,0,.4,0,.5,0,.2,0,.4-.3.5-.2,0-.5.1-.9.1v.7h4.8v-.7c-.6,0-1.1-.6-1.5-1.7,0-.1,0-.2-.1-.3l-2.3-5.8c0-.2-.2-.5-.3-.8-.1-.3-.3-.7-.4-1.2h-1.3v.2c-.4,1-.6,1.6-.7,1.8l-2.1,5.6c-.3.9-.6,1.4-.8,1.7-.2.3-.5.5-.8.5v.7h3.4ZM43.4,25.4c-.4.2-.9.4-1.4.4-1,0-1.7-.4-2.3-1.2-.6-.8-.9-1.9-.9-3.3s.3-2.4.8-3.2c.5-.8,1.3-1.2,2.2-1.2s1.2.2,1.5.7c.4.5.6,1.2.6,2.1h.9s0-3.3,0-3.3c-.6-.1-1.1-.2-1.6-.3-.5,0-1,0-1.4,0-1.7,0-3.1.5-4.1,1.5-1,1-1.5,2.3-1.5,3.9s.5,2.8,1.4,3.8c.9,1,2.2,1.5,3.7,1.5s1.6-.2,2.3-.5c.7-.3,1.3-.8,1.8-1.5l-.6-.6c-.5.5-1,.9-1.4,1.1M51.7,26.6v-.7c-.6,0-1,0-1.2-.3-.2-.2-.3-.6-.3-1.2v-2.5h4v2.5c0,.6-.1,1-.3,1.2-.2.2-.6.3-1.2.3v.7h5.3v-.7c-.6,0-1,0-1.2-.3-.2-.2-.3-.6-.3-1.2v-5.8c0-.6.1-1,.3-1.2.2-.2.6-.3,1.2-.3v-.7h-5.3v.7c.6,0,1,0,1.2.3.2.2.3.6.3,1.2v2.4h-4v-2.4c0-.6.1-1,.3-1.2.2-.2.6-.3,1.2-.3v-.7h-5.3v.7c.6,0,1,0,1.2.3.2.2.3.6.3,1.2v5.8c0,.6-.1,1-.3,1.2-.2.2-.6.3-1.2.3v.7h5.3ZM64.2,26.6v-.7c-.6,0-1,0-1.2-.3-.2-.2-.3-.6-.3-1.2v-2.2l.6-.6,3.3,4.7h0c.2.3.5.5.7.5h2.6v-.8s0,0,0,0c0,0,0,0-.1,0-.5,0-1.1-.5-1.8-1.4h0s-3.1-4.4-3.1-4.4l.7-.7c.9-.9,1.6-1.5,2.2-1.8.5-.3,1-.5,1.5-.5v-.7h-4.3v.7c.4,0,.6,0,.8.1.1,0,.2.2.2.3s0,.3-.3.6c-.2.3-.4.5-.7.8l-2.2,2.1v-2.4c0-.6.1-1,.3-1.2.2-.2.6-.3,1.2-.3v-.7h-5.2v.7c.6,0,1,0,1.2.3.2.2.3.6.3,1.2v5.8c0,.6-.1,1-.3,1.2-.2.2-.6.3-1.2.3v.7h5.2ZM78.8,26.6l.4-3.5h-.8c-.3.9-.7,1.6-1.2,2-.5.5-1.1.7-1.8.7s-.7,0-.9,0c-.2,0-.3-.2-.4-.3,0-.1-.1-.3-.1-.6,0-.3,0-.7,0-1.4v-4.9c0-.6.1-1,.3-1.2.2-.2.6-.3,1.2-.3v-.7h-5.4v.7c.6,0,1,0,1.2.3.2.2.3.6.3,1.2v5.8c0,.6-.1,1-.3,1.2-.2.2-.6.3-1.2.3v.7h8.8ZM83.9,18.7l1.4,3.9h-2.8l1.4-3.9ZM82.9,26.6v-.7c-.4,0-.7,0-.9-.2-.2-.1-.3-.3-.3-.6s0-.3,0-.4c0-.2.1-.4.2-.8l.2-.5h3.4l.3.6c0,.2.2.5.2.7,0,.2,0,.4,0,.5,0,.2,0,.4-.3.5-.2,0-.5.1-.9.1v.7h4.8v-.7c-.6,0-1.1-.6-1.5-1.7,0-.1,0-.2-.1-.3l-2.3-5.8c0-.2-.2-.5-.3-.8-.1-.3-.3-.7-.4-1.2h-1.3v.2c-.4,1-.6,1.6-.7,1.8l-2.1,5.6c-.3.9-.6,1.4-.8,1.7-.2.3-.5.5-.8.5v.7h3.4ZM90.9,26.5c.4.1.8.2,1.3.2.5,0,1,0,1.5,0,1.3,0,2.3-.3,3-.9.7-.6,1.1-1.4,1.1-2.5s-.2-1.3-.6-1.8c-.4-.5-1.1-.9-2.2-1.4-.9-.4-1.5-.7-1.8-1-.3-.3-.4-.6-.4-1s.1-.7.4-1c.3-.3.7-.4,1.1-.4.6,0,1.1.2,1.5.6.4.4.6,1,.7,1.8h.8v-2.8c-.5-.1-1-.3-1.5-.3-.5,0-.9-.1-1.3-.1-1.1,0-1.9.3-2.6.9-.6.6-1,1.3-1,2.3s.2,1.3.6,1.7c.4.5,1.2,1,2.4,1.5.8.4,1.3.7,1.6,1,.3.3.4.6.4,1s-.2.9-.5,1.2c-.3.3-.8.5-1.3.5s-1.3-.3-1.7-.8c-.5-.5-.7-1.2-.8-2.1h-.9v3.3ZM99.8,26.5c.4.1.8.2,1.3.2.5,0,1,0,1.5,0,1.3,0,2.3-.3,3-.9.7-.6,1.1-1.4,1.1-2.5s-.2-1.3-.6-1.8c-.4-.5-1.1-.9-2.2-1.4-.9-.4-1.5-.7-1.8-1-.3-.3-.4-.6-.4-1s.1-.7.4-1c.3-.3.7-.4,1.1-.4.6,0,1.1.2,1.5.6.4.4.6,1,.7,1.8h.8v-2.8c-.5-.1-1-.3-1.5-.3-.5,0-.9-.1-1.3-.1-1.1,0-1.9.3-2.6.9-.6.6-1,1.3-1,2.3s.2,1.3.6,1.7c.4.5,1.2,1,2.4,1.5.8.4,1.3.7,1.6,1,.3.3.4.6.4,1s-.2.9-.5,1.2c-.3.3-.8.5-1.3.5s-1.3-.3-1.7-.8c-.5-.5-.7-1.2-.8-2.1h-.9v3.3ZM117.1,26.6l.3-3.5h-.8c-.3,1-.7,1.7-1.3,2.1-.5.4-1.2.7-2.1.7s-.9,0-1.1,0c-.2,0-.3-.2-.3-.3,0-.1,0-.3,0-.7,0-.3,0-.8,0-1.5v-1.5h.2c.6,0,1,.1,1.3.4.3.3.5.7.6,1.4h.8c0-.2,0-.5,0-.7,0-.2,0-.4,0-.6v-1.3c0-.4,0-.8,0-1.1,0-.3,0-.6,0-.8h-.8c0,.7-.2,1.2-.5,1.4-.3.3-.8.4-1.4.4h0c0-1.1,0-1.9,0-2.4,0-.6,0-1,0-1.3.2,0,.4,0,.5,0,.2,0,.3,0,.5,0,1.1,0,1.9.2,2.3.6.5.4.8,1,1,1.9h.7v-3.4c-.4,0-.7,0-.9,0-.2,0-.4,0-.6,0h-7.5v.7c.6,0,1,0,1.2.3s.3.6.3,1.2v5.8c0,.6-.1,1-.3,1.2-.2.2-.6.3-1.2.3v.7h9.2ZM25.5,38.7c0-.3,0-.5,0-.7,0-.7,0-1.1.2-1.3.2-.2.5-.3.9-.3v-.7h-4.6v.7c.5,0,.9.1,1.1.3.2.2.3.6.3,1.2s0,.6,0,1.3v.3c-.2,0-.4.1-.6.2-.2,0-.4,0-.6,0-1,0-1.8-.4-2.4-1.2s-.8-1.9-.8-3.3.3-2.7.8-3.5c.5-.8,1.2-1.2,2.2-1.2s1.2.3,1.7.8c.4.5.7,1.2.7,2.2h.8v-3.3c-.6-.1-1.1-.2-1.6-.3-.5,0-1,0-1.4,0-1.8,0-3.2.5-4.2,1.5-1,1-1.5,2.3-1.5,3.9s.5,3,1.4,3.9c1,.9,2.3,1.4,4,1.4s1.2,0,1.9-.2c.7-.1,1.3-.3,1.9-.6,0-.4,0-.7,0-1M31.3,32.4c0-.6,0-1.1,0-1.5,0,0,0,0,.2,0,.2,0,.4,0,.5,0,.7,0,1.3.2,1.6.5.4.3.6.8.6,1.4s-.2,1.1-.6,1.4c-.4.3-.9.5-1.7.5s-.3,0-.5,0c0,0,0,0-.1,0v-1.2c0-.1,0-.5,0-1.1M32.7,40.3v-.7c-.5,0-.9-.1-1.1-.3-.2-.2-.3-.6-.3-1.2v-2.6s0,0,0,0c0,0,0,0,.1,0,.4,0,.8.2,1.1.5.3.3.7,1,1.2,1.9l.8,1.6c.2.4.4.6.5.7.1,0,.3.1.5.1s0,0,.1,0c0,0,.1,0,.1,0h2v-.7c-.4,0-.8-.4-1.2-1h0s-.8-1.5-.8-1.5c-.4-.8-.8-1.3-1.1-1.6-.3-.3-.7-.4-1.1-.5,1.1-.1,1.9-.4,2.4-.8.5-.4.8-1,.8-1.7s-.1-1-.4-1.4c-.3-.4-.7-.6-1.2-.8-.3-.1-.7-.2-1.2-.2-.5,0-1.2,0-2.2,0h-4v.7c.5,0,.8.1,1,.3.2.2.3.6.3,1.1v5.8c0,.6,0,.9-.3,1.1-.2.2-.5.3-1,.3v.7h5ZM42.4,32.3l1.4,3.9h-2.8l1.4-3.9ZM41.4,40.3v-.7c-.4,0-.7,0-.9-.2-.2-.1-.3-.3-.3-.6s0-.3,0-.4c0-.2.1-.4.2-.8l.2-.5h3.4l.3.6c0,.2.2.5.2.7,0,.2,0,.4,0,.5,0,.2,0,.4-.3.5-.2,0-.5.1-.9.1v.7h4.8v-.7c-.6,0-1.1-.6-1.5-1.7,0-.1,0-.2-.1-.3l-2.3-5.8c0-.2-.2-.5-.3-.8-.1-.3-.3-.7-.4-1.2h-1.3v.2c-.4,1-.6,1.6-.7,1.8l-2.1,5.6c-.3.9-.6,1.4-.8,1.7-.2.3-.5.5-.8.5v.7h3.4ZM54.1,40.3v-.7c-.6,0-1-.1-1.2-.3-.2-.2-.3-.7-.3-1.6v-2.2h.2c.6,0,1,.1,1.3.4.3.3.5.7.6,1.4h.8c0-.2,0-.5,0-.7,0-.2,0-.4,0-.6v-1.3c0-.4,0-.8,0-1.1,0-.3,0-.6,0-.8h-.8c0,.7-.2,1.2-.5,1.4-.3.3-.8.4-1.4.4h0c0-1.1,0-1.9,0-2.4s0-1,0-1.3c.2,0,.4,0,.5,0,.2,0,.3,0,.5,0,1.1,0,1.9.2,2.3.6.5.4.8,1,1,1.9h.7v-3.4c-.3,0-.5,0-.8,0-.2,0-.5,0-.8,0h-7.5v.7c.6,0,1,0,1.2.3.2.2.3.6.3,1.2v5.8c0,.6-.1,1-.3,1.2-.2.2-.6.3-1.2.3v.7h5.4ZM64.2,40.3v-.7c-.6,0-1,0-1.2-.3-.2-.2-.3-.6-.3-1.2v-5.8c0-.6.1-1,.3-1.2.2-.2.6-.3,1.2-.3v-.7h-5.4v.7c.6,0,1,0,1.2.3.2.2.3.6.3,1.2v5.8c0,.6-.1,1-.3,1.2-.2.2-.6.3-1.2.3v.7h5.4ZM70.4,40.3v-.7c-.6,0-1,0-1.2-.3-.2-.2-.3-.6-.3-1.2v-2.2l.6-.6,3.3,4.7h0c.2.3.5.5.7.5h2.6v-.8s0,0,0,0c0,0,0,0-.1,0-.5,0-1.1-.5-1.8-1.4h0s-3.1-4.4-3.1-4.4l.7-.7c.9-.9,1.6-1.5,2.2-1.8.5-.3,1-.5,1.5-.5v-.7h-4.3v.7c.4,0,.6,0,.8.1.1,0,.2.2.2.3s0,.3-.3.6c-.2.3-.4.5-.7.8l-2.2,2.1v-2.4c0-.6.1-1,.3-1.2.2-.2.6-.3,1.2-.3v-.7h-5.2v.7c.6,0,1,0,1.2.3s.3.6.3,1.2v5.8c0,.6-.1,1-.3,1.2-.2.2-.6.3-1.2.3v.7h5.2ZM86.1,40.3l.4-3.5h-.8c-.3.9-.7,1.6-1.2,2s-1.1.7-1.8.7-.7,0-.9,0c-.2,0-.3-.2-.4-.3,0-.1-.1-.3-.1-.6,0-.3,0-.7,0-1.4v-4.9c0-.6.1-1,.3-1.2.2-.2.6-.3,1.2-.3v-.7h-5.4v.7c.6,0,1,0,1.2.3.2.2.3.6.3,1.2v5.8c0,.6-.1,1-.3,1.2-.2.2-.6.3-1.2.3v.7h8.8ZM88.3,36.3c0,1.4.3,2.5,1,3.2.7.7,1.7,1,3,1s2.5-.4,3.1-1.1c.6-.7.9-1.9.9-3.6s0-.7,0-1.1c0-.4,0-.7,0-.8v-.2c0-1.4,0-2.3.3-2.6.2-.3.5-.5,1-.5v-.7h-3.5v.7h0c.5,0,.9.2,1.1.6.2.4.3,1.4.3,3.1v.8c0,1.6-.2,2.7-.5,3.3-.4.6-1,.9-1.9.9s-1.4-.3-1.8-.8c-.4-.5-.6-1.3-.6-2.3v-4.1c0-.5.1-.9.3-1.1.2-.2.5-.3,1-.3v-.7h-5.1v.7c.5,0,.9.1,1.1.3.2.2.3.6.3,1.1v4.1ZM98.2,40.3c1.7,0,2.9,0,3.7,0s2,0,3.7,0h.2s.4-3.5.4-3.5h-.7c-.4.9-.8,1.6-1.3,2-.5.4-1.3.6-2.2.6s-.3,0-.5,0c-.2,0-.4,0-.7,0l5.4-8.6v-.8c-.3,0-.6,0-.9,0s-.6,0-.9,0-.5,0-1,0c-.4,0-.7,0-.9,0s-.5,0-.9,0c-.4,0-.7,0-1,0s-.6,0-.9,0-.6,0-.9,0l-.3,3.4h.8c.2-.9.6-1.6,1.1-1.9.5-.4,1.2-.6,2.1-.6s.4,0,.6,0c.1,0,.3,0,.4,0l-5.4,8.6v.7h.2ZM116.1,40.3l.3-3.5h-.8c-.3,1-.7,1.7-1.3,2.1-.5.4-1.2.7-2.1.7s-.9,0-1.1,0c-.2,0-.3-.2-.3-.3,0-.1,0-.3,0-.7,0-.3,0-.8,0-1.5v-1.5h.2c.6,0,1,.1,1.3.4.3.3.5.7.6,1.4h.8c0-.2,0-.5,0-.7,0-.2,0-.4,0-.6v-1.3c0-.4,0-.8,0-1.1,0-.3,0-.6,0-.8h-.8c0,.7-.2,1.2-.5,1.4-.3.3-.8.4-1.4.4h0c0-1.1,0-1.9,0-2.4,0-.6,0-1,0-1.3.2,0,.4,0,.5,0,.2,0,.3,0,.5,0,1.1,0,1.9.2,2.3.6.5.4.8,1,1,1.9h.7v-3.4c-.4,0-.7,0-.9,0-.2,0-.4,0-.6,0h-7.5v.7c.6,0,1,0,1.2.3s.3.6.3,1.2v5.8c0,.6-.1,1-.3,1.2-.2.2-.6.3-1.2.3v.7h9.2ZM121.6,32.4c0-.6,0-1.1,0-1.5,0,0,0,0,.2,0,.2,0,.4,0,.5,0,.7,0,1.3.2,1.6.5.4.3.6.8.6,1.4s-.2,1.1-.6,1.4c-.4.3-.9.5-1.7.5s-.3,0-.5,0c0,0,0,0-.1,0v-1.2c0-.1,0-.5,0-1.1M122.9,40.3v-.7c-.5,0-.9-.1-1.1-.3-.2-.2-.3-.6-.3-1.2v-2.6s0,0,0,0c0,0,0,0,.1,0,.4,0,.8.2,1.1.5.3.3.7,1,1.2,1.9l.8,1.6c.2.4.4.6.5.7.1,0,.3.1.5.1s0,0,.1,0c0,0,.1,0,.1,0h2v-.7c-.4,0-.8-.4-1.2-1h0s-.8-1.5-.8-1.5c-.4-.8-.8-1.3-1.1-1.6-.3-.3-.7-.4-1.1-.5,1.1-.1,1.9-.4,2.4-.8.5-.4.8-1,.8-1.7s-.1-1-.4-1.4c-.3-.4-.7-.6-1.2-.8-.3-.1-.7-.2-1.2-.2-.5,0-1.2,0-2.2,0h-4v.7c.5,0,.8.1,1,.3.2.2.3.6.3,1.1v5.8c0,.6,0,.9-.3,1.1-.2.2-.5.3-1,.3v.7h5ZM132.5,40.3v-.7h0c-.5,0-.9-.2-1.1-.7-.2-.5-.3-1.5-.3-3.3v-1.7c0-.6,0-1.1,0-1.4,0-.3,0-.6,0-.9l6.4,8.8h.9c0-1,0-1.9,0-2.8,0-.9,0-1.9,0-3v-1.1c0-1.2,0-2,.3-2.3.2-.3.5-.5,1.1-.5v-.7h-3.5v.7c.6,0,1,.2,1.2.5.2.3.3,1.1.3,2.5s0,1.2,0,1.9c0,.7,0,1.1,0,1.1l-3.7-4.9s0,0-.1-.1c-.5-.6-.9-1.2-1.1-1.7h-3.7v.7c.3,0,.5,0,.7,0,.2,0,.3.1.4.2.1.1.2.4.2.8,0,.4,0,1.3,0,2.8v1.9c0,1.3,0,2.2-.2,2.6-.2.4-.5.6-.9.6h-.2v.7h3.6Z"/>
  </g>
</svg>
