<?xml version="1.0" encoding="UTF-8"?>
<svg id="Ebene_1" xmlns="http://www.w3.org/2000/svg" xmlns:xlink="http://www.w3.org/1999/xlink" version="1.1" viewBox="0 0 155.9 56.7">
  <!-- Generator: Adobe Illustrator 29.5.1, SVG Export Plug-In . SVG Version: 2.1.0 Build 141)  -->
  <defs>
    <style>
      .st0 {
        fill: none;
      }

      .st1 {
        fill: #646464;
      }

      .st2 {
        fill: #fff;
      }

      .st3 {
        clip-path: url(#clippath);
      }
    </style>
  </defs>
  <g class="st3">
    <path class="st1" d="M69.5,37.9c5.2,0,7.7-2.7,7.7-8.1v-10.6h-5v10.3c0,3-.8,4.2-2.8,4.2s-2.8-1.1-2.8-4.2v-10.3h-5v10.7c0,5.4,2.5,8.1,7.7,8.1M60.7,37.6v-3.6c0-.5-.2-.7-.7-.7h-6.3v-14.2h-5v18.5h11.9ZM39.4,37.9c4.3,0,6.9-2.2,6.9-5.8s-1.1-4.1-4-5.3l-2.5-1.1c-1.2-.5-1.6-.9-1.6-1.6s.8-1.4,2.1-1.4c2,0,3.6,1,4.1,1s.2,0,.4-.1c.1,0,.2-.2.2-.3l1.1-3.2c-1.8-1-3.8-1.4-5.9-1.4-4.1,0-6.8,2.2-6.8,5.4s1.1,4.2,3.7,5.3l2.9,1.3c1,.4,1.4.9,1.4,1.6,0,1-.7,1.5-2.2,1.5-2.3,0-4.3-1-4.7-1s-.3,0-.4.1c-.1,0-.2.2-.2.3l-.9,3.3c2.2,1,4.3,1.4,6.5,1.4M26.2,19.2v7.1h-5.6v-7.1h-5v18.5h5v-7.2h5.6v7.2h5v-18.5h-5Z"/>
    <path class="st1" d="M110.6,37.6h.9c.2,0,.3-.1.3-.3v-3.9c.4-.4.9-.5,1.4-.6.7,0,1,.4,1,1.2v3.3c0,.2.1.3.3.3h.9c.2,0,.3-.1.3-.3v-3.6c0-1.4-.7-2.2-1.9-2.2s-1.4.3-2,.8v-.4c0-.2-.1-.2-.3-.2h-.9c0,0,0,0-.1,0,0,0,0,0,0,.1h0v5.4h0c0,.2,0,.2,0,.2,0,0,0,0,.1,0h0ZM106.4,37.6h.9c.2,0,.3-.1.3-.3v-3.9c.1-.2.3-.3.5-.4.2-.1.4-.2.7-.2h.4c.2,0,.2,0,.2-.2v-.9c.1,0,.1-.1.1-.1q0,0,0-.1c-.1,0-.2-.1-.4,0-.3,0-.6,0-.8.2-.2.1-.5.4-.7.6v-.4c0-.2-.1-.2-.3-.2h-.8c-.2,0-.3,0-.3.3v5.3c0,.2,0,.3.3.3M101,34.1c0-.4.2-.7.4-1,.2-.2.6-.4,1-.4s.3,0,.5.1c.1,0,.3.2.4.2.1.1.2.2.2.4,0,.1,0,.3,0,.5h0c0,.1-2.5.1-2.5.1ZM102.5,37.8c.7,0,1.4-.1,2.1-.4,0,0,0,0,.1,0,0,0,0,0,0-.1h0v-.2l-.2-.6c0-.1-.1-.2-.3-.1-.5.2-1,.3-1.5.3s-.9-.1-1.2-.4c-.3-.3-.5-.7-.5-1.1h3.6c.3,0,.4,0,.4-.4v-.2c0-1.8-1-2.9-2.5-2.9s-3.1,1.3-3.1,3.1c0,1.9,1.1,3.1,3,3.1M96,36.6l2.6-3.8c0-.1.1-.2.1-.4v-.4c0-.1,0-.2-.3-.2h-3.9c-.2,0-.2.1-.2.2v.5c0,.2,0,.3.3.3h2.2l-2.6,3.8c-.1.1-.1.2-.1.4v.3h0c0,.2,0,.2,0,.2,0,0,0,0,.1,0h4.4s0,0,0,0h0v-.8c0-.2-.1-.2-.2-.2h-2.6ZM89.9,37.8c.7,0,1.4-.3,1.9-.8v.4c0,.2.1.2.3.2h.8c.2,0,.3-.1.3-.3v-5.3c0-.2-.1-.3-.3-.3h-.9c-.2,0-.3,0-.3.3v3.9c-.4.4-.9.5-1.4.6-.6,0-.9-.4-.9-1.2v-3.3c0-.2,0-.3-.3-.3h-.8c-.2,0-.3.1-.3.3v3.6c0,1.5.6,2.3,1.9,2.3M82.3,37.6h4.3c.2,0,.3,0,.3-.3v-.7h0c0-.2,0-.2,0-.2,0,0,0,0-.1,0h-3.2v-6.7c0-.2,0-.3-.3-.3h-1c-.2,0-.3.1-.3.3v7.7c0,.2.1.3.4.3"/>
    <path class="st1" d="M137.7,23.9c0-.4.2-.7.4-1,.2-.2.6-.4,1-.4s.3,0,.5.1c.1,0,.3.2.4.2.1.1.2.2.2.4,0,.1,0,.3,0,.5h0c0,.1-2.5.1-2.5.1ZM139.2,27.6c.7,0,1.4-.1,2.1-.4q0,0,.1,0h0v-.2h0c0-.1-.2-.8-.2-.8,0-.1-.1-.2-.3-.1-.5.2-1,.3-1.5.3s-.9-.1-1.2-.4-.5-.7-.5-1.1h3.5c.3,0,.4,0,.4-.4v-.2c0-1.8-1-2.9-2.5-2.9s-3.1,1.3-3.1,3.1,1.1,3.2,3.1,3.1M133.7,27.5h1c.2,0,.2-.1.2-.3v-7.8c0-.2-.1-.3-.3-.3h-.8c-.2,0-.3,0-.3.3v7.8h0c0,.2,0,.2,0,.2,0,0,0,0,.1,0h0ZM128.6,27.6c.7,0,1.4-.3,1.9-.8v.4c0,.2.1.2.3.2h.8c.2,0,.3-.1.3-.3v-5.3c0-.2-.1-.3-.3-.3h-.8c-.2,0-.3,0-.3.3v3.9c-.4.4-.9.5-1.4.6-.6,0-.9-.4-.9-1.2v-3.3c0-.2,0-.3-.3-.3h-.8c-.2,0-.3.1-.3.3v3.6c0,1.4.6,2.2,1.9,2.2M121.3,27.5c.2,0,.2-.1.2-.3v-3.9c.4-.4,1-.5,1.5-.6.7,0,.9.5.9,1.2v3.3c0,.2.1.3.3.3h.8c.2,0,.3,0,.3-.3v-3.6c0-1.3-.5-2.2-1.9-2.2s-1.4.2-1.9.7v-2.7c0-.2-.1-.3-.3-.3h-.8c-.2,0-.3,0-.3.3v7.8h0c0,.2,0,.2,0,.2,0,0,0,0,.1,0h1ZM117,27.6c.6,0,1.2-.1,1.8-.4.2,0,.2-.2.1-.4l-.2-.6c0-.1-.1-.1-.2-.1-.4.2-.8.3-1.3.3-1,0-1.6-.7-1.6-2s.6-1.9,1.7-1.9.8,0,1.2.2c.1,0,.2,0,.3-.1l.2-.7c0-.2,0-.2-.1-.3-.5-.2-1.1-.4-1.6-.4-1.9,0-3.1,1.3-3.1,3.2,0,1.9,1,3,2.8,3M110.9,27.6c1.4,0,2.4-.8,2.4-1.9s-.1-.7-.3-1c-.2-.3-.5-.5-.8-.6l-1.1-.4c-.4-.2-.6-.4-.6-.7s.3-.5.7-.5,1,0,1.4.3h0c0,0,.1,0,.1,0,0,0,0,0,0,0h0c0,0,.2-.7.2-.7,0-.2,0-.2-.1-.3-.5-.2-1.2-.4-1.8-.4-1.3,0-2.2.7-2.2,1.7s.1.7.4,1c.2.3.5.5.9.6l1,.4c.5.2.7.4.7.7s-.4.7-1,.7-1-.2-1.5-.4c-.1,0-.2,0-.3.1l-.2.7h0c0,.1.1.2.1.2.6.3,1.3.4,1.9.4M102.7,27.5h1c.2,0,.2-.1.2-.3v-3.9c.4-.4,1-.5,1.5-.6.7,0,.9.5.9,1.2v3.3c0,.2.1.3.3.3h.8c.2,0,.3,0,.3-.3v-3.6c0-1.3-.5-2.2-1.9-2.2s-1.4.2-1.9.7v-2.7c0-.2-.1-.3-.3-.3h-.8c-.2,0-.4,0-.4.3v7.8h0c0,.2,0,.2,0,.2,0,0,0,0,.1,0h0ZM99.5,27.6c.6,0,1.2-.1,1.8-.4.2,0,.2-.2.1-.4l-.2-.6c0-.1-.1-.1-.2-.1-.4.2-.8.3-1.3.3-1,0-1.6-.7-1.6-2s.6-1.9,1.7-1.9.8,0,1.2.2c.1,0,.2,0,.3-.1l.2-.7c0-.2,0-.2-.1-.3-.5-.2-1.1-.4-1.6-.4-1.9,0-3.1,1.3-3.1,3.2-.1,1.9,1,3,2.8,3M92.6,26.5c-.9,0-1.4-.7-1.4-2s.5-1.9,1.4-1.9,1.4.7,1.4,1.9-.5,2-1.4,2M92.6,27.6c1.8,0,3-1.3,3-3.1s-1.1-3.1-2.9-3.1-3,1.2-3,3.1,1.1,3.2,2.9,3.1M83.3,27.5c.2,0,.3,0,.3-.3v-3.3h3.4v3.3c0,.2.1.3.3.3h1c.2,0,.3,0,.3-.3v-7.8c0-.2-.1-.3-.3-.3h-1c-.2,0-.3,0-.3.3v3h-3.4v-3c0-.2-.1-.3-.3-.3h-1c-.2,0-.4,0-.4.3v7.8c0,.2.1.3.4.3h1Z"/>
  </g>
</svg>
