<?xml version="1.0" encoding="UTF-8"?>
<svg id="Ebene_1" xmlns="http://www.w3.org/2000/svg" xmlns:xlink="http://www.w3.org/1999/xlink" version="1.1" viewBox="0 0 155.9 56.7">
  <!-- Generator: Adobe Illustrator 29.5.1, SVG Export Plug-In . SVG Version: 2.1.0 Build 141)  -->
  <defs>
    <style>
      .st0 {
        fill: none;
      }

      .st1 {
        fill: #646464;
      }

      .st2 {
        fill: #fff;
      }

      .st3 {
        clip-path: url(#clippath);
      }
    </style>
    <clipPath id="clippath">
      <rect class="st0" x="0" y="0" width="155.9" height="56.7"/>
    </clipPath>
  </defs>
  <g class="st3">
    <path class="st1" d="M91.9,31.8c1.2,0,1.9.5,1.9,1.6s-.2.9-.5,1.3c-.3.3-.8.5-1.4.5h-1.2v-3.3h1.2ZM95.7,38.2c-.1-.2-.2-.4-.4-.6-.1-.2-.3-.4-.4-.5-.2-.2-.3-.3-.5-.4-.2-.1-.3-.2-.5-.3h0c.4-.1.8-.3,1.1-.5.3-.2.6-.4.8-.7.2-.3.4-.6.5-.9.1-.4.2-.7.2-1.1,0-2.2-1.4-3.2-4.3-3.2h-4.2v11.9h2.7v-4.5h.7c.2,0,.3,0,.5.1.1,0,.3.2.4.3.1.1.3.3.4.5.1.2.3.4.4.6l1.8,3.1h3.1l-2.2-3.5ZM85.2,39.5h-4.4v-2.7h3.9v-2.2h-3.9v-2.6h4.2v-2.2h-6.9v11.9h7.1v-2.2ZM75.7,39.5h-6l6-8.2v-1.5h-9.1v2.2h5.7l-6.1,8.2v1.5h9.6v-2.2ZM110.2,41.7v-11.9h-2.5v6.6c0,.8,0,1.4,0,1.6h0c-.2-.3-.4-.6-.6-1l-4.7-7.2h-2.9v11.9h2.5v-6.5c0-.9,0-1.5,0-1.9h0c.1.2.3.6.6,1l4.9,7.5h2.7ZM59.2,41.9h0c3.3,0,5-1.8,5-5.4v-6.7h-2.7v7c0,1.9-.7,2.8-2.2,2.8s-2.3-1-2.3-2.9v-6.9h-2.7v6.9c0,3.5,1.6,5.2,4.8,5.2M53.1,39.5h-4.4v-9.7h-2.7v11.9h7.1v-2.2Z"/>
    <path class="st1" d="M95.7,17.3c.7.9,1.1,2.1,1.1,3.6s-.4,2.7-1.1,3.6c-.8.9-1.8,1.3-3.1,1.3s-2.2-.4-3-1.3c-.8-.9-1.1-2.1-1.1-3.5s.4-2.6,1.2-3.5c.8-.9,1.8-1.4,3-1.4s2.3.4,3,1.3M86.6,15h-8.2v1.3h3.4v10.6h1.4v-10.6h3.4v-1.3ZM76.6,15h-1.4v8.4c0,.8,0,1.4,0,1.7h0c0-.1-.2-.4-.5-.8l-5.9-9.3h-1.8v11.9h1.4v-8.6c0-.8,0-1.4,0-1.6h0c0,.3.2.5.4.7l6.1,9.5h1.7v-11.9ZM57.9,22.3l1.8-5.1c0-.2.1-.5.2-.8h0c0,.4.1.6.2.8l1.9,5.1h-4.1ZM60.7,15h-1.4l-4.6,11.9h1.5l1.2-3.3h5l1.3,3.3h1.5l-4.6-11.9ZM92.8,14.8h0c-1.8,0-3.2.6-4.2,1.7-1,1.1-1.5,2.7-1.5,4.6s.5,3.2,1.5,4.3c1,1.1,2.4,1.7,4,1.7s3.1-.6,4.1-1.7c1-1.1,1.5-2.7,1.5-4.6s-.5-3.2-1.5-4.3c-1-1.1-2.3-1.6-3.9-1.7M110.2,26.9v-11.9h-1.4v8.4c0,.8,0,1.4,0,1.7h0c0-.1-.2-.4-.5-.8l-5.9-9.3h-1.8v11.9h1.4v-8.6c0-.8,0-1.4,0-1.6h0c.1.3.2.5.4.7l6.1,9.5h1.7ZM48.8,20.7l5.1-5.7h-1.7l-4.4,5.2c-.1.1-.2.3-.3.4h0v-5.6h-1.4v11.9h1.4v-5.8h0c0,0,.1.2.3.4l4.6,5.4h1.9l-5.5-6.2Z"/>
  </g>
  <rect class="st1" x="19.3" y="15" width="13.3" height="26.7"/>
</svg>
