<?xml version="1.0" encoding="UTF-8"?>
<svg id="Ebene_1" xmlns="http://www.w3.org/2000/svg" xmlns:xlink="http://www.w3.org/1999/xlink" version="1.1" viewBox="0 0 155.9 56.7">
  <!-- Generator: Adobe Illustrator 29.5.1, SVG Export Plug-In . SVG Version: 2.1.0 Build 141)  -->
  <defs>
    <style>
      .st0 {
        fill: none;
      }

      .st1 {
        fill: #969696;
      }

      .st2 {
        clip-path: url(#clippath-1);
      }

      .st3 {
        clip-path: url(#clippath-3);
      }

      .st4 {
        clip-path: url(#clippath-4);
      }

      .st5 {
        clip-path: url(#clippath-2);
      }

      .st6 {
        fill: #fff;
      }

      .st7 {
        clip-path: url(#clippath);
      }
    </style>
    <clipPath id="clippath">
      <rect class="st0" x="0" y="0" width="155.9" height="56.7"/>
    </clipPath>
    <clipPath id="clippath-1">
      <rect class="st0" x="0" y="0" width="155.9" height="56.7"/>
    </clipPath>
    <clipPath id="clippath-2">
      <rect class="st0" x="0" y="0" width="155.9" height="56.7"/>
    </clipPath>
    <clipPath id="clippath-3">
      <rect class="st0" x="0" y="0" width="155.9" height="56.7"/>
    </clipPath>
    <clipPath id="clippath-4">
      <rect class="st0" x="0" y="0" width="155.9" height="56.7"/>
    </clipPath>
  </defs>
  <g class="st7">
    <path class="st1" d="M16.4,23.6l1.9-.5v.3c.3.5.5.8,1,.8h2.3c.5,0,.8-.4.8-.9v-.6c0-.4-.2-.7-.5-.8l-3.6-1c-1.1-.3-1.9-1.5-1.9-2.7v-.5c0-1.7,1.2-2.9,2.9-2.9h2.2c1.5,0,2.8,1.1,3,2.6l-1.9.5v-.3c-.3-.5-.5-.8-1-.8h-2.3c-.5,0-.9.4-.9.9v.4c0,.5.3.9.8,1l3,.8c1.2.3,2.2,1.4,2.2,2.8v.4c0,1.7-1.3,3.1-3,3.1h-2.1c-1.6,0-2.8-1.1-3-2.7"/>
    <path class="st1" d="M26.6,17.5c-.2-1.3-.2-1-.2-2.2v-.5h2v.5c0,.4,0,.9.1,1.1l.8,5.4,1.4-5.3h.9l1.3,5.3.8-5.4c0-.1.1-.7.1-1.1v-.5h2v.5c0,1.2,0,.9-.2,2.2l-1.4,8.7h-1.9l-1.2-4.7-1.2,4.7h-1.9l-1.4-8.7Z"/>
  </g>
  <polygon class="st1" points="37.9 24.2 39.5 24.2 39.5 16.9 37.9 16.9 37.9 14.9 43.2 14.9 43.2 16.9 41.6 16.9 41.6 24.2 43.2 24.2 43.2 26.2 37.9 26.2 37.9 24.2"/>
  <g class="st2">
    <path class="st1" d="M45.1,23.6l1.9-.5v.3c.3.5.5.8,1,.8h2.3c.5,0,.8-.4.8-.9v-.6c0-.4-.2-.7-.5-.8l-3.6-1c-1.1-.3-1.9-1.5-1.9-2.7v-.5c0-1.7,1.2-2.9,2.9-2.9h2.2c1.5,0,2.8,1.1,3,2.6l-1.9.5v-.3c-.3-.5-.5-.8-1-.8h-2.3c-.5,0-.9.4-.9.9v.4c0,.5.3.9.8,1l3,.8c1.2.3,2.2,1.4,2.2,2.8v.4c0,1.7-1.3,3.1-3,3.1h-2.1c-1.6,0-2.8-1.1-3-2.7"/>
    <path class="st1" d="M55.3,23.6l1.9-.5v.3c.3.5.5.8,1,.8h2.3c.5,0,.8-.4.8-.9v-.6c0-.4-.2-.7-.5-.8l-3.6-1c-1.1-.3-1.9-1.5-1.9-2.7v-.5c0-1.7,1.2-2.9,2.9-2.9h2.2c1.5,0,2.8,1.1,3,2.6l-1.9.5v-.3c-.3-.5-.5-.8-1-.8h-2.3c-.5,0-.9.4-.9.9v.4c0,.5.3.9.8,1l3,.8c1.2.3,2.2,1.4,2.2,2.8v.4c0,1.7-1.3,3.1-3,3.1h-2.1c-1.6,0-2.8-1.1-3-2.7"/>
    <path class="st1" d="M75.5,19.5c.5,0,.9-.4.9-.9v-.8c0-.5-.4-.9-.9-.9h-3.1v2.6h3.1ZM70.3,14.9h5.1c1.7,0,3,1.4,3,3v.7c0,1.7-1.4,3-3,3h-3v4.6h-2.1v-11.4Z"/>
    <path class="st1" d="M85.4,24.2c.5,0,.9-.4.9-.9v-5.5c0-.5-.4-.9-.9-.9h-2.3c-.5,0-.9.4-.9.9v5.5c0,.5.4.9.9.9h2.3ZM80.2,23.2v-5.3c0-1.7,1.4-3,3-3h2.1c1.7,0,3,1.4,3,3v5.3c0,1.7-1.4,3-3,3h-2.1c-1.7,0-3-1.4-3-3"/>
  </g>
  <polygon class="st1" points="91.1 14.9 93.1 14.9 93.1 24.2 98.6 24.2 98.6 26.2 91.1 26.2 91.1 14.9"/>
  <g class="st5">
    <path class="st1" d="M105.2,22.1l-1.2-3.8-1.2,3.8h2.4ZM99.9,25.4c0-.5,0-.7.2-1.3l2.9-9.3h2l2.9,9.3c.2.5.2.7.2,1.3v.8h-2v-.8c0-.2,0-.3,0-.4l-.2-.9h-3.6l-.2.9c0,0,0,.2,0,.4v.8h-2v-.8Z"/>
    <path class="st1" d="M115.5,19.5c.5,0,.9-.4.9-.9v-.8c0-.5-.4-.9-.9-.9h-3.1v2.6h3.1ZM110.3,14.9h5.1c1.7,0,3,1.4,3,3v.7c0,1.3-.8,2.4-2,2.8l1.3,2.1c.6,1,.7,1.4.7,2.2v.5h-2.1v-.8c0-.3,0-.4-.3-.8l-1.9-3h-1.8v4.6h-2.1v-11.4Z"/>
  </g>
  <polygon class="st1" points="16.4 39.8 18 39.8 18 32.5 16.4 32.5 16.4 30.5 21.7 30.5 21.7 32.5 20.1 32.5 20.1 39.8 21.7 39.8 21.7 41.8 16.4 41.8 16.4 39.8"/>
  <polygon class="st1" points="24.5 30.5 26.5 30.5 30.5 37.6 30.5 30.5 32.6 30.5 32.6 41.8 30.7 41.8 26.5 34.5 26.5 41.8 24.5 41.8 24.5 30.5"/>
  <g class="st3">
    <path class="st1" d="M35.1,39.2l1.9-.5v.3c.3.5.5.8,1,.8h2.3c.5,0,.8-.4.8-.9v-.6c0-.4-.2-.7-.5-.8l-3.6-1c-1.1-.3-1.9-1.5-1.9-2.7v-.5c0-1.7,1.2-2.9,2.9-2.9h2.2c1.5,0,2.8,1.1,3,2.6l-1.9.5v-.3c-.3-.5-.5-.8-1-.8h-2.3c-.5,0-.9.4-.9.9v.4c0,.5.3.9.8,1l3,.8c1.2.3,2.2,1.4,2.2,2.8v.4c0,1.7-1.3,3.1-3,3.1h-2.1c-1.6,0-2.8-1.1-3-2.7"/>
  </g>
  <polygon class="st1" points="47.9 32.5 44.9 32.5 44.9 30.5 53 30.5 53 32.5 50 32.5 50 41.8 47.9 41.8 47.9 32.5"/>
  <polygon class="st1" points="54.8 39.8 56.4 39.8 56.4 32.5 54.8 32.5 54.8 30.5 60.1 30.5 60.1 32.5 58.5 32.5 58.5 39.8 60.1 39.8 60.1 41.8 54.8 41.8 54.8 39.8"/>
  <polygon class="st1" points="64.9 32.5 61.9 32.5 61.9 30.5 70 30.5 70 32.5 67 32.5 67 41.8 64.9 41.8 64.9 32.5"/>
  <g class="st4">
    <path class="st1" d="M71.8,38.8v-8.3h2.1v8.4c0,.5.4.9.9.9h2.3c.5,0,.9-.4.9-.9v-8.4h2.1v8.3c0,1.7-1.4,3-3,3h-2.1c-1.7,0-3-1.4-3-3"/>
  </g>
  <polygon class="st1" points="84.8 32.5 81.8 32.5 81.8 30.5 89.9 30.5 89.9 32.5 86.9 32.5 86.9 41.8 84.8 41.8 84.8 32.5"/>
  <polygon class="st1" points="92 30.5 100.2 30.5 100.2 32.5 94.1 32.5 94.1 35 98.7 35 98.7 37.1 94.1 37.1 94.1 39.8 100.2 39.8 100.2 41.8 92 41.8 92 30.5"/>
</svg>
