<?xml version="1.0" encoding="UTF-8"?>
<svg id="Ebene_1" xmlns="http://www.w3.org/2000/svg" xmlns:xlink="http://www.w3.org/1999/xlink" version="1.1" viewBox="0 0 155.9 56.7">
  <!-- Generator: Adobe Illustrator 29.5.1, SVG Export Plug-In . SVG Version: 2.1.0 Build 141)  -->
  <defs>
    <style>
      .st0 {
        fill: none;
      }

      .st1 {
        fill: #969696;
      }

      .st2 {
        fill: #fff;
      }

      .st3 {
        clip-path: url(#clippath);
      }
    </style>
    <clipPath id="clippath">
      <rect class="st0" x="0" y="0" width="155.9" height="56.7"/>
    </clipPath>
  </defs>
  <g class="st3">
    <path class="st1" d="M126.2,22.7c0,.6.5,1.1,1.1,1.1s1.1-.5,1.1-1.1-.5-1.1-1.1-1.1-1.1.5-1.1,1.1M44.1,18.3c-.5-.4-1.1-.7-2-.9,0,0-.5,0-.5-.1,0,0-.7-.1-.7-.2-.3,0-.5-.2-.6-.4-.1-.2-.1-.3-.1-.5,0-.5.4-.9,1.3-.9,0,0,.1,0,.2,0,.5,0,1.2,0,1.7.6l1.4-1.3c-.7-.8-1.7-1.3-3.2-1.3-2.2,0-3.6,1.3-3.6,3.1s.3,1.6.9,2.1c.6.5,1.3.8,2,.9,0,0,.5,0,.5.1,0,0,.6.1.6.2.3,0,.5.2.6.3,0,.1.1.2.1.4,0,0,0,.2,0,.2,0,.6-.5.9-1.4,1-.2,0-.4,0-.6,0-.7,0-1.3-.3-1.7-.7,0,0,0,0,0,0l-1.4,1.3c.8,1,2,1.4,3.5,1.4s3.8-1.1,3.8-3.1-.3-1.8-1-2.3M52.8,18.3c-.5-.4-1.1-.7-2-.9,0,0-.5,0-.5-.1,0,0-.7-.1-.7-.2-.3,0-.5-.2-.6-.4-.1-.2-.1-.3-.1-.5,0-.5.4-.9,1.3-.9,0,0,.1,0,.2,0,.5,0,1.2,0,1.7.6l1.4-1.3c-.7-.8-1.7-1.3-3.2-1.3-2.2,0-3.6,1.3-3.6,3.1s.3,1.6.9,2.1c.6.5,1.3.8,2,.9,0,0,.5,0,.5.1,0,0,.6.1.6.2.3,0,.5.2.6.3,0,.1.1.2.1.4,0,0,0,.2,0,.2,0,.6-.5.9-1.4,1-.2,0-.4,0-.6,0-.7,0-1.3-.3-1.7-.7,0,0,0,0,0,0l-1.4,1.3c.8,1,2,1.4,3.5,1.4s3.8-1.1,3.8-3.1-.3-1.8-1-2.3M80.6,18.3c-.5-.4-1.1-.7-2-.9,0,0-.5,0-.5-.1,0,0-.7-.1-.7-.2-.3,0-.5-.2-.6-.4-.1-.2-.1-.3-.1-.5,0-.5.4-.9,1.3-.9,0,0,.1,0,.2,0,.5,0,1.2,0,1.7.6l1.4-1.3c-.7-.8-1.7-1.3-3.2-1.3-2.2,0-3.6,1.3-3.6,3.1s.3,1.6.9,2.1c.6.5,1.3.8,2,.9,0,0,.5,0,.5.1,0,0,.6.1.6.2.3,0,.5.2.6.3,0,.1.1.2.1.4,0,0,0,.2,0,.2,0,.6-.5.9-1.4,1-.2,0-.4,0-.6,0-.7,0-1.3-.3-1.7-.7,0,0,0,0,0,0l-1.4,1.3c.8,1,2,1.4,3.5,1.4s3.8-1.1,3.8-3.1-.3-1.8-1-2.3M87.1,21.9c-.5,0-.9-.3-1.1-.5-.2-.3-.5-.7-.5-2.5,0-.1,0-.2,0-.3,0-2.1.3-2.5.5-2.8.2-.3.6-.5,1.1-.5.9,0,1.3.6,1.3,1.2l2.3-.3c-.2-2-1.9-2.8-3.7-2.8s-2.1.4-2.8,1.2c-1,1-1,2.4-1,3.9v.4c0,1.5,0,2.8,1,3.9.7.7,1.6,1.2,2.8,1.2,1.9,0,3.6-.9,3.8-2.9l-2.3-.2c0,.7-.5,1.2-1.4,1.2M119.5,13.5v2h2.5v8.1h2.2v-8.1h2.5v-2h-7.3ZM111.3,13.5v10.1h2.2v-4.1h3.9v-2h-3.9v-2h4.5v-2h-6.7ZM106.4,13.5l3.5,10.1h-2.3l-.5-1.8h-3.2l-.6,1.8h-2.3l3.5-10.1h2ZM104.4,19.9h2l-1-3.2-1,3.2ZM97.2,13.5v4h-2.9v-4h-2.2v10.1h2.2v-4.2h2.9v4.2h2.2v-10.1h-2.2ZM70.1,13.5v5.6l-3.3-5.6h-2v10.1h2.2v-5.6l3.3,5.6h2.1v-10.1h-2.2ZM55.7,13.5v10.1h6.7v-2h-4.5v-2.2h3.9v-2h-3.9v-1.9h4.5v-2h-6.7ZM33.7,23.6h2.2v-10.1h-2.2v10.1ZM29.5,13.5l-1.4,5.9-1.7-5.9h-1.7l-1.7,5.9-1.4-5.9h-2.3l2.7,10.1h1.9l1.7-5.5,1.7,5.5h1.9l2.7-10.1h-2.3ZM65.7,31l-.2,1.7h.9v1c0,1-.5,1.4-1.7,1.4s-1.1-.3-1.4-.6c-.3-.3-.5-.7-.5-2.8s.3-2.5.5-2.8c.2-.3.9-.5,1.4-.5.9,0,1.4.6,1.5,1.2l2.3-.3c-.2-2-2.1-2.9-3.8-2.9s-2.4.4-3.1,1.2c-1,1-1,2.5-1,3.9v.3c0,1.5,0,2.9,1,3.9.7.7,1.9,1.2,3.1,1.2,1.9,0,4-.7,4-3.2v-2.8h-2.9ZM87.2,36.7v-10.1h-2.2v5.6l-3.3-5.6h-2v10.1h2.2v-5.6l3.3,5.6h2.1ZM77.3,36.7v-2h-4.5v-2.2h3.9v-2h-3.9v-1.9h4.5v-2h-6.7v10.1h6.7ZM58.5,36.7v-2h-4.5v-2.2h3.9v-2h-3.9v-1.9h4.5v-2h-6.7v10.1h6.7ZM50,26.6h-2.3l-1.4,5.9-1.7-5.9h-1.7l-1.7,5.9-1.4-5.9h-2.3l2.7,10.1h1.9l1.7-5.5,1.7,5.5h1.9l2.7-10.1ZM36,36.7v-2h-4.5v-2.2h3.9v-2h-3.9v-1.9h4.5v-2h-6.7v10.1h6.7ZM23.6,28.6c.6,0,1,.3,1,.9,0,0,0,0,0,0,0,.6-.4,1-1,1h-1.6v-1.9h1.6ZM19.7,36.7h4.2c2,0,3.1-1.3,3.1-2.9s0-.2,0-.3c0-1-.7-1.6-1.2-1.9.4-.3,1-1,1.1-1.9,0,0,0-.1,0-.2,0-1.5-.9-2.9-3.2-2.9h-4v10.1ZM23.7,32.6c.7,0,1.1.4,1.1,1s0,.1,0,.2c0,.6-.5.9-1.1.9h-1.7v-2.1h1.7ZM128.2,41.4h0c0-.6-.4-1.7-1.9-1.7s-2,1.2-2,1.7v3.1c0,.5.3,1.7,1.9,1.7s2-1.2,2-1.7v-1.9h-1.9v.6c0,0,1.2,0,1.2,0v1.2c0,1-1,1.1-1.3,1.1s-1.3,0-1.3-1.1v-3.1c0-1,.9-1.1,1.3-1.1s1.3.1,1.3,1.1h0c0,0,.7,0,.7,0ZM23.7,41.4h0c0-.6-.4-1.7-1.9-1.7s-2,1.2-2,1.7v3.1c0,.5.3,1.7,1.9,1.7s2-1.2,2-1.7v-1.9h-1.9v.6c0,0,1.2,0,1.2,0v1.2c0,1-1,1.1-1.3,1.1s-1.3,0-1.3-1.1v-3.1c0-1,.9-1.1,1.3-1.1s1.3.1,1.3,1.1h0c0,0,.7,0,.7,0ZM70.3,39.6c-.3,0-.5.2-.5.5s.2.5.5.5.5-.2.5-.5-.2-.5-.5-.5M120.7,39.8v5.3l-2.5-5.3h-.8v6.3h.7v-5.2l2.4,5.2h.8v-6.3h-.7ZM113.9,39.8v4.7c0,1-1,1.1-1.3,1.1s-1.3,0-1.3-1.1v-4.7h-.7v4.7c0,.6.4,1.7,2,1.7s1.9-1.1,1.9-1.7v-4.7h-.7ZM104.4,39.8v.6h1.7v5.7h.7v-5.7h1.7v-.6h-4.1ZM102.7,40.4v-.6h-3.7v6.3h.7v-3h2.8v-.6h-2.8v-2.1h3.1ZM95.3,46.1h.7v-6.3h-.7v6.3ZM88.9,39.8v.6h1.7v5.7h.7v-5.7h1.7v-.6h-4.1ZM86.3,42.9c-.5-.3-1-.5-1.4-.7h-.2c-.4-.3-.6-.6-.6-.9,0-.6.5-1,1.2-1s1.3.4,1.3,1.1h0c0,0,.7,0,.7,0h0c0-1-.8-1.7-2-1.7s-1.9.7-1.9,1.6.3,1.1.9,1.4c.2.1.4.2.7.3.3.2.7.3,1,.5.5.2.7.6.7,1,0,.7-.6,1.1-1.4,1.1s-1.3-.4-1.3-1.1h0c0,0-.7,0-.7,0h0c0,1,.8,1.8,2,1.8s2.1-.7,2.1-1.7-.4-1.2-1.1-1.6M78.9,40.4v-.6h-3.7v6.3h.7v-3h2.8v-.6h-2.8v-2.1h3.1ZM71.6,39.8v4.7c0,1-1,1.1-1.3,1.1s-1.3,0-1.3-1.1v-4.7h-.7v4.7c0,.6.4,1.7,2,1.7s1.9-1.1,1.9-1.7v-4.7h-.7ZM63.7,40.4h-1.4v2.4h1.4c.4,0,1.2-.1,1.2-1.1v-.3c0-.9-.8-1.1-1.2-1.1M65.7,46.1h-.8l-1.4-2.7h-1.2v2.7h-.7v-6.3h2c1.8,0,1.9,1.5,1.9,1.7v.3c0,.6-.3,1.4-1.3,1.6l1.4,2.8ZM52.6,39.8v.6h1.7v5.7h.7v-5.7h1.7v-.6h-4.1ZM48.4,40.4h-1.4v2.4h1.4c.4,0,1.2-.1,1.2-1.1v-.3c0-.9-.8-1.1-1.2-1.1M50.4,46.1h-.8l-1.4-2.7h-1.2v2.7h-.7v-6.3h2c1.8,0,1.9,1.5,1.9,1.7v.3c0,.6-.3,1.4-1.3,1.6l1.4,2.8ZM43.6,40.4v-.6h-3.7v6.3h3.7v-.6h-3.1v-2.4h2.8v-.6h-2.8v-2.1h3.1ZM33.7,45.5h1.4c.5,0,1.2-.1,1.2-1.1v-.2c0-.9-.6-1.1-1.2-1.1h-1.5v2.3ZM36.2,41.4c0-.7-.4-1-1.1-1h-1.4v2.2h1.4c.5,0,1.1-.1,1.1-1.1h0ZM37,44.2v.2c0,.6-.4,1.7-1.9,1.7h-2.1v-6.3h2c1.7,0,1.8,1.2,1.8,1.6h0c0,.3,0,1-.7,1.4.7.3.9,1,.9,1.4M27.3,40.4v2.1h2.8v.6h-2.8v2.4h3.1v.6h-3.7v-6.3h3.7v.6h-3.1Z"/>
  </g>
</svg>
