<?xml version="1.0" encoding="UTF-8"?>
<svg id="Ebene_1" xmlns="http://www.w3.org/2000/svg" xmlns:xlink="http://www.w3.org/1999/xlink" version="1.1" viewBox="0 0 184.3 56.7">
  <!-- Generator: Adobe Illustrator 29.5.1, SVG Export Plug-In . SVG Version: 2.1.0 Build 141)  -->
  <defs>
    <style>
      .st0 {
        fill: none;
      }

      .st1 {
        fill: #646464;
      }

      .st2 {
        fill: #fff;
      }

      .st3 {
        clip-path: url(#clippath);
      }
    </style>
    <clipPath id="clippath">
      <rect class="st0" x="0" y="0" width="184.3" height="56.7"/>
    </clipPath>
  </defs>
  <g class="st3">
    <path class="st1" d="M168.3,24.6v-.7h-6.5v.7h5.6l-5.8,7.5v.7h6.6v-.7h-5.6l5.8-7.5ZM158.7,22h.8v-1.2h-.8v1.2ZM156.4,28.6c0-.1,0-.2,0-.3,0-3.1-1.8-4.5-3.8-4.5s-4,1.7-4,4.6,1.7,4.6,4,4.6,3.2-.9,3.6-2.8h-.8c-.4,1.4-1.5,2-2.8,2-2,0-3.1-1.6-3.1-3.6h6.9ZM155.6,27.8h-6.1c.2-2.2,1.5-3.3,3.2-3.3s2.9,1.1,3,3.3M144.8,32.8l2.6-8.9h-.8l-2.3,8-2.4-8h-1l-2.4,8-2.3-8h-.8l2.7,8.9h.9l2.4-8,2.4,8h.9ZM133.2,32.8h.8v-5.4c0-2.5-1.4-3.7-3.3-3.7s-2.4.7-2.9,1.7v-5.3h-.8v12.7h.8v-5.2c0-1.5,1.2-3.1,2.9-3.1s2.5.9,2.5,3v5.3ZM118,28.3c0-2.1,1.1-3.8,3.2-3.8s2.6.8,2.8,2.2h.8c-.3-1.8-1.7-3-3.6-3s-4,1.7-4,4.6,1.7,4.6,4,4.6,3.4-1.2,3.6-3h-.8c-.2,1.5-1.4,2.2-2.8,2.2-2.1,0-3.2-1.7-3.2-3.8M109.7,26.2c0-1.1.9-1.8,2.4-1.8s2.3.6,2.4,1.8h.8c-.2-1.8-1.7-2.6-3.2-2.6s-3.2,1-3.2,2.5.8,2,2.3,2.2l1.9.4c1.1.2,1.7.6,1.7,1.5s-.8,1.8-2.6,1.8-2.6-1-2.7-1.9h-.8c.2,1.6,1.4,2.7,3.5,2.7s3.4-1.1,3.4-2.6-.8-2-2.3-2.2l-1.9-.4c-1.1-.2-1.7-.6-1.7-1.5M99.6,28.8h6.9v-.6c0-3-1.7-4.6-4.3-4.6s-4.4,1.8-4.4,4.7,1.9,4.7,4.4,4.7,3.8-1,4.2-3h-1.9c-.3,1-1.2,1.5-2.3,1.5s-2.5-1.3-2.5-2.7M99.6,27.5c.2-1.5,1.2-2.5,2.6-2.5s2.4.9,2.4,2.5h-5ZM93.8,22.2h1.9v-1.8h-1.9v1.8ZM91.5,32.2v-8.5h-1.8v1.2c-.6-.9-1.6-1.4-2.9-1.4-2.2,0-4,1.6-4,4.5s1.9,4.4,4.1,4.4,2.1-.4,2.8-1.3v1.1c0,1.7-1.1,2.4-2.5,2.4s-2.2-.5-2.3-1.4h-1.9c0,1.7,1.4,2.9,4.2,2.9s4.3-1.3,4.3-3.9M89.8,28.1c0,1.7-.9,3-2.6,3s-2.5-1.3-2.5-3,.9-3,2.5-3,2.6,1.3,2.6,3M80.9,25.4c.3,0,.6,0,.9,0v-1.8c-.2,0-.4,0-.5,0-1.3,0-2.4.6-3,1.9v-1.8h-1.8v9h1.8v-4.7c0-1.7,1.1-2.6,2.5-2.6M67.6,28.8h6.9v-.6c0-3-1.7-4.6-4.3-4.6s-4.4,1.8-4.4,4.7,1.9,4.7,4.4,4.7,3.8-1,4.2-3h-1.9c-.3,1-1.2,1.5-2.3,1.5s-2.5-1.3-2.5-2.7M67.7,27.5c.2-1.5,1.2-2.5,2.6-2.5s2.4.9,2.4,2.5h-5ZM62,32.8h1.8v-5.7c0-2.1-1.1-3.5-3.2-3.5s-2.4.6-3,1.5v-1.3h-1.8v9h1.8v-4.9c0-1.5.8-2.7,2.3-2.7s2,.6,2,2.4v5.3ZM47,28.8h6.9v-.6c0-3-1.7-4.6-4.3-4.6s-4.5,1.8-4.5,4.7,1.9,4.7,4.4,4.7,3.8-1,4.2-3h-1.9c-.3,1-1.2,1.5-2.3,1.5s-2.5-1.3-2.5-2.7M47,27.5c.2-1.5,1.2-2.5,2.6-2.5s2.4.9,2.4,2.5h-5ZM95.7,23.8h-1.8v9h1.8v-9ZM159.5,23.9h-.8v8.9h.8v-8.9Z"/>
  </g>
  <path class="st1" d="M26.9,21h1v-4h-1v4ZM29.8,21.3l.9.4,1.5-3.7-.9-.4-1.5,3.7ZM22.6,18l1.6,3.7.9-.4-1.6-3.7-.9.4ZM32.3,22.8l.7.7,2.9-2.9-.7-.7-2.9,2.9ZM19,20.6l2.9,2.9.7-.7-2.9-2.9-.7.7ZM34,25l.4.9,3.7-1.6-.4-.9-3.7,1.6ZM16.7,24.5l3.7,1.5.4-.9-3.7-1.5-.4.9ZM34.8,28.8h4v-1h-4v1ZM16,28.8h4v-1h-4v1ZM34.1,31.6l3.7,1.5.4-.9-3.7-1.5-.4.9ZM16.7,32.3l.4.9,3.7-1.6-.4-.9-3.7,1.6ZM32.3,33.9l2.9,2.9.7-.7-2.9-2.9-.7.7ZM19,36.1l.7.7,2.9-2.9-.7-.7-2.9,2.9ZM29.8,35.3l1.6,3.7.9-.4-1.6-3.7-.9.4ZM22.7,38.7l.9.4,1.5-3.7-.9-.4-1.5,3.7ZM26.9,39.8h1v-4h-1v4Z"/>
</svg>
