<svg xmlns="http://www.w3.org/2000/svg" viewBox="0 0 566.9 566.9">
<style type="text/css">
	.st1{fill:#FFFFFF;}
</style>
<g>
	<rect x="196.5" y="42.8" class="st1" width="115.6" height="19.3"/>
	<rect x="408.4" y="42.8" class="st1" width="115.6" height="19.3"/>
	<rect x="389.1" y="42.8" class="st1" width="19.3" height="19.3"/>
	<rect x="312.1" y="42.8" class="st1" width="57.8" height="19.3"/>
	<rect x="138.7" y="42.8" class="st1" width="38.5" height="19.3"/>
	<rect x="80.9" y="42.8" class="st1" width="57.8" height="19.3"/>
	<rect x="42.4" y="42.8" class="st1" width="38.5" height="19.3"/>
	<rect x="504.7" y="62" class="st1" width="19.3" height="19.3"/>
	<rect x="389.1" y="62" class="st1" width="19.3" height="19.3"/>
	<rect x="273.6" y="62" class="st1" width="38.5" height="19.3"/>
	<rect x="158" y="62" class="st1" width="19.3" height="19.3"/>
	<rect x="42.4" y="62" class="st1" width="19.3" height="19.3"/>
	<rect x="504.7" y="81.3" class="st1" width="19.3" height="19.3"/>
	<rect x="427.7" y="81.3" class="st1" width="57.8" height="19.3"/>
	<rect x="389.1" y="81.3" class="st1" width="19.3" height="19.3"/>
	<rect x="350.6" y="81.3" class="st1" width="19.3" height="19.3"/>
	<rect x="196.5" y="81.3" class="st1" width="57.8" height="19.3"/>
	<rect x="158" y="81.3" class="st1" width="19.3" height="19.3"/>
	<rect x="80.9" y="81.3" class="st1" width="57.8" height="19.3"/>
	<rect x="42.4" y="81.3" class="st1" width="19.3" height="19.3"/>
	<rect x="504.7" y="100.5" class="st1" width="19.3" height="19.3"/>
	<rect x="427.7" y="100.5" class="st1" width="57.8" height="19.3"/>
	<rect x="389.1" y="100.5" class="st1" width="19.3" height="19.3"/>
	<rect x="350.6" y="100.5" class="st1" width="19.3" height="19.3"/>
	<rect x="312.1" y="100.5" class="st1" width="19.3" height="19.3"/>
	<rect x="273.6" y="100.5" class="st1" width="19.3" height="19.3"/>
	<rect x="196.5" y="100.5" class="st1" width="19.3" height="19.3"/>
	<rect x="158" y="100.5" class="st1" width="19.3" height="19.3"/>
	<rect x="80.9" y="100.5" class="st1" width="57.8" height="19.3"/>
	<rect x="42.4" y="100.5" class="st1" width="19.3" height="19.3"/>
	<rect x="504.7" y="119.8" class="st1" width="19.3" height="19.3"/>
	<rect x="427.7" y="119.8" class="st1" width="57.8" height="19.3"/>
	<rect x="389.1" y="119.8" class="st1" width="19.3" height="19.3"/>
	<rect x="350.6" y="119.8" class="st1" width="19.3" height="19.3"/>
	<rect x="312.1" y="119.8" class="st1" width="19.3" height="19.3"/>
	<rect x="254.3" y="119.8" class="st1" width="19.3" height="19.3"/>
	<rect x="158" y="119.8" class="st1" width="19.3" height="19.3"/>
	<rect x="80.9" y="119.8" class="st1" width="57.8" height="19.3"/>
	<rect x="42.4" y="119.8" class="st1" width="19.3" height="19.3"/>
	<rect x="504.7" y="139.1" class="st1" width="19.3" height="19.3"/>
	<rect x="389.1" y="139.1" class="st1" width="19.3" height="19.3"/>
	<rect x="350.6" y="139.1" class="st1" width="19.3" height="19.3"/>
	<rect x="196.5" y="139.1" class="st1" width="77" height="19.3"/>
	<rect x="158" y="139.1" class="st1" width="19.3" height="19.3"/>
	<rect x="42.4" y="139.1" class="st1" width="19.3" height="19.3"/>
	<rect x="408.4" y="158.3" class="st1" width="115.6" height="19.3"/>
	<rect x="389.1" y="158.3" class="st1" width="19.3" height="19.3"/>
	<rect x="350.6" y="158.3" class="st1" width="19.3" height="19.3"/>
	<rect x="312.1" y="158.3" class="st1" width="19.3" height="19.3"/>
	<rect x="273.6" y="158.3" class="st1" width="19.3" height="19.3"/>
	<rect x="235" y="158.3" class="st1" width="19.3" height="19.3"/>
	<rect x="196.5" y="158.3" class="st1" width="19.3" height="19.3"/>
	<rect x="138.7" y="158.3" class="st1" width="38.5" height="19.3"/>
	<rect x="80.9" y="158.3" class="st1" width="57.8" height="19.3"/>
	<rect x="42.4" y="158.3" class="st1" width="38.5" height="19.3"/>
	<rect x="312.1" y="177.6" class="st1" width="38.5" height="19.3"/>
	<rect x="254.3" y="177.6" class="st1" width="38.5" height="19.3"/>
	<rect x="196.5" y="177.6" class="st1" width="38.5" height="19.3"/>
	<rect x="408.4" y="196.9" class="st1" width="77.1" height="19.3"/>
	<rect x="369.9" y="196.9" class="st1" width="38.5" height="19.3"/>
	<rect x="312.1" y="196.9" class="st1" width="38.5" height="19.3"/>
	<rect x="273.6" y="196.9" class="st1" width="19.3" height="19.3"/>
	<rect x="215.8" y="196.9" class="st1" width="19.3" height="19.3"/>
	<rect x="177.3" y="196.9" class="st1" width="19.3" height="19.3"/>
	<rect x="138.7" y="196.9" class="st1" width="19.3" height="19.3"/>
	<rect x="80.9" y="196.9" class="st1" width="57.8" height="19.3"/>
	<rect x="42.4" y="196.9" class="st1" width="19.3" height="19.3"/>
	<rect x="466.2" y="216.1" class="st1" width="57.8" height="19.3"/>
	<rect x="408.4" y="216.1" class="st1" width="19.3" height="19.3"/>
	<rect x="331.4" y="216.1" class="st1" width="19.3" height="19.3"/>
	<rect x="292.8" y="216.1" class="st1" width="19.3" height="19.3"/>
	<rect x="235" y="216.1" class="st1" width="38.5" height="19.3"/>
	<rect x="138.7" y="216.1" class="st1" width="38.5" height="19.3"/>
	<rect x="61.7" y="216.1" class="st1" width="19.3" height="19.3"/>
	<rect x="504.7" y="235.4" class="st1" width="19.3" height="19.3"/>
	<rect x="466.2" y="235.4" class="st1" width="19.3" height="19.3"/>
	<rect x="408.4" y="235.4" class="st1" width="19.3" height="19.3"/>
	<rect x="369.9" y="235.4" class="st1" width="38.5" height="19.3"/>
	<rect x="312.1" y="235.4" class="st1" width="38.5" height="19.3"/>
	<rect x="215.8" y="235.4" class="st1" width="77" height="19.3"/>
	<rect x="158" y="235.4" class="st1" width="38.5" height="19.3"/>
	<rect x="80.9" y="235.4" class="st1" width="38.5" height="19.3"/>
	<rect x="61.7" y="235.4" class="st1" width="19.3" height="19.3"/>
	<rect x="485.5" y="254.6" class="st1" width="19.3" height="19.3"/>
	<rect x="408.4" y="254.6" class="st1" width="57.8" height="19.3"/>
	<rect x="312.1" y="254.6" class="st1" width="77" height="19.3"/>
	<rect x="273.6" y="254.6" class="st1" width="38.5" height="19.3"/>
	<rect x="138.7" y="254.6" class="st1" width="38.5" height="19.3"/>
	<rect x="119.5" y="254.6" class="st1" width="19.3" height="19.3"/>
	<rect x="42.4" y="254.6" class="st1" width="38.5" height="19.3"/>
	<rect x="427.7" y="273.9" class="st1" width="77.1" height="19.3"/>
	<rect x="389.1" y="273.9" class="st1" width="19.3" height="19.3"/>
	<rect x="312.1" y="273.9" class="st1" width="19.3" height="19.3"/>
	<rect x="292.8" y="273.9" class="st1" width="19.3" height="19.3"/>
	<rect x="254.3" y="273.9" class="st1" width="19.3" height="19.3"/>
	<rect x="196.5" y="273.9" class="st1" width="38.5" height="19.3"/>
	<rect x="158" y="273.9" class="st1" width="19.3" height="19.3"/>
	<rect x="100.2" y="273.9" class="st1" width="38.5" height="19.3"/>
	<rect x="42.4" y="273.9" class="st1" width="19.3" height="19.3"/>
	<rect x="485.5" y="293.2" class="st1" width="19.3" height="19.3"/>
	<rect x="408.4" y="293.2" class="st1" width="57.8" height="19.3"/>
	<rect x="350.6" y="293.2" class="st1" width="19.3" height="19.3"/>
	<rect x="312.1" y="293.2" class="st1" width="19.3" height="19.3"/>
	<rect x="235" y="293.2" class="st1" width="57.8" height="19.3"/>
	<rect x="196.5" y="293.2" class="st1" width="19.3" height="19.3"/>
	<rect x="119.5" y="293.2" class="st1" width="19.3" height="19.3"/>
	<rect x="42.4" y="293.2" class="st1" width="19.3" height="19.3"/>
	<rect x="466.2" y="312.4" class="st1" width="19.3" height="19.3"/>
	<rect x="408.4" y="312.4" class="st1" width="19.3" height="19.3"/>
	<rect x="389.1" y="312.4" class="st1" width="19.3" height="19.3"/>
	<rect x="331.4" y="312.4" class="st1" width="38.5" height="19.3"/>
	<rect x="273.6" y="312.4" class="st1" width="19.3" height="19.3"/>
	<rect x="196.5" y="312.4" class="st1" width="57.8" height="19.3"/>
	<rect x="158" y="312.4" class="st1" width="19.3" height="19.3"/>
	<rect x="119.5" y="312.4" class="st1" width="19.3" height="19.3"/>
	<rect x="80.9" y="312.4" class="st1" width="19.3" height="19.3"/>
	<rect x="42.4" y="312.4" class="st1" width="38.5" height="19.3"/>
	<rect x="466.2" y="331.7" class="st1" width="38.5" height="19.3"/>
	<rect x="408.4" y="331.7" class="st1" width="19.3" height="19.3"/>
	<rect x="369.9" y="331.7" class="st1" width="19.3" height="19.3"/>
	<rect x="312.1" y="331.7" class="st1" width="19.3" height="19.3"/>
	<rect x="273.6" y="331.7" class="st1" width="38.5" height="19.3"/>
	<rect x="196.5" y="331.7" class="st1" width="57.8" height="19.3"/>
	<rect x="177.3" y="331.7" class="st1" width="19.3" height="19.3"/>
	<rect x="80.9" y="331.7" class="st1" width="57.8" height="19.3"/>
	<rect x="485.5" y="351" class="st1" width="38.5" height="19.3"/>
	<rect x="427.7" y="351" class="st1" width="19.3" height="19.3"/>
	<rect x="389.1" y="351" class="st1" width="19.3" height="19.3"/>
	<rect x="331.4" y="351" class="st1" width="19.3" height="19.3"/>
	<rect x="235" y="351" class="st1" width="57.8" height="19.3"/>
	<rect x="196.5" y="351" class="st1" width="19.3" height="19.3"/>
	<rect x="138.7" y="351" class="st1" width="57.8" height="19.3"/>
	<rect x="100.2" y="351" class="st1" width="38.5" height="19.3"/>
	<rect x="61.7" y="351" class="st1" width="19.3" height="19.3"/>
	<rect x="312.1" y="370.2" class="st1" width="38.5" height="19.3"/>
	<rect x="292.8" y="370.2" class="st1" width="19.3" height="19.3"/>
	<rect x="235" y="370.2" class="st1" width="19.3" height="19.3"/>
	<rect x="196.5" y="370.2" class="st1" width="19.3" height="19.3"/>
	<rect x="100.2" y="370.2" class="st1" width="38.5" height="19.3"/>
	<rect x="42.4" y="370.2" class="st1" width="38.5" height="19.3"/>
	<rect x="408.4" y="389.5" class="st1" width="115.6" height="19.3"/>
	<rect x="389.1" y="389.5" class="st1" width="19.3" height="19.3"/>
	<rect x="350.6" y="389.5" class="st1" width="19.3" height="19.3"/>
	<rect x="312.1" y="389.5" class="st1" width="19.3" height="19.3"/>
	<rect x="273.6" y="389.5" class="st1" width="19.3" height="19.3"/>
	<rect x="196.5" y="389.5" class="st1" width="19.3" height="19.3"/>
	<rect x="158" y="389.5" class="st1" width="19.3" height="19.3"/>
	<rect x="100.2" y="389.5" class="st1" width="38.5" height="19.3"/>
	<rect x="61.7" y="389.5" class="st1" width="19.3" height="19.3"/>
	<rect x="504.7" y="408.7" class="st1" width="19.3" height="19.3"/>
	<rect x="389.1" y="408.7" class="st1" width="19.3" height="19.3"/>
	<rect x="312.1" y="408.7" class="st1" width="57.8" height="19.3"/>
	<rect x="196.5" y="408.7" class="st1" width="115.6" height="19.3"/>
	<rect x="80.9" y="408.7" class="st1" width="57.8" height="19.3"/>
	<rect x="42.4" y="408.7" class="st1" width="38.5" height="19.3"/>
	<rect x="504.7" y="428" class="st1" width="19.3" height="19.3"/>
	<rect x="427.7" y="428" class="st1" width="57.8" height="19.3"/>
	<rect x="389.1" y="428" class="st1" width="19.3" height="19.3"/>
	<rect x="350.6" y="428" class="st1" width="19.3" height="19.3"/>
	<rect x="312.1" y="428" class="st1" width="19.3" height="19.3"/>
	<rect x="273.6" y="428" class="st1" width="19.3" height="19.3"/>
	<rect x="235" y="428" class="st1" width="19.3" height="19.3"/>
	<rect x="196.5" y="428" class="st1" width="19.3" height="19.3"/>
	<rect x="138.7" y="428" class="st1" width="57.8" height="19.3"/>
	<rect x="100.2" y="428" class="st1" width="38.5" height="19.3"/>
	<rect x="42.4" y="428" class="st1" width="38.5" height="19.3"/>
	<rect x="504.7" y="447.3" class="st1" width="19.3" height="19.3"/>
	<rect x="427.7" y="447.3" class="st1" width="57.8" height="19.3"/>
	<rect x="389.1" y="447.3" class="st1" width="19.3" height="19.3"/>
	<rect x="350.6" y="447.3" class="st1" width="19.3" height="19.3"/>
	<rect x="312.1" y="447.3" class="st1" width="19.3" height="19.3"/>
	<rect x="215.8" y="447.3" class="st1" width="57.8" height="19.3"/>
	<rect x="138.7" y="447.3" class="st1" width="57.8" height="19.3"/>
	<rect x="119.5" y="447.3" class="st1" width="19.3" height="19.3"/>
	<rect x="42.4" y="447.3" class="st1" width="38.5" height="19.3"/>
	<rect x="504.7" y="466.5" class="st1" width="19.3" height="19.3"/>
	<rect x="427.7" y="466.5" class="st1" width="57.8" height="19.3"/>
	<rect x="389.1" y="466.5" class="st1" width="19.3" height="19.3"/>
	<rect x="350.6" y="466.5" class="st1" width="19.3" height="19.3"/>
	<rect x="273.6" y="466.5" class="st1" width="19.3" height="19.3"/>
	<rect x="196.5" y="466.5" class="st1" width="19.3" height="19.3"/>
	<rect x="158" y="466.5" class="st1" width="38.5" height="19.3"/>
	<rect x="80.9" y="466.5" class="st1" width="57.8" height="19.3"/>
	<rect x="42.4" y="466.5" class="st1" width="19.3" height="19.3"/>
	<rect x="504.7" y="485.8" class="st1" width="19.3" height="19.3"/>
	<rect x="389.1" y="485.8" class="st1" width="19.3" height="19.3"/>
	<rect x="312.1" y="485.8" class="st1" width="38.5" height="19.3"/>
	<rect x="235" y="485.8" class="st1" width="57.8" height="19.3"/>
	<rect x="158" y="485.8" class="st1" width="19.3" height="19.3"/>
	<rect x="100.2" y="485.8" class="st1" width="19.3" height="19.3"/>
	<rect x="42.4" y="485.8" class="st1" width="19.3" height="19.3"/>
	<rect x="408.4" y="505.1" class="st1" width="115.6" height="19.3"/>
	<rect x="389.1" y="505.1" class="st1" width="19.3" height="19.3"/>
	<rect x="312.1" y="505.1" class="st1" width="19.3" height="19.3"/>
	<rect x="273.6" y="505.1" class="st1" width="38.5" height="19.3"/>
	<rect x="215.8" y="505.1" class="st1" width="38.5" height="19.3"/>
	<rect x="138.7" y="505.1" class="st1" width="38.5" height="19.3"/>
	<rect x="80.9" y="505.1" class="st1" width="38.5" height="19.3"/>
	<rect x="42.4" y="505.1" class="st1" width="38.5" height="19.3"/>
</g>
</svg>
