<?xml version="1.0" encoding="utf-8"?>
<!-- Generator: Adobe Illustrator 27.9.0, SVG Export Plug-In . SVG Version: 6.00 Build 0)  -->
<svg version="1.1" id="Ebene_1" xmlns="http://www.w3.org/2000/svg" xmlns:xlink="http://www.w3.org/1999/xlink" x="0px" y="0px"
	 viewBox="0 0 566.9 566.9" style="enable-background:new 0 0 566.9 566.9;" xml:space="preserve">
<style type="text/css">
	.st0{fill:#999999;}
</style>
<rect class="st0" width="566.9" height="566.9"/>
<g>
	<path d="M408.4,42.8h-19.3V62v0.1v19.2v19.2v0.1v19.2v19.3v19.2v0.1v19.2h19.3H524v-19.2v-0.1v-19.2v-19.3v-19.2v-0.1V81.3V62.1V62
		V42.8H408.4z M504.7,81.3v19.2v0.1v19.2v19.3v19.2h-96.3v-19.2v-19.3v-19.2v-0.1V81.3V62.1h96.3V81.3z"/>
	<polygon points="273.6,81.3 312.1,81.3 312.1,62.1 369.9,62.1 369.9,42.8 312.1,42.8 196.5,42.8 196.5,62.1 273.6,62.1 	"/>
	<polygon points="312.1,119.8 312.1,139.1 331.4,139.1 331.4,119.8 331.4,100.5 312.1,100.5 	"/>
	<rect x="273.6" y="100.5" width="19.3" height="19.3"/>
	<polygon points="215.8,100.6 254.3,100.6 254.3,81.3 196.5,81.3 196.5,100.5 196.5,100.6 196.5,119.8 215.8,119.8 	"/>
	<polygon points="485.5,119.8 485.5,100.6 485.5,100.5 485.5,81.3 427.7,81.3 427.7,100.5 427.7,100.6 427.7,119.8 427.7,139.1 
		485.5,139.1 	"/>
	<polygon points="80.9,100.5 80.9,100.6 80.9,119.8 80.9,139.1 138.7,139.1 138.7,119.8 138.7,100.6 138.7,100.5 138.7,81.3 
		80.9,81.3 	"/>
	<polygon points="369.9,158.4 369.9,158.3 369.9,139.1 369.9,119.8 369.9,100.6 369.9,100.5 369.9,81.3 350.6,81.3 350.6,100.5 
		350.6,100.6 350.6,119.8 350.6,139.1 350.6,158.3 350.6,158.4 350.6,177.6 369.9,177.6 	"/>
	<path d="M177.2,42.8H42.4v19.3v115.5h134.8L177.2,42.8L177.2,42.8z M158,81.3v19.2v0.1v19.2v19.3v19.2h-19.3H80.9H61.7v-19.2v-19.3
		v-19.2v-0.1V81.3V62.1h19.2h57.8H158V81.3z"/>
	<path d="M485.5,196.9h-77.1h-38.5v19.3h38.5v19.2h-38.5v19.2h-19.3v-19.2h0.1v-19.3h-0.1v-19.2l0,0v-19.3h-19.2v-19.3h-19.3v19.3
		v19.3l0,0v19.3h19.3v19.2h-19.3v19.2h-19.3v-19.2h19.3v-19.3h-19.2v-19.2h-0.1v-19.3h0.1v-19.3h-19.3v19.3h-19.3v19.3h19.3v19.3
		h19.2v19.2h-19.3v-19.3h-38.4v-19.2H235v-19.3h-19.2v-19.2H235v19.2h19.3v-19.2h19.2v-19.3h0.1v-19.3h-19.3v19.3h-57.8v19.2v0.1
		v19.2v19.3h-19.2v19.3h19.3v-19.3h19.2v19.3H235v19.2h-19.2v19.3h57.8v19.2h19.2v19.3h19.3l0,0l0,0l0,0l0,0v19.3h19.3v19.2h38.5
		v-19.2v-0.1v-19.2h-19.3v19.2h-19.2v-19.2h-0.1l0,0h0.1v-19.3h57.7v-19.2h19.3v19.2h19.3v12.9h-0.1v6.4h-19.2v19.2h-19.3v19.3h19.3
		V351h19.3v-19.3v-2v-17.2h38.5v6.6h-0.1v20.6h0.1V351h19.3v19.3H524V351h-19.3v-19.3h-19.1v-12.6h-0.1v-6.6h19.3v-19.3l0,0v-19.3
		l0,0v-19.2H524v-19.3l0,0v-19.3h-38.5V196.9z M427.7,254.6v-19.2l0,0v-19.2h38.5v19.2l0,0v19.2H427.7z M485.5,312.4h-19.3v-12.8
		v-6.4l0,0h19.3V312.4z M485.5,273.9h-19.3v-19.2h19.3V273.9z M504.7,235.4v19.2h-19.2v-19.2H504.7z"/>
	<rect x="389.1" y="273.9" width="19.3" height="19.3"/>
	<path d="M254.3,293.2H235v19.2h-19.2v-19.2H235v-19.3h-38.5v15.3v4v19.2v0.1v19.2l0,0h-19.2V351h-38.6v-14.3h0.1v-24.2v-0.1v-28.2
		h-0.1v-10.3h0.1H158v19.3h19.3v-19.3h-0.1v-19.2h19.3v-19.3h-19.3v-19.3H158v-19.2h-19.3H80.9v19.2H61.7v-19.2H42.4v19.3h19.3v19.2
		l0,0v19.2H42.4v19.3v9.7v9.6v19.2v0.1v19.2h38.5H81l0,0h-0.1V351H61.7v19.2H42.4v19.3h19.3v19.2H42.4V428v19.3v19.2v0.1v19.2v19.3
		v19.3h38.5h38.5v-19.3h0.1v-19.3h19.2v-19.2h0.1H158v19.2v19.3h-19.3v19.3h38.5v-19.3h0.1v-19.3h19.2h19.3v-19.2h57.8v19.2H235
		v19.3h-19.2v19.3h38.5v-19.3h19.3v19.3h38.5h19.3v-19.3h19.2v-19.3h-38.5v19.3h-19.3v-19.3h0.1v-19.3h-19.3v-19.2h-19.3V428h19.3
		v19.3h19.3V428h19.2v19.3v19.3h19.3v-19.3V428h19.2v19.3v19.2v0.1v19.2h19.3v-19.2v-0.1v-19.2V428v-19.2v-0.1v-19.2h-19.3v19.2
		h-19.2v-19.2h19.2v-19.2h0.1V351h-19.3v19.2h-7.6l0,0h-19.4l0,0h-11.5V351h19.3h19.3v-19.3h-19.3h-19.3l0,0h0.1l-0.1-38.5h-19.2
		v-19.3h-19.3v19.3H254.3z M292.9,389.5h11.4l0,0h7.8v19.2h-19.2L292.9,389.5L292.9,389.5z M80.9,370.3L80.9,370.3L81,351h19.2v19.2
		v0.1v19.2v19.2H81v-19.2h-0.1V370.3z M100.2,505.1H80.9H61.7v-19.3v-19.2h19.2v19.2h19.3V505.1z M119.5,466.5H80.9v-19.2V428h19.3
		v19.3h19.3V466.5z M119.5,254.6v19.3h-19.3v19.3h19.3v19.2v0.1v19.2h-19.3l0,0l0,0v-19.3H80.9H61.7v-19.2v-9.6v-9.7h19.2v-19.2H81
		L119.5,254.6l-0.1-19.2H81v-19.2h57.7v19.2H158v19.2h-19.2h-0.1L119.5,254.6L119.5,254.6z M138.7,428v-19.2v-0.1v-19.2v-19.2h57.8
		v19.2v19.2v0.1V428H138.7z M235,447.3h-19.2v19.2h-19.3v-19.2h19.3V428H235V447.3z M292.8,389.5h-19.2v19.2h-57.8v-19.2v-19.2v-0.1
		V351H235v19.2v0.1v19.2h19.3v-19.2h38.5V389.5z M273.6,331.7L273.6,331.7V351h-19.3v-19.3v-8v-11.2h19.3V331.7L273.6,331.7
		L273.6,331.7z"/>
	<rect x="158" y="312.4" width="19.3" height="19.3"/>
	<rect x="427.7" y="351" width="19.3" height="19.3"/>
	<polygon points="389.2,331.7 369.9,331.7 369.9,351 389.1,351 389.1,370.3 408.4,370.3 408.4,351 389.2,351 	"/>
	<path d="M389.1,389.5v19.2v0.1V428v19.3v19.2v0.1v19.2v19.3v19.3h19.3H524v-19.3v-19.3v-19.2v-0.1v-19.2V428v-19.2v-0.1v-19.2
		H408.4L389.1,389.5L389.1,389.5z M504.7,428v19.3v19.2v0.1v19.2v19.3h-96.3v-19.3v-19.2v-0.1v-19.2V428v-19.2h96.3V428z"/>
	<rect x="158" y="389.5" width="19.3" height="19.3"/>
	<polygon points="485.5,466.6 485.5,466.5 485.5,447.3 485.5,428 427.7,428 427.7,447.3 427.7,466.5 427.7,466.6 427.7,485.8 
		485.5,485.8 	"/>
</g>
</svg>
