<?xml version="1.0" encoding="UTF-8"?>
<svg id="Ebene_1" xmlns="http://www.w3.org/2000/svg" xmlns:xlink="http://www.w3.org/1999/xlink" version="1.1" viewBox="0 0 841.9 841.9">
  <!-- Generator: Adobe Illustrator 29.5.1, SVG Export Plug-In . SVG Version: 2.1.0 Build 141)  -->
  <defs>
    <style>
      .st0 {
        fill: none;
      }

      .st1 {
        fill: #fff;
      }

      .st2 {
        clip-path: url(#clippath);
      }
    </style>
    <clipPath id="clippath">
      <rect class="st0" x="0" y="0" width="841.9" height="841.9"/>
    </clipPath>
  </defs>
  <rect x="0" y="0" width="841.9" height="841.9"/>
  <g>
    <path class="st1" d="M106,44.6c4.1,0,4.7,3.2,4.8,4.1h-2.1c-.3-1.6-1.3-2.3-2.8-2.3-2.6,0-3.6,2.4-3.6,4.7s.9,4.7,3.6,4.7,3.4-1.6,3.4-3.3h-3.4v-1.6h5.2v6.4h-1.8v-1.5c-.5.7-1.5,1.7-3.6,1.7-4.5,0-5.5-4-5.5-6.3s1.4-6.4,5.7-6.4Z"/>
    <path class="st1" d="M115.1,57.2v-12.4h8.3v1.7h-6.3v3.5h6.1v1.7h-6.1v3.7h6.4v1.7h-8.4Z"/>
    <path class="st1" d="M131.2,57.4c-2.5,0-4.6-1.2-4.6-3.9h2c0,1.4,1,2.2,2.8,2.2s2.7-.4,2.7-2-.3-1.2-.9-1.4c-1.2-.5-3.2-.6-4.7-1.2-1-.5-1.8-1.3-1.8-2.9,0-2.5,2.3-3.6,4.5-3.6s4.5,1.2,4.6,3.8h-2c0-1.1-.5-2.1-2.6-2.1s-2.6.7-2.6,1.9.2,1,.7,1.3c1.8,1.2,6.7.3,6.7,4.1s-1.6,3.9-4.9,3.9Z"/>
    <path class="st1" d="M139.7,57.2v-12.4h8.3v1.7h-6.3v3.5h6.1v1.7h-6.1v3.7h6.4v1.7h-8.4Z"/>
    <path class="st1" d="M151.7,57.2v-12.4h1.9v10.7h5.9v1.7h-7.9Z"/>
    <path class="st1" d="M163.1,57.2v-12.4h1.9v10.7h5.9v1.7h-7.9Z"/>
    <path class="st1" d="M178.6,57.4c-2.5,0-4.6-1.2-4.6-3.9h2c0,1.4,1,2.2,2.8,2.2s2.7-.4,2.7-2-.3-1.2-.9-1.4c-1.2-.5-3.2-.6-4.7-1.2-1-.5-1.8-1.3-1.8-2.9,0-2.5,2.3-3.6,4.5-3.6s4.5,1.2,4.6,3.8h-2c0-1.1-.5-2.1-2.6-2.1s-2.6.7-2.6,1.9.2,1,.7,1.3c1.8,1.2,6.7.3,6.7,4.1s-1.6,3.9-4.9,3.9Z"/>
    <path class="st1" d="M194.9,53.3h2.1c0,1-.8,4.1-4.8,4.1s-5.6-3.9-5.6-6.4,1.3-6.4,5.5-6.4,4.7,3.2,4.8,4.1h-2.1c-.3-1.6-1.3-2.3-2.8-2.3-2.6,0-3.4,2.4-3.4,4.7s1,4.6,3.5,4.6,2.6-1.1,2.8-2.4Z"/>
    <path class="st1" d="M208.5,44.8h1.9v12.4h-1.9v-5.4h-6v5.4h-1.9v-12.4h1.9v5.3h6v-5.3Z"/>
    <path class="st1" d="M216.5,54.2l-.9,3h-2.1l4-12.4h2.7l4,12.4h-2.1l-1-3h-4.7ZM218.9,46.3l-1.9,6.2h3.8l-1.9-6.2Z"/>
    <path class="st1" d="M229.4,46.6v4h5.7v1.7h-5.7v5h-1.9v-12.4h8v1.7h-6.1Z"/>
    <path class="st1" d="M244.2,46.6v10.7h-1.9v-10.7h-3.7v-1.7h9.4v1.7h-3.7Z"/>
  </g>
  <g>
    <path class="st1" d="M598,55.5l2.1-10.7h2l-2.8,12.4h-2.8l-2.2-9.9-2.3,9.9h-2.8l-2.8-12.4h2.1l2.2,10.7,2.5-10.7h2.3l2.4,10.7Z"/>
    <path class="st1" d="M607.4,57.2h-1.9v-12.4h1.9v12.4Z"/>
    <path class="st1" d="M615.7,57.4c-2.5,0-4.6-1.2-4.6-3.9h2c0,1.4,1,2.2,2.8,2.2s2.7-.4,2.7-2-.3-1.2-.9-1.4c-1.2-.5-3.2-.6-4.7-1.2-1-.5-1.8-1.3-1.8-2.9,0-2.5,2.3-3.6,4.5-3.6s4.5,1.2,4.6,3.8h-2c0-1.1-.5-2.1-2.6-2.1s-2.6.7-2.6,1.9.2,1,.7,1.3c1.8,1.2,6.7.3,6.7,4.1s-1.6,3.9-4.9,3.9Z"/>
    <path class="st1" d="M628.3,57.4c-2.5,0-4.6-1.2-4.6-3.9h2c0,1.4,1,2.2,2.8,2.2s2.7-.4,2.7-2-.3-1.2-.9-1.4c-1.2-.5-3.2-.6-4.7-1.2-1-.5-1.8-1.3-1.8-2.9,0-2.5,2.3-3.6,4.5-3.6s4.5,1.2,4.6,3.8h-2c0-1.1-.5-2.1-2.6-2.1s-2.6.7-2.6,1.9.2,1,.7,1.3c1.8,1.2,6.7.3,6.7,4.1s-1.6,3.9-4.9,3.9Z"/>
    <path class="st1" d="M636.9,57.2v-12.4h8.3v1.7h-6.3v3.5h6.1v1.7h-6.1v3.7h6.4v1.7h-8.4Z"/>
    <path class="st1" d="M656.4,57.2l-5.6-9.6v9.6h-1.9v-12.4h2.5l5.7,9.8v-9.8h1.9v12.4h-2.5Z"/>
    <path class="st1" d="M667.3,57.4c-2.5,0-4.6-1.2-4.6-3.9h2c0,1.4,1,2.2,2.8,2.2s2.7-.4,2.7-2-.3-1.2-.9-1.4c-1.2-.5-3.2-.6-4.7-1.2-1-.5-1.8-1.3-1.8-2.9,0-2.5,2.3-3.6,4.5-3.6s4.5,1.2,4.6,3.8h-2c0-1.1-.5-2.1-2.6-2.1s-2.6.7-2.6,1.9.2,1,.7,1.3c1.8,1.2,6.7.3,6.7,4.1s-1.6,3.9-4.9,3.9Z"/>
    <path class="st1" d="M683.5,53.3h2.1c0,1-.8,4.1-4.8,4.1s-5.6-3.9-5.6-6.4,1.3-6.4,5.5-6.4,4.7,3.2,4.8,4.1h-2.1c-.3-1.6-1.3-2.3-2.8-2.3-2.6,0-3.4,2.4-3.4,4.7s1,4.6,3.5,4.6,2.6-1.1,2.8-2.4Z"/>
    <path class="st1" d="M697.2,44.8h1.9v12.4h-1.9v-5.4h-6v5.4h-1.9v-12.4h1.9v5.3h6v-5.3Z"/>
    <path class="st1" d="M705.2,54.2l-.9,3h-2.1l4-12.4h2.7l4,12.4h-2.1l-1-3h-4.7ZM707.5,46.3l-1.9,6.2h3.8l-1.9-6.2Z"/>
    <path class="st1" d="M718.1,46.6v4h5.7v1.7h-5.7v5h-1.9v-12.4h8v1.7h-6.1Z"/>
    <path class="st1" d="M732.8,46.6v10.7h-1.9v-10.7h-3.7v-1.7h9.4v1.7h-3.7Z"/>
  </g>
  <g>
    <path class="st1" d="M111.5,797.5l2.1-10.7h2l-2.8,12.4h-2.8l-2.2-9.9-2.3,9.9h-2.8l-2.8-12.4h2.1l2.2,10.7,2.5-10.7h2.3l2.4,10.7Z"/>
    <path class="st1" d="M120.9,799.2h-1.9v-12.4h1.9v12.4Z"/>
    <path class="st1" d="M134.5,799.2h-2.1c-.2-.8-.2-2-.2-3.2s-.7-1.9-2-1.9h-3.1v5.2h-1.9v-12.4h5.3c2.6,0,3.9,1.6,3.9,3.3s-.8,2.5-2.1,3c1.1.2,1.8,1.1,1.9,2.4,0,2.5.2,3.2.4,3.7ZM130.1,788.4h-3v4h2.9c1.7,0,2.5-.8,2.5-2s-.9-2-2.4-2Z"/>
    <path class="st1" d="M143.1,788.6v10.7h-1.9v-10.7h-3.7v-1.7h9.4v1.7h-3.7Z"/>
    <path class="st1" d="M154.2,799.4c-2.5,0-4.6-1.2-4.6-3.9h2c0,1.4,1,2.2,2.8,2.2s2.7-.4,2.7-2-.3-1.2-.9-1.4c-1.2-.5-3.2-.6-4.7-1.2-1-.5-1.8-1.3-1.8-2.9,0-2.5,2.3-3.6,4.5-3.6s4.5,1.2,4.6,3.8h-2c0-1.1-.5-2.1-2.6-2.1s-2.6.7-2.6,1.9.2,1,.7,1.3c1.8,1.2,6.7.3,6.7,4.1s-1.6,3.9-4.9,3.9Z"/>
    <path class="st1" d="M170.4,795.3h2.1c0,1-.8,4.1-4.8,4.1s-5.6-3.9-5.6-6.4,1.3-6.4,5.5-6.4,4.7,3.2,4.8,4.1h-2.1c-.3-1.6-1.3-2.3-2.8-2.3-2.6,0-3.4,2.4-3.4,4.7s1,4.6,3.5,4.6,2.6-1.1,2.8-2.4Z"/>
    <path class="st1" d="M184,786.8h1.9v12.4h-1.9v-5.4h-6v5.4h-1.9v-12.4h1.9v5.3h6v-5.3Z"/>
    <path class="st1" d="M192.1,796.2l-.9,3h-2.1l4-12.4h2.7l4,12.4h-2.1l-1-3h-4.7ZM194.4,788.3l-1.9,6.2h3.8l-1.9-6.2Z"/>
    <path class="st1" d="M205,788.6v4h5.7v1.7h-5.7v5h-1.9v-12.4h8v1.7h-6.1Z"/>
    <path class="st1" d="M219.7,788.6v10.7h-1.9v-10.7h-3.7v-1.7h9.4v1.7h-3.7Z"/>
  </g>
  <g>
    <path class="st1" d="M671.2,799.2h-4.7v-12.4h5c2.9,0,5.3,1.8,5.3,6s-1.6,6.4-5.7,6.4ZM671.1,788.5h-2.6v9h2.5c1.7,0,3.9-.8,3.9-4.6s-2.1-4.4-3.8-4.4Z"/>
    <path class="st1" d="M680.6,799.2v-12.4h8.3v1.7h-6.3v3.5h6.1v1.7h-6.1v3.7h6.4v1.7h-8.4Z"/>
    <path class="st1" d="M696.6,799.4c-2.5,0-4.6-1.2-4.6-3.9h2c0,1.4,1,2.2,2.8,2.2s2.7-.4,2.7-2-.3-1.2-.9-1.4c-1.2-.5-3.2-.6-4.7-1.2-1-.5-1.8-1.3-1.8-2.9,0-2.5,2.3-3.6,4.5-3.6s4.5,1.2,4.6,3.8h-2c0-1.1-.5-2.1-2.6-2.1s-2.6.7-2.6,1.9.2,1,.7,1.3c1.8,1.2,6.7.3,6.7,4.1s-1.6,3.9-4.9,3.9Z"/>
    <path class="st1" d="M707.1,799.2h-1.9v-12.4h1.9v12.4Z"/>
    <path class="st1" d="M716.6,786.6c4.1,0,4.7,3.2,4.8,4.1h-2.1c-.3-1.6-1.3-2.3-2.8-2.3-2.6,0-3.6,2.4-3.6,4.7s.9,4.7,3.6,4.7,3.4-1.6,3.4-3.3h-3.4v-1.6h5.2v6.4h-1.8v-1.5c-.5.7-1.5,1.7-3.6,1.7-4.5,0-5.5-4-5.5-6.3s1.4-6.4,5.7-6.4Z"/>
    <path class="st1" d="M733.3,799.2l-5.6-9.6v9.6h-1.9v-12.4h2.5l5.7,9.8v-9.8h1.9v12.4h-2.5Z"/>
  </g>
  <g>
    <g>
      <path class="st1" d="M467.1,327.6v10.2h-2.9v-10.2h-3.6v-2.5h10.1v2.5h-3.6Z"/>
      <path class="st1" d="M480.6,337.8v-5.1h-5v5.1h-2.9v-12.7h2.9v5.1h5v-5.1h2.8v12.7h-2.8Z"/>
      <path class="st1" d="M486.5,337.8v-12.7h9.1v2.5h-6.2v2.5h6v2.6h-6v2.6h6.4v2.5h-9.3Z"/>
      <path class="st1" d="M507.8,325.1h4.2v12.7h-2.8v-9l-2.6,9h-2.7l-2.6-9v9h-2.8v-12.7h4.2l2.5,8.9,2.5-8.9Z"/>
      <path class="st1" d="M517.6,335.4l-.6,2.4h-3l3.8-12.7h4l3.8,12.7h-3.1l-.7-2.4h-4.2ZM519.7,327.3l-1.5,5.6h2.9l-1.4-5.6Z"/>
    </g>
    <g>
      <path class="st1" d="M469.9,358.7c0,1.9-1,3.8-4.4,3.8s-4.2-1.3-4.3-3.2h2c0,.8.6,1.6,2.4,1.6s2.4-.8,2.4-2.3v-1.5c-.3.6-1.1,1.4-2.8,1.4s-4.1-1.4-4.1-4.7,2.5-4.8,4.1-4.8,2.3.5,2.8,1.4v-1.2h1.9v9.5ZM465.6,350.6c-1.3,0-2.5.8-2.5,3.2s1.1,3.1,2.4,3.1c2,0,2.5-1.2,2.5-3.3s-1.4-3-2.4-3Z"/>
      <path class="st1" d="M477.3,351.1c-1.8,0-2.8.7-2.8,2.5v5.3h-1.9v-9.8h1.9v1.6c.7-1.2,1.9-1.6,2.8-1.6h.7v2h-.6Z"/>
      <path class="st1" d="M485.8,352.7v-.4c0-1-.3-1.7-2-1.7s-2.1.9-2.1,1.6h-1.9c0-1.3.6-3.2,4-3.2s4,1.7,4,3.3v5.1c0,.6,0,1.2.1,1.5h-1.9s0-.5,0-1c-.4.4-1.3,1.2-3.2,1.2s-3.4-1.1-3.4-3,1.8-2.7,2.7-2.8c1-.2,3.8-.5,3.8-.5ZM485.8,354.2s-1.9.3-2.9.4c-.9.1-1.6.5-1.6,1.4s.5,1.5,1.7,1.5,1.7-.3,2.2-.7c.4-.4.6-1,.6-1.6v-1.1Z"/>
      <path class="st1" d="M492.3,349.1v1.2c.5-.7,1.6-1.4,2.9-1.4,2.5,0,4.3,1.7,4.3,5s-1.8,5-4.4,5-2.4-.7-2.8-1.3v4.7h-1.9v-13.3h1.9ZM492.3,354c0,2.6,1.1,3.4,2.6,3.4s2.6-.8,2.6-3.4-1.1-3.4-2.6-3.4-2.6.8-2.6,3.4Z"/>
      <path class="st1" d="M508.3,358.9v-6.2c0-1.3-.8-2.1-2-2.1s-2.6,1-2.6,2.8v5.4h-1.9v-13.4h1.9v4.8c.6-.7,1.6-1.3,3-1.3,2.1,0,3.4,1.2,3.4,3.2v6.7h-1.9Z"/>
      <path class="st1" d="M513.8,345.4c.7,0,1.2.5,1.2,1.1s-.5,1.1-1.2,1.1-1.2-.5-1.2-1.1.5-1.1,1.2-1.1ZM512.8,358.9v-9.8h1.9v9.8h-1.9Z"/>
      <path class="st1" d="M521.5,350.6c-1.5,0-2.6,1-2.6,3.4s1.1,3.4,2.6,3.4,2.1-.8,2.2-2h2c-.3,2.4-1.8,3.6-4.2,3.6s-4.6-1.7-4.6-5.1,2-5,4.6-5,3.9,1.3,4.2,3.6h-2c-.2-1.3-.9-2-2.2-2Z"/>
      <path class="st1" d="M529,356.5c.8,0,1.4.6,1.4,1.3s-.6,1.3-1.4,1.3-1.4-.5-1.4-1.3.6-1.3,1.4-1.3Z"/>
      <path class="st1" d="M537.5,351.1c-1.8,0-2.8.7-2.8,2.5v5.3h-1.9v-9.8h1.9v1.6c.7-1.2,1.9-1.6,2.8-1.6h.7v2h-.6Z"/>
      <path class="st1" d="M539.5,354c0-3.3,1.9-5,4.6-5s4.6,1.7,4.6,5-1.9,5-4.6,5-4.6-1.7-4.6-5ZM541.5,354c0,2.5,1.1,3.4,2.6,3.4s2.6-1,2.6-3.4-1.1-3.4-2.6-3.4-2.6,1-2.6,3.4Z"/>
      <path class="st1" d="M550.5,354c0-3.3,1.8-5,4.3-5s2.3.6,2.8,1.4v-4.9h1.9v13.4h-1.9v-1.2c-.4.6-1.5,1.3-2.8,1.3-2.6,0-4.3-1.7-4.3-5ZM552.4,354c0,2.5,1.1,3.4,2.6,3.4s2.6-.8,2.6-3.4-1.1-3.4-2.6-3.4-2.6.8-2.6,3.4Z"/>
      <path class="st1" d="M568.8,355.6h1.9c-.1,1.1-.9,3.4-4.3,3.4s-4.6-1.7-4.6-5,1.9-5,4.6-5,4.5,1.9,4.4,5.4h-7c0,1.5.7,3,2.7,3s2.2-1.1,2.3-1.8ZM568.7,352.9c0-1.8-1.2-2.4-2.4-2.4s-2.3.9-2.5,2.4h4.9Z"/>
      <path class="st1" d="M572.5,354c0-3.3,1.9-5,4.6-5s4.6,1.7,4.6,5-1.9,5-4.6,5-4.6-1.7-4.6-5ZM574.5,354c0,2.5,1.1,3.4,2.6,3.4s2.6-1,2.6-3.4-1.1-3.4-2.6-3.4-2.6,1-2.6,3.4Z"/>
    </g>
  </g>
  <g>
    <path class="st1" d="M157.3,409.5c0,.4.1,1,.3,1.2h-2.8c-.1-.2-.2-.8-.2-1.4v-1.9c0-.9-.6-1.5-1.6-1.5h-2.4v4.7h-2.7v-12.2h5.6c2.7,0,4,1.5,4,3.4s-.7,2.3-2,2.8c1.1.3,1.8,1.3,1.8,2.4v2.4ZM152.9,403.8c1.1,0,1.9-.6,1.9-1.5s-.6-1.5-1.7-1.5h-2.4v3h2.3Z"/>
    <path class="st1" d="M160.5,410.7v-12.2h8.7v2.4h-6v2.4h5.7v2.4h-5.7v2.5h6.2v2.4h-8.9Z"/>
    <path class="st1" d="M171.7,410.7v-2.2l6.1-7.6h-5.9v-2.4h9.2v2.2l-6,7.5h6.1v2.4h-9.4Z"/>
    <path class="st1" d="M183.9,410.7v-12.2h2.7v12.2h-2.7Z"/>
    <path class="st1" d="M195,406.6h-2.3v4.1h-2.7v-12.2h5.4c2.2,0,4.1,1.3,4.1,3.8s-1.5,4.2-4.4,4.2ZM194.9,400.8h-2.3v3.4h2.3c.9,0,1.6-.7,1.6-1.7s-.7-1.7-1.6-1.7Z"/>
    <path class="st1" d="M201.9,410.7v-12.2h2.7v12.2h-2.7Z"/>
    <path class="st1" d="M207.9,410.7v-12.2h8.7v2.4h-6v2.4h5.7v2.4h-5.7v2.5h6.2v2.4h-8.9Z"/>
    <path class="st1" d="M226.8,410.7l-4.3-8v8h-2.6v-12.2h3.3l4.3,8.2v-8.2h2.6v12.2h-3.3Z"/>
    <path class="st1" d="M238.6,401v9.7h-2.7v-9.7h-3.4v-2.4h9.6v2.4h-3.5Z"/>
    <path class="st1" d="M244.4,410.7v-12.2h8.7v2.4h-6v2.4h5.7v2.4h-5.7v2.5h6.2v2.4h-8.9Z"/>
    <path class="st1" d="M263.3,410.7l-4.3-8v8h-2.6v-12.2h3.3l4.3,8.2v-8.2h2.6v12.2h-3.3Z"/>
  </g>
  <g>
    <path class="st1" d="M152.8,428.8h-2.7v4.6h-2v-12.7h5.3c2.1,0,3.9,1.4,3.9,3.9s-1.6,4.2-4.5,4.2ZM153.1,422.4h-3v4.6h2.8c1.5,0,2.4-1,2.4-2.3s-.9-2.3-2.2-2.3Z"/>
    <path class="st1" d="M162,423.6v6.2c0,1.4.6,2.1,1.9,2.1s2.5-1.1,2.5-2.8v-5.6h1.9v9.8h-1.9v-1.1c-.5.6-1.3,1.3-3,1.3s-3.3-1.4-3.3-3.2v-6.7h1.9Z"/>
    <path class="st1" d="M173.3,432.2v1.2h-1.9v-13.4h1.9v4.9c.5-.7,1.6-1.4,2.9-1.4,2.5,0,4.3,1.7,4.3,5s-1.8,5-4.4,5-2.4-.7-2.8-1.3ZM173.3,428.5c0,2.6,1.1,3.4,2.6,3.4s2.6-.8,2.6-3.4-1.1-3.4-2.6-3.4-2.6.8-2.6,3.4Z"/>
    <path class="st1" d="M183.2,433.3v-13.4h1.9v13.4h-1.9Z"/>
    <path class="st1" d="M189.2,419.9c.7,0,1.2.5,1.2,1.1s-.5,1.1-1.2,1.1-1.2-.5-1.2-1.1.5-1.1,1.2-1.1ZM188.3,433.3v-9.8h1.9v9.8h-1.9Z"/>
    <path class="st1" d="M197.2,428.6l-1.9,2v2.8h-1.9v-13.4h1.9v8.3l4.3-4.6h2.4l-3.5,3.7,3.9,6.1h-2.3l-2.9-4.7Z"/>
    <path class="st1" d="M206.2,423.6v6.2c0,1.4.6,2.1,1.9,2.1s2.5-1.1,2.5-2.8v-5.6h1.9v9.8h-1.9v-1.1c-.5.6-1.3,1.3-3,1.3s-3.3-1.4-3.3-3.2v-6.7h1.9Z"/>
    <path class="st1" d="M229.3,426.6v6.7h-1.9v-6.2c0-1.3-.6-2.1-1.8-2.1s-2.2.9-2.2,2.6v5.7h-1.9v-6.2c0-1.3-.5-2.1-1.8-2.1s-2.2.9-2.2,2.6v5.6h-1.9v-9.8h1.9v1.1c.5-.7,1.4-1.2,2.7-1.2s2.3.6,2.8,1.5c.7-1,1.8-1.5,3-1.5,2.1,0,3.3,1.3,3.3,3.2Z"/>
  </g>
  <g>
    <path class="st1" d="M643.8,400.6v2.8h5.5v2.4h-5.5v4.5h-2.7v-12.2h8.7v2.4h-6Z"/>
    <path class="st1" d="M663.2,404.3c0,4-2.5,6.3-5.7,6.3s-5.7-2.3-5.7-6.3,2.5-6.3,5.7-6.3,5.7,2.3,5.7,6.3ZM660.4,404.3c0-2.6-1-3.9-2.8-3.9s-2.8,1.4-2.8,3.9,1,3.9,2.8,3.9,2.8-1.5,2.8-3.9Z"/>
    <path class="st1" d="M675.5,409.2c0,.4.1,1,.3,1.2h-2.8c-.1-.2-.2-.8-.2-1.4v-1.9c0-.9-.6-1.5-1.6-1.5h-2.4v4.7h-2.7v-12.2h5.6c2.7,0,4,1.5,4,3.4s-.7,2.3-2,2.8c1.1.3,1.8,1.3,1.8,2.4v2.4ZM671.1,403.4c1.1,0,1.9-.6,1.9-1.5s-.6-1.5-1.7-1.5h-2.4v3h2.3Z"/>
    <path class="st1" d="M687.6,398.2h4.1v12.2h-2.7v-8.6l-2.5,8.6h-2.6l-2.5-8.6v8.6h-2.7v-12.2h4.1l2.4,8.5,2.4-8.5Z"/>
  </g>
  <g>
    <path class="st1" d="M646.1,433h-4.8v-12.7h5.2c2.9,0,5.5,1.8,5.5,6.1s-1.6,6.5-5.8,6.5ZM646,422h-2.6v9.2h2.6c1.7,0,3.9-.8,3.9-4.7s-2.2-4.5-3.9-4.5Z"/>
    <path class="st1" d="M661.3,429.7h1.9c-.1,1.1-.9,3.4-4.3,3.4s-4.6-1.7-4.6-5,1.9-5,4.6-5,4.5,1.9,4.4,5.4h-7c0,1.5.7,3,2.7,3s2.2-1.1,2.3-1.8ZM661.2,427c0-1.8-1.2-2.4-2.4-2.4s-2.3.9-2.5,2.4h4.9Z"/>
    <path class="st1" d="M669.5,424.6c-.8,0-2,.2-2,1.2s.4.9,1,1c1.8.5,5.1.1,5.1,3.1s-.8,3.1-4.3,3.1-3.9-1.1-3.9-3.1h2c0,.8.5,1.6,2,1.6s2.2-.7,2.2-1.4-.3-.9-1.1-1.1c-1.8-.4-4.9-.1-4.9-3.1s1.4-2.9,4-2.9,3.8,1.9,3.8,2.9h-1.9c0-1-.9-1.3-2-1.3Z"/>
    <path class="st1" d="M677.3,419.5c.7,0,1.2.5,1.2,1.1s-.5,1.1-1.2,1.1-1.2-.5-1.2-1.1.5-1.1,1.2-1.1ZM676.3,433v-9.8h1.9v9.8h-1.9Z"/>
    <path class="st1" d="M689.7,432.7c0,1.9-1,3.8-4.4,3.8s-4.2-1.3-4.3-3.2h2c0,.8.6,1.6,2.4,1.6s2.4-.8,2.4-2.3v-1.5c-.3.6-1.1,1.4-2.8,1.4s-4.1-1.4-4.1-4.7,2.5-4.8,4.1-4.8,2.3.5,2.8,1.4v-1.2h1.9v9.5ZM685.4,424.7c-1.3,0-2.5.8-2.5,3.2s1.1,3.1,2.4,3.1c2,0,2.5-1.2,2.5-3.3s-1.4-3-2.4-3Z"/>
    <path class="st1" d="M699.2,433v-6.2c0-1.4-.7-2.1-2-2.1s-2.5,1-2.5,2.8v5.4h-1.9v-9.8h1.9v1.2c.6-.7,1.6-1.3,3-1.3,2.1,0,3.4,1.2,3.4,3.2v6.7h-1.9Z"/>
    <path class="st1" d="M706.2,423.2v1.2c.5-.7,1.6-1.4,2.9-1.4,2.5,0,4.3,1.7,4.3,5s-1.8,5-4.4,5-2.4-.7-2.8-1.3v4.7h-1.9v-13.3h1.9ZM706.2,428.1c0,2.6,1.1,3.4,2.6,3.4s2.6-.8,2.6-3.4-1.1-3.4-2.6-3.4-2.6.8-2.6,3.4Z"/>
    <path class="st1" d="M722.1,426.7v-.4c0-1-.3-1.7-2-1.7s-2.1.9-2.1,1.6h-1.9c0-1.3.6-3.2,4-3.2s4,1.7,4,3.3v5.1c0,.6,0,1.2.1,1.5h-1.9s0-.5,0-1c-.4.4-1.3,1.2-3.2,1.2s-3.4-1.1-3.4-3,1.8-2.7,2.7-2.8c1-.2,3.8-.5,3.8-.5ZM722.1,428.3s-1.9.3-2.9.4c-.9.1-1.6.5-1.6,1.4s.5,1.5,1.7,1.5,1.7-.3,2.2-.7c.4-.4.6-1,.6-1.6v-1.1Z"/>
    <path class="st1" d="M731.9,425.2c-1.8,0-2.8.7-2.8,2.5v5.3h-1.9v-9.8h1.9v1.6c.7-1.2,1.9-1.6,2.8-1.6h.7v2h-.6Z"/>
    <path class="st1" d="M737.7,433.1c-1.7,0-2.2-.9-2.2-2.3v-5.9h-1.6v-1.6h1.6v-2.9h1.9v2.9h2.4v1.6h-2.4v5.4c0,1,.2,1.2,1.1,1.2s1.1,0,1.1,0v1.6s-.9.1-1.9.1Z"/>
    <path class="st1" d="M748.7,433v-6.2c0-1.4-.7-2.1-2-2.1s-2.5,1-2.5,2.8v5.4h-1.9v-9.8h1.9v1.2c.6-.7,1.6-1.3,3-1.3,2.1,0,3.4,1.2,3.4,3.2v6.7h-1.9Z"/>
    <path class="st1" d="M760.2,429.7h1.9c-.1,1.1-.9,3.4-4.3,3.4s-4.6-1.7-4.6-5,1.9-5,4.6-5,4.5,1.9,4.4,5.4h-7c0,1.5.7,3,2.7,3s2.2-1.1,2.3-1.8ZM760.2,427c0-1.8-1.2-2.4-2.4-2.4s-2.3.9-2.5,2.4h4.9Z"/>
    <path class="st1" d="M769.6,425.2c-1.8,0-2.8.7-2.8,2.5v5.3h-1.9v-9.8h1.9v1.6c.7-1.2,1.9-1.6,2.8-1.6h.7v2h-.6Z"/>
  </g>
  <g>
    <path class="st1" d="M484.9,202.1v-12.2h2.7v12.2h-2.7Z"/>
    <path class="st1" d="M497.8,202.1l-4.3-8v8h-2.6v-12.2h3.3l4.3,8.2v-8.2h2.6v12.2h-3.3Z"/>
    <path class="st1" d="M512,202.1v-4.8h-4.8v4.8h-2.7v-12.2h2.7v4.9h4.8v-4.9h2.7v12.2h-2.7Z"/>
    <path class="st1" d="M520.5,199.8l-.6,2.3h-2.8l3.6-12.2h3.8l3.6,12.2h-3l-.6-2.3h-4.1ZM522.5,192.1l-1.4,5.4h2.8l-1.4-5.4Z"/>
    <path class="st1" d="M530.5,202.1v-12.2h2.7v9.8h5.9v2.4h-8.6Z"/>
    <path class="st1" d="M545.7,192.4v9.7h-2.7v-9.7h-3.4v-2.4h9.6v2.4h-3.5Z"/>
  </g>
  <g>
    <path class="st1" d="M489.1,218.9l-2,2.3v3.5h-2v-12.7h2v6.5l5.5-6.5h2.3l-4.6,5.4,4.9,7.3h-2.4l-3.8-5.8Z"/>
    <path class="st1" d="M504.1,224.7v-6.2c0-1.4-.7-2.1-2-2.1s-2.5,1-2.5,2.8v5.4h-1.9v-9.8h1.9v1.2c.6-.7,1.6-1.3,3-1.3,2.1,0,3.4,1.2,3.4,3.2v6.7h-1.9Z"/>
    <path class="st1" d="M508.6,219.8c0-3.3,1.9-5,4.6-5s4.6,1.7,4.6,5-1.9,5-4.6,5-4.6-1.7-4.6-5ZM510.6,219.8c0,2.5,1.1,3.4,2.6,3.4s2.6-1,2.6-3.4-1.1-3.4-2.6-3.4-2.6,1-2.6,3.4Z"/>
    <path class="st1" d="M522,224.7l-2.4-9.8h2l1.7,7.6,2.1-7.6h2.2l2.1,7.7,1.7-7.7h2l-2.5,9.8h-2.4l-2.1-7.6-2,7.6h-2.4Z"/>
    <path class="st1" d="M535.6,224.7v-13.4h1.9v13.4h-1.9Z"/>
    <path class="st1" d="M547.2,221.4h1.9c-.1,1.1-.9,3.4-4.3,3.4s-4.6-1.7-4.6-5,1.9-5,4.6-5,4.5,1.9,4.4,5.4h-7c0,1.5.7,3,2.7,3s2.2-1.1,2.3-1.8ZM547.1,218.8c0-1.8-1.2-2.4-2.4-2.4s-2.3.9-2.5,2.4h4.9Z"/>
    <path class="st1" d="M551.4,219.8c0-3.3,1.8-5,4.3-5s2.3.6,2.8,1.4v-4.9h1.9v13.4h-1.9v-1.2c-.4.6-1.5,1.3-2.8,1.3-2.6,0-4.3-1.7-4.3-5ZM553.4,219.8c0,2.5,1.1,3.4,2.6,3.4s2.6-.8,2.6-3.4-1.1-3.4-2.6-3.4-2.6.8-2.6,3.4Z"/>
    <path class="st1" d="M572,224.5c0,1.9-1,3.8-4.4,3.8s-4.2-1.3-4.3-3.2h2c0,.8.6,1.6,2.4,1.6s2.4-.8,2.4-2.3v-1.5c-.3.6-1.1,1.4-2.8,1.4s-4.1-1.4-4.1-4.7,2.5-4.8,4.1-4.8,2.3.5,2.8,1.4v-1.2h1.9v9.5ZM567.7,216.4c-1.3,0-2.5.8-2.5,3.2s1.1,3.1,2.4,3.1c2,0,2.5-1.2,2.5-3.3s-1.4-3-2.4-3Z"/>
    <path class="st1" d="M581.6,221.4h1.9c-.1,1.1-.9,3.4-4.3,3.4s-4.6-1.7-4.6-5,1.9-5,4.6-5,4.5,1.9,4.4,5.4h-7c0,1.5.7,3,2.7,3s2.2-1.1,2.3-1.8ZM581.5,218.8c0-1.8-1.2-2.4-2.4-2.4s-2.3.9-2.5,2.4h4.9Z"/>
    <path class="st1" d="M588.2,215v1.2c.5-.7,1.6-1.4,2.9-1.4,2.5,0,4.3,1.7,4.3,5s-1.8,5-4.4,5-2.4-.7-2.8-1.3v4.7h-1.9v-13.3h1.9ZM588.2,219.8c0,2.6,1.1,3.4,2.6,3.4s2.6-.8,2.6-3.4-1.1-3.4-2.6-3.4-2.6.8-2.6,3.4Z"/>
    <path class="st1" d="M604.2,218.5v-.4c0-1-.3-1.7-2-1.7s-2.1.9-2.1,1.6h-1.9c0-1.3.6-3.2,4-3.2s4,1.7,4,3.3v5.1c0,.6,0,1.2.1,1.5h-1.9s0-.5,0-1c-.4.4-1.3,1.2-3.2,1.2s-3.4-1.1-3.4-3,1.8-2.7,2.7-2.8c1-.2,3.8-.5,3.8-.5ZM604.2,220s-1.9.3-2.9.4c-.9.1-1.6.5-1.6,1.4s.5,1.5,1.7,1.5,1.7-.3,2.2-.7c.4-.4.6-1,.6-1.6v-1.1Z"/>
    <path class="st1" d="M613.9,216.9c-1.8,0-2.8.7-2.8,2.5v5.3h-1.9v-9.8h1.9v1.6c.7-1.2,1.9-1.6,2.8-1.6h.7v2h-.6Z"/>
    <path class="st1" d="M619.7,224.8c-1.7,0-2.2-.9-2.2-2.3v-5.9h-1.6v-1.6h1.6v-2.9h1.9v2.9h2.4v1.6h-2.4v5.4c0,1,.2,1.2,1.1,1.2s1.1,0,1.1,0v1.6s-.9.1-1.9.1Z"/>
    <path class="st1" d="M630.7,224.7v-6.2c0-1.4-.7-2.1-2-2.1s-2.5,1-2.5,2.8v5.4h-1.9v-9.8h1.9v1.2c.6-.7,1.6-1.3,3-1.3,2.1,0,3.4,1.2,3.4,3.2v6.7h-1.9Z"/>
    <path class="st1" d="M642.2,221.4h1.9c-.1,1.1-.9,3.4-4.3,3.4s-4.6-1.7-4.6-5,1.9-5,4.6-5,4.5,1.9,4.4,5.4h-7c0,1.5.7,3,2.7,3s2.2-1.1,2.3-1.8ZM642.2,218.8c0-1.8-1.2-2.4-2.4-2.4s-2.3.9-2.5,2.4h4.9Z"/>
    <path class="st1" d="M651.7,216.9c-1.8,0-2.8.7-2.8,2.5v5.3h-1.9v-9.8h1.9v1.6c.7-1.2,1.9-1.6,2.8-1.6h.7v2h-.6Z"/>
  </g>
  <g>
    <path class="st1" d="M132,263.5h4.2v12.7h-2.8v-9l-2.6,9h-2.7l-2.6-9v9h-2.8v-12.7h4.2l2.5,8.9,2.5-8.9Z"/>
    <path class="st1" d="M145.3,276.2v-.9c-.5.5-1.4,1-2.8,1-2.3,0-3.5-1.5-3.5-3.4v-6.7h2.8v6.2c0,1.1.6,1.7,1.5,1.7s1.9-.8,1.9-2.1v-5.8h2.8v10h-2.8Z"/>
    <path class="st1" d="M150.8,276.2v-13.4h2.8v13.4h-2.8Z"/>
    <path class="st1" d="M159.6,276.3c-2.3,0-2.6-1.1-2.6-3v-4.8h-1.4v-2.2h1.4v-2.7h2.8v2.7h2.1v2.2h-2.1v4.7c0,.6.2.8.8.8s1.2,0,1.2,0v2.3s-.9.1-2.2.1Z"/>
    <path class="st1" d="M165.5,262.3c.9,0,1.6.7,1.6,1.5s-.7,1.5-1.6,1.5-1.6-.7-1.6-1.5.7-1.5,1.6-1.5ZM164.1,276.2v-10h2.8v10h-2.8Z"/>
    <path class="st1" d="M172.4,266.2v1c.5-.6,1.6-1.1,2.7-1.1,2.5,0,4.4,1.7,4.4,5.1s-1.9,5.1-4.6,5.1-2-.5-2.5-1.1v4.5h-2.8v-13.5h2.8ZM172.5,271.2c0,2.2.7,2.9,2.1,2.9s2.1-.8,2.1-2.9-.9-2.9-2.1-2.9-2.1.6-2.1,2.9Z"/>
    <path class="st1" d="M181.8,276.2v-13.4h2.8v13.4h-2.8Z"/>
    <path class="st1" d="M188.8,262.3c.9,0,1.6.7,1.6,1.5s-.7,1.5-1.6,1.5-1.6-.7-1.6-1.5.7-1.5,1.6-1.5ZM187.4,276.2v-10h2.8v10h-2.8Z"/>
    <path class="st1" d="M196.8,272l-1.1,1.2v3h-2.8v-13.4h2.8v7l3.5-3.6h3.4l-3.7,3.9,3.7,6.2h-3.2l-2.5-4.2Z"/>
    <path class="st1" d="M208.3,266c3.7,0,4.5,1.8,4.5,3.3v5.4c0,.7.2,1.5.2,1.5h-3v-.9c-.4.5-1.2,1-2.9,1s-3.6-1.1-3.6-3.2,2.2-2.8,3.2-3l3.3-.5v-.3c0-.7-.3-1.2-1.7-1.2s-1.8.8-1.8,1.2h-2.7c0-1.5.7-3.4,4.5-3.4ZM210,271.6s-1.7.2-2.4.4c-.7.1-1.2.5-1.2,1.2s.3,1.1,1.4,1.1c1.6,0,2.2-1.1,2.2-1.9v-.7Z"/>
    <path class="st1" d="M218.7,276.3c-2.3,0-2.6-1.1-2.6-3v-4.8h-1.4v-2.2h1.4v-2.7h2.8v2.7h2.1v2.2h-2.1v4.7c0,.6.2.8.8.8s1.2,0,1.2,0v2.3s-.9.1-2.2.1Z"/>
    <path class="st1" d="M222.5,271.2c0-3.4,2.1-5.1,4.9-5.1s5,1.7,5,5.1-2.1,5.1-5,5.1-4.9-1.7-4.9-5.1ZM225.4,271.2c0,2,.9,2.9,2.1,2.9s2.1-.8,2.1-2.9-.9-2.9-2.1-2.9-2.1.8-2.1,2.9Z"/>
    <path class="st1" d="M239.7,268.9c-1.4,0-2.2.5-2.2,1.9v5.3h-2.8v-10h2.7v1.3c.5-.8,1.4-1.3,2.4-1.3h.9v2.8s-.7,0-1,0Z"/>
    <path class="st1" d="M242.2,271.2c0-3.1,2.1-5.1,4.9-5.1s4.9,2.2,4.9,5.4v.3h-6.9c0,1.1.5,2.3,2,2.3s1.9-1,1.9-1.3h2.8c-.1,1.3-1.2,3.6-4.7,3.6s-5-2.1-5-5.1ZM249,269.9c-.1-1.2-.9-1.7-1.8-1.7s-1.8.7-2,1.7h3.8Z"/>
    <path class="st1" d="M260.6,276.2v-6.2c0-1.1-.6-1.7-1.5-1.7s-2,.7-2,2.2v5.6h-2.8v-10h2.8v1c.6-.7,1.5-1.1,2.8-1.1,2.3,0,3.6,1.3,3.6,3.4v6.8h-2.8Z"/>
  </g>
  <g>
    <g>
      <path class="st1" d="M364.5,595.5v-12.2h2.7v12.2h-2.7Z"/>
      <path class="st1" d="M377.5,595.5l-4.3-8v8h-2.6v-12.2h3.3l4.3,8.2v-8.2h2.6v12.2h-3.3Z"/>
      <path class="st1" d="M388.5,595.7c-2.9,0-4.9-1.3-4.9-4h2.8c0,.9.6,1.9,2.2,1.9s2.2-.3,2.2-1.5c0-2.4-7,0-7-5.2s2.4-3.7,4.7-3.7,4.9,1,4.9,3.9h-2.8c0-.7-.3-1.8-2.1-1.8s-1.9.6-1.9,1.3c0,2.5,7,.3,7,5.1s-1.7,4-5.2,4Z"/>
      <path class="st1" d="M395.7,595.5v-2.2l6.1-7.6h-5.9v-2.4h9.2v2.2l-6,7.5h6.1v2.4h-9.4Z"/>
      <path class="st1" d="M407.7,595.5v-12.2h8.7v2.4h-6v2.4h5.7v2.4h-5.7v2.5h6.2v2.4h-8.9Z"/>
      <path class="st1" d="M426.6,595.5l-4.3-8v8h-2.6v-12.2h3.3l4.3,8.2v-8.2h2.6v12.2h-3.3Z"/>
      <path class="st1" d="M433.3,595.5v-12.2h2.7v12.2h-2.7Z"/>
      <path class="st1" d="M439.3,595.5v-12.2h8.7v2.4h-6v2.4h5.7v2.4h-5.7v2.5h6.2v2.4h-8.9Z"/>
      <path class="st1" d="M460.7,594.3c0,.4.1,1,.3,1.2h-2.8c-.1-.2-.2-.8-.2-1.4v-1.9c0-.9-.6-1.5-1.6-1.5h-2.4v4.7h-2.7v-12.2h5.6c2.7,0,4,1.5,4,3.4s-.7,2.3-2,2.8c1.1.3,1.8,1.3,1.8,2.4v2.4ZM456.3,588.5c1.1,0,1.9-.6,1.9-1.5s-.6-1.5-1.7-1.5h-2.4v3h2.3Z"/>
      <path class="st1" d="M471,591v-7.7h2.6v7.6c0,3.4-2.1,4.8-5,4.8s-5-1.4-5-4.8v-7.5h2.7v7.7c0,1.6.9,2.3,2.3,2.3s2.3-.8,2.3-2.4Z"/>
      <path class="st1" d="M483.7,595.5l-4.3-8v8h-2.6v-12.2h3.3l4.3,8.2v-8.2h2.6v12.2h-3.3Z"/>
      <path class="st1" d="M489.9,589.4c0-2.9,1.6-6.3,5.8-6.3s5,2.2,5.1,4.2h-2.8c-.1-1.1-.8-1.9-2.3-1.9s-2.8,1.4-2.8,4,.7,3.8,2.8,3.8,2.7-1.2,2.8-2.3h-2.8v-2.2h5.4v6.6h-2.5v-1.1c-.3.3-1.3,1.3-3.3,1.3-4,0-5.4-3.1-5.4-6.3Z"/>
    </g>
    <g>
      <path class="st1" d="M364.8,618.1v-12.7h8.5v1.8h-6.5v3.6h6.2v1.8h-6.2v3.7h6.6v1.8h-8.6Z"/>
      <path class="st1" d="M375.2,613.2c0-3.3,1.8-5,4.3-5s2.3.6,2.8,1.4v-4.9h1.9v13.4h-1.9v-1.2c-.4.6-1.5,1.3-2.8,1.3-2.6,0-4.3-1.7-4.3-5ZM377.2,613.2c0,2.5,1.1,3.4,2.6,3.4s2.6-.8,2.6-3.4-1.1-3.4-2.6-3.4-2.6.8-2.6,3.4Z"/>
      <path class="st1" d="M388.4,604.6c.7,0,1.2.5,1.2,1.1s-.5,1.1-1.2,1.1-1.2-.5-1.2-1.1.5-1.1,1.2-1.1ZM387.4,618.1v-9.8h1.9v9.8h-1.9Z"/>
      <path class="st1" d="M395.4,618.2c-1.7,0-2.2-.9-2.2-2.3v-5.9h-1.6v-1.6h1.6v-2.9h1.9v2.9h2.4v1.6h-2.4v5.4c0,1,.2,1.2,1.1,1.2s1.1,0,1.1,0v1.6s-.9.1-1.9.1Z"/>
      <path class="st1" d="M400.9,604.6c.7,0,1.2.5,1.2,1.1s-.5,1.1-1.2,1.1-1.2-.5-1.2-1.1.5-1.1,1.2-1.1ZM399.9,618.1v-9.8h1.9v9.8h-1.9Z"/>
      <path class="st1" d="M404.5,613.2c0-3.3,1.9-5,4.6-5s4.6,1.7,4.6,5-1.9,5-4.6,5-4.6-1.7-4.6-5ZM406.5,613.2c0,2.5,1.1,3.4,2.6,3.4s2.6-1,2.6-3.4-1.1-3.4-2.6-3.4-2.6,1-2.6,3.4Z"/>
      <path class="st1" d="M422.8,618.1v-6.2c0-1.4-.7-2.1-2-2.1s-2.5,1-2.5,2.8v5.4h-1.9v-9.8h1.9v1.2c.6-.7,1.6-1.3,3-1.3,2.1,0,3.4,1.2,3.4,3.2v6.7h-1.9Z"/>
      <path class="st1" d="M431.4,609.7c-.8,0-2,.2-2,1.2s.4.9,1,1c1.8.5,5.1.1,5.1,3.1s-.8,3.1-4.3,3.1-3.9-1.1-3.9-3.1h2c0,.8.5,1.6,2,1.6s2.2-.7,2.2-1.4-.3-.9-1.1-1.1c-1.8-.4-4.9-.1-4.9-3.1s1.4-2.9,4-2.9,3.8,1.9,3.8,2.9h-1.9c0-1-.9-1.3-2-1.3Z"/>
      <path class="st1" d="M440.1,608.3v1.2c.5-.7,1.6-1.4,2.9-1.4,2.5,0,4.3,1.7,4.3,5s-1.8,5-4.4,5-2.4-.7-2.8-1.3v4.7h-1.9v-13.3h1.9ZM440.1,613.2c0,2.6,1.1,3.4,2.6,3.4s2.6-.8,2.6-3.4-1.1-3.4-2.6-3.4-2.6.8-2.6,3.4Z"/>
      <path class="st1" d="M456,611.9v-.4c0-1-.3-1.7-2-1.7s-2.1.9-2.1,1.6h-1.9c0-1.3.6-3.2,4-3.2s4,1.7,4,3.3v5.1c0,.6,0,1.2.1,1.5h-1.9s0-.5,0-1c-.4.4-1.3,1.2-3.2,1.2s-3.4-1.1-3.4-3,1.8-2.7,2.7-2.8c1-.2,3.8-.5,3.8-.5ZM456,613.4s-1.9.3-2.9.4c-.9.1-1.6.5-1.6,1.4s.5,1.5,1.7,1.5,1.7-.3,2.2-.7c.4-.4.6-1,.6-1.6v-1.1Z"/>
      <path class="st1" d="M465.8,610.3c-1.8,0-2.8.7-2.8,2.5v5.3h-1.9v-9.8h1.9v1.6c.7-1.2,1.9-1.6,2.8-1.6h.7v2h-.6Z"/>
      <path class="st1" d="M471.6,618.2c-1.7,0-2.2-.9-2.2-2.3v-5.9h-1.6v-1.6h1.6v-2.9h1.9v2.9h2.4v1.6h-2.4v5.4c0,1,.2,1.2,1.1,1.2s1.1,0,1.1,0v1.6s-.9.1-1.9.1Z"/>
      <path class="st1" d="M482.6,618.1v-6.2c0-1.4-.7-2.1-2-2.1s-2.5,1-2.5,2.8v5.4h-1.9v-9.8h1.9v1.2c.6-.7,1.6-1.3,3-1.3,2.1,0,3.4,1.2,3.4,3.2v6.7h-1.9Z"/>
      <path class="st1" d="M494.2,614.8h1.9c-.1,1.1-.9,3.4-4.3,3.4s-4.6-1.7-4.6-5,1.9-5,4.6-5,4.5,1.9,4.4,5.4h-7c0,1.5.7,3,2.7,3s2.2-1.1,2.3-1.8ZM494.1,612.1c0-1.8-1.2-2.4-2.4-2.4s-2.3.9-2.5,2.4h4.9Z"/>
      <path class="st1" d="M503.6,610.3c-1.8,0-2.8.7-2.8,2.5v5.3h-1.9v-9.8h1.9v1.6c.7-1.2,1.9-1.6,2.8-1.6h.7v2h-.6Z"/>
    </g>
  </g>
  <g>
    <path class="st1" d="M597,539.2c-.3.3-.7.8-.7,1l-2-2.2c0-.2.5-.7.9-1.1l1.4-1.3c.7-.7.8-1.5.1-2.2l-1.6-1.8-3.7,3.3-1.9-2.1,9.5-8.4,3.9,4.4c1.8,2.1,1.6,4.2.1,5.4-1,.9-2.2,1.1-3.6.4.6,1.1.2,2.3-.6,3l-1.9,1.7ZM598.5,531.8c.8.9,1.7,1.1,2.4.4.8-.7.7-1.5,0-2.4l-1.7-1.9-2.3,2.1,1.6,1.8Z"/>
    <path class="st1" d="M601.3,538.3c2.3-2.1,5.2-1.9,7.1.3,2.1,2.3,1.6,5.1-.8,7.2l-.3.2-4.6-5.2c-.8.7-1.3,1.9-.3,3,1,1.1,2,.7,2.2.6l1.8,2.1c-1,.7-3.4,1.4-5.7-1.2-2.1-2.4-1.7-5.1.5-7.1ZM606.7,542.6c.8-.9.7-1.8,0-2.5-.7-.8-1.8-.9-2.6-.3l2.5,2.8Z"/>
    <path class="st1" d="M614.2,548.2c-.5-.5-1.1-1-1.7-.5-1.2,1,4.1,4.5,1.1,7.2-1.2,1-3.1,1.6-5.6-1.3-2.8-3.2-.9-5.2-.5-5.5l1.9,2.1c-.7.6-.4,1.5.3,2.2.6.7,1.3,1.1,1.9.6.5-.4.1-1.1-.3-1.7l-.3-.5c-1.2-1.8-2.1-3.5-.3-5.1,1.5-1.4,3.6-.7,5.2,1.1,2.6,2.9,1.1,4.8.5,5.3l-1.8-2c.5-.5.4-1.2-.3-1.9Z"/>
    <path class="st1" d="M616.8,563.4l.7-.6c-.7,0-1.7-.4-2.6-1.4-1.5-1.8-1.2-3.6.3-4.9l5-4.4,1.8,2.1-4.6,4.1c-.9.8-.9,1.5-.3,2.3.8.9,1.9.9,2.8,0l4.3-3.8,1.8,2.1-7.5,6.6-1.8-2.1Z"/>
    <path class="st1" d="M620.4,567.5l10-8.9,1.8,2.1-10,8.9-1.8-2.1Z"/>
    <path class="st1" d="M626.2,574.2c-1.5-1.8-.9-2.7.5-3.9l3.6-3.2-1-1.1,1.7-1.5,1,1.1,2-1.8,1.9,2.1-2,1.8,1.4,1.6-1.7,1.5-1.4-1.6-3.5,3.1c-.5.4-.5.7,0,1.1.4.4.8.9.8.9l-1.7,1.5s-.7-.6-1.5-1.6Z"/>
    <path class="st1" d="M639.7,573.9c2.4,2.8,1.6,4.5.5,5.5l-4,3.6c-.5.5-1,1.1-1,1.1l-2-2.2.7-.6c-.6,0-1.6-.2-2.7-1.5-1.4-1.5-1.5-3.5,0-4.8,1.7-1.5,3.6-.2,4.3.4l2.5,2.2.3-.2c.5-.5.7-1-.2-2-1.1-1.2-1.8-.8-2.1-.5l-1.8-2c1.1-.9,3-1.8,5.5,1.1ZM636.6,578.9s-1.3-1.2-1.9-1.6c-.5-.4-1.2-.5-1.6-.1-.3.3-.6,1,0,1.8,1.1,1.2,2.3.9,2.9.4l.5-.5Z"/>
    <path class="st1" d="M638.9,588.5c-1.5-1.8-.9-2.7.5-3.9l3.6-3.2-1-1.1,1.7-1.5,1,1.1,2-1.8,1.9,2.1-2,1.8,1.4,1.6-1.7,1.5-1.4-1.6-3.5,3.1c-.5.4-.5.7,0,1.1.4.4.8.9.8.9l-1.7,1.5s-.7-.6-1.5-1.6Z"/>
  </g>
  <g>
    <path class="st1" d="M255.8,571.4l-3.8-3.3-3.3,3.7,3.8,3.3-1.9,2.1-9.5-8.4,1.9-2.1,3.8,3.4,3.3-3.7-3.8-3.4,1.9-2.1,9.5,8.4-1.9,2.1Z"/>
    <path class="st1" d="M254.9,557.1c2.4-2.8,4.3-2.2,5.4-1.2l4,3.6c.5.5,1.3.8,1.3.8l-2,2.2-.7-.6c0,.6,0,1.6-1.2,2.9-1.4,1.5-3.2,1.9-4.7.6-1.7-1.5-.7-3.6-.1-4.3l1.8-2.8-.3-.2c-.5-.5-1.1-.5-2,.5-1.1,1.2-.5,1.9-.2,2.1l-1.8,2c-1.1-1-2.1-2.7.4-5.6ZM260.2,559.6s-1,1.4-1.3,2.1c-.3.6-.4,1.2,0,1.6.3.3,1,.5,1.7-.3,1.1-1.2.7-2.4,0-3l-.5-.5Z"/>
    <path class="st1" d="M261.6,549.8l.7.6c-.1-.8.2-1.9.9-2.7,1.7-1.9,4.2-2.2,6.8,0,2.5,2.2,2.6,4.8.8,6.8-.7.8-1.7,1.2-2.5,1.1l3.3,3-1.8,2.1-10.1-8.9,1.8-2.1ZM265.3,553.1c1.7,1.5,2.6,1.3,3.5.3.8-.9.8-2.1-.7-3.5-1.5-1.4-2.8-1.2-3.6-.3-.9,1-.9,2,.8,3.5Z"/>
    <path class="st1" d="M269.6,540.7l.7.6c-.1-.8.2-1.9.9-2.7,1.7-1.9,4.2-2.2,6.8,0,2.5,2.2,2.6,4.8.8,6.8-.7.8-1.7,1.2-2.5,1.1l3.3,3-1.8,2.1-10.1-8.9,1.8-2.1ZM273.4,544c1.7,1.5,2.6,1.3,3.5.3.8-.9.8-2.1-.7-3.5-1.5-1.4-2.8-1.2-3.6-.3-.9,1-.9,2,.8,3.5Z"/>
    <path class="st1" d="M279.3,537.3c-2.3-2.1-2.5-5-.6-7.1,2.1-2.3,4.9-2.2,7.3,0l.3.2-4.6,5.2c.8.7,2,1.1,3.1,0,1-1.1.5-2,.3-2.3l1.9-2c.8.9,1.8,3.2-.5,5.8-2.1,2.4-4.9,2.3-7.1.3ZM282.8,531.4c-1-.7-1.9-.4-2.5.2-.7.8-.7,1.9,0,2.6l2.5-2.8Z"/>
    <path class="st1" d="M295.2,526.9l-4.6-4.1c-.8-.7-1.6-.7-2.3,0-.7.8-.8,2,.3,3l4.2,3.7-1.8,2.1-7.5-6.6,1.8-2.1.7.6c0-.9.2-1.9,1-2.8,1.5-1.7,3.4-1.8,4.9-.5l5.1,4.5-1.9,2.1Z"/>
    <path class="st1" d="M289.3,512.5c.6-.7,1.6-.8,2.2-.2.6.6.7,1.6,0,2.3-.6.7-1.6.8-2.2.2-.6-.6-.7-1.6,0-2.3ZM298.8,522.8l-7.5-6.6,1.8-2.1,7.5,6.6-1.8,2.1Z"/>
    <path class="st1" d="M306.6,513.9l-4.6-4.1c-.8-.7-1.6-.7-2.3,0-.7.8-.8,2,.3,3l4.2,3.7-1.8,2.1-7.5-6.6,1.8-2.1.7.6c0-.9.2-1.9,1-2.8,1.5-1.7,3.4-1.8,4.9-.5l5.1,4.5-1.9,2.1Z"/>
    <path class="st1" d="M313.2,503.9c.2.8-.2,1.8-.9,2.7-1.6,1.8-4.1,2.1-6.4,0s-2.3-4.7-.7-6.4c.7-.8,1.7-1.3,2.5-1.2l-.7-.6,1.8-2.1,7.3,6.5c1.4,1.3,2.1,3.5-.3,6.2-2.6,2.9-4.7,2.1-5.7,1.2l1.8-2.1c.4.3,1.1.7,2.2-.6.9-1,1-1.9,0-2.7l-1-.9h0ZM307.8,504.6c1.3,1.2,2.6,1,3.3.2,1-1.2.5-2.2-.6-3.2-1.1-1-2.2-1.4-3.2-.2-.7.8-.8,2.1.6,3.2h0Z"/>
  </g>
  <g class="st2">
    <path class="st1" d="M461.5,727.9c-10.4,0-20.8-.5-31.3-1.5-55.5-5.4-108.2-21.8-156.9-48.7-47-26.1-88.1-60.8-122.3-103.4-34.2-42.5-59.7-90.7-75.8-143.1-16.7-54.3-22.5-110.8-17.3-167.9l4,.4c-5.1,56.6.6,112.6,17.1,166.4,16,51.9,41.2,99.6,75.1,141.7,33.9,42.1,74.6,76.6,121.1,102.4,48.2,26.7,100.4,42.9,155.3,48.2,85,8.2,168.4-17.6,234.9-72.7,33.7-27.9,61.3-61.8,82-100.7,21.4-40.3,34.4-84.1,38.6-130.3,6.5-71.5-14.4-141.4-58.9-196.7-44.4-55.3-107.1-89.4-176.4-96.1-54.2-5.2-107.4,11.2-149.8,46.4-44.3,36.7-71.6,89-76.9,147.3-8.6,94.1,58.7,177.8,149.9,186.6,34.5,3.3,68.4-7.2,95.4-29.5,28.2-23.4,45.6-56.7,49-93.8,2.7-30.1-8.1-61-29.8-84.9-19.4-21.3-45-33.6-70.3-33.7-.2,0-.4,0-.7,0-55.9,0-82.9,36.1-89.6,69.9-4.2,21.5-.1,41.3,11.8,57.3,12.1,16.2,31.5,27.1,51.9,29l-.4,4c-21.5-2.1-42-13.5-54.8-30.6-8.8-11.8-18.1-31.9-12.6-60.5,4.1-20.9,14.3-38.7,29.7-51.7,16.8-14.2,39.1-21.6,64.5-21.5,26.4.1,53.1,12.9,73.2,35.1,22.4,24.7,33.6,56.7,30.8,87.9-3.5,38.2-21.4,72.5-50.4,96.5-27.8,23.1-62.7,33.9-98.3,30.4-93.4-9-162.3-94.7-153.5-191,5.4-59.4,33.2-112.7,78.3-150.1,43.2-35.8,97.5-52.6,152.8-47.3,70.4,6.8,134.1,41.5,179.2,97.6,45.1,56.1,66.3,127,59.7,199.5-4.2,46.7-17.4,91-39.1,131.8-20.9,39.4-48.8,73.7-82.9,101.9-59.1,49-131.5,75.1-206.5,75.1Z"/>
  </g>
  <rect class="st1" x="601.5" y="501.9" width="2" height="140.1" transform="translate(-227.7 541.1) rotate(-41.4)"/>
  <rect class="st1" x="213.9" y="551.5" width="159.5" height="2" transform="translate(-314.8 406.8) rotate(-48.5)"/>
  <rect class="st1" x="92.9" y="291.5" width="197.9" height="2"/>
</svg>