<?xml version="1.0" encoding="utf-8"?>
<svg id="header-logo" xmlns="http://www.w3.org/2000/svg" viewBox="0 0 1427 189" >
<style type="text/css">
	.st0{fill:#CC3333;}
</style>
<rect x="0" class="st0" width="1427" height="189"/>
<g>
	<path d="M378.3,44.2c-0.2,2.3-1.8,4.6-5.5,4.6c-3.5,0-6.1-3-6.1-7s2.7-7,6.1-7c3.1,0,4.7,1.7,5.3,3.9l4.5-1
		c-0.9-3.6-3.9-7.3-9.8-7.3c-5.8,0-10.9,5-10.9,11.4c0,6.3,4.9,11.4,10.9,11.4c6.5,0,9.4-4.5,9.9-8.2L378.3,44.2z"/>
	<rect x="459.5" y="124" width="13.1" height="13.1"/>
	<g>
		<path d="M766.4,80.2c10.4,0,17.8,6.7,17.8,23.4c0,16.8-7.5,23.4-17.8,23.4c-10.3,0-17.8-6.5-17.8-23.4S756.1,80.2,766.4,80.2
			 M766.4,137.9c18.3,0,31.2-11.5,31.2-34.3s-12.8-34.3-31.2-34.3c-18.3,0-31.2,11.6-31.2,34.3C735.2,126.4,748,137.9,766.4,137.9
			 M698.6,127c-13.6,0-18-10.5-18.2-20.6H728c1-24-10.7-37.1-29.8-37.1c-18.2,0-31.2,13.3-31.2,34.3c0,22.4,12.8,34.3,31.3,34.3
			c23.4,0,28.5-15.7,29.3-23.3l-12.8-0.2C714,119.4,709.3,127,698.6,127 M680.9,96.1c1.1-10,7.5-16.1,17.1-16.1
			c8,0,15.8,4.1,16.1,16.1H680.9z M626,80.2c10.4,0,18,5.3,18,23.4s-7.5,23.4-18,23.4c-10.4,0-17.8-6.2-17.8-23.4
			C608.1,85.6,615.5,80.2,626,80.2 M624.3,137.9c9.3,0,17-4.8,19.5-9v8.2h13.1V45.4h-13.1v33.3c-3.6-5.1-10.2-9.4-19.5-9.4
			c-17.2,0-29.6,11.5-29.6,34.3S606.7,137.9,624.3,137.9 M556.5,80.2c10.4,0,17.8,6.7,17.8,23.4c0,16.8-7.5,23.4-17.8,23.4
			c-10.3,0-17.8-6.5-17.8-23.4S546.2,80.2,556.5,80.2 M556.5,137.9c18.3,0,31.2-11.5,31.2-34.3s-12.8-34.3-31.2-34.3
			c-18.3,0-31.2,11.6-31.2,34.3C525.3,126.4,538.2,137.9,556.5,137.9 M521.5,83.5V70.1h-4.7c-6,0-14.6,2.2-19.1,10.6V70.1h-12.8V137
			H498v-36.4c0-12.5,6.7-17.1,19.2-17.1H521.5z M434.1,111.9c-1.2,8-6.6,10.9-12.5,10.9c-7.6,0-13.6-5.4-13.6-19.1
			c0-13.8,5.9-19.1,13.8-19.1c6.3,0,11.1,3.1,12,11.4h18.6c-1.6-17.6-14.1-26.4-30.8-26.4c-19.1,0-32.9,11.9-32.9,34.4
			c0,22.6,14.1,33.8,33.2,33.8c17.1,0,28.7-8.8,30.6-26L434.1,111.9L434.1,111.9z M381.6,70.4H363V137h18.6V70.4z M310.5,99.8
			c0-10,6-14.8,13.5-14.8c6.4,0,10.2,3.8,10.2,11.1V137h18.6V92c0-13.8-8.7-22.4-24.1-22.4c-8.2,0-14.3,2.9-18.3,7.1V47.9h-18.6V137
			h18.6L310.5,99.8C310.4,99.8,310.5,99.8,310.5,99.8z M251.2,84.6c8,0,14.1,5.4,14.1,19.1c0,13.6-6,19.1-14.1,19.1
			c-9,0-13.9-4.2-13.9-19.1C237.3,88.8,242.2,84.6,251.2,84.6 M218.6,70.4v89.7h18.6v-29.6c3.4,4.2,9.3,7.4,16.6,7.4
			c18.1,0,30.5-11.5,30.5-34.1c0-22.6-12.7-34.2-29.3-34.2c-7.4,0-14.3,3.1-17.7,7.4v-6.5L218.6,70.4L218.6,70.4z M148.7,92.2h17.9
			c0-2.7,0.7-8.2,11.7-8.2c8.9,0,11.1,3.1,11.1,7.7v2.3l-21.9,3.1c-6.1,0.8-21,4.6-21,19.7c0,13.3,10.2,21,24,21
			c11.4,0,16.5-3.8,19.4-6.9v6h19.6c0,0-1.4-5.1-1.4-9.9V91.3c0-9.6-5.3-21.6-29.8-21.6C153,69.6,148.9,82.5,148.7,92.2
			 M189.4,111.5c0,5.6-3.8,12.8-14.8,12.8c-7.1,0-9-4.5-9-7.5c0-4.2,3.2-6.9,7.7-7.7c4.6-1,16.2-2.4,16.2-2.4L189.4,111.5
			L189.4,111.5z M144.1,89V70.4h-5.8c-6.6,0-13,2.9-16.2,8.5v-8.5h-17.9V137h18.6v-35.4c0-9.3,5.4-12.8,14.6-12.8
			C139.8,88.8,144.1,89,144.1,89 M47.8,101.5c0-11.7,6.4-17.1,13.8-17.1c10.4,0,13.3,7.1,13.3,17c0,10-3,17.1-13.3,17.1
			C54.2,118.5,47.8,113.1,47.8,101.5L47.8,101.5z M74.9,125.7v9c0,8.2-4.8,11.9-13.8,11.9c-11.4,0-12.5-5.3-12.5-8.5H30.2
			c0,8.9,5.4,22.8,31.2,22.8c24.3,0,32.2-13.1,32.2-25.8V70.4H75v6.3c-3.2-4.3-9.6-7.1-17-7.1c-15.7,0-28.9,11.2-28.9,31.9
			s12.8,31.4,28.5,31.4C65,132.9,71.7,130.2,74.9,125.7L74.9,125.7z"/>
		<g>
			<path d="M372.8,61.4c-10.9,0-19.7-8.9-19.7-19.7S361.9,22,372.8,22c10.9,0,19.7,8.9,19.7,19.7C392.5,52.5,383.6,61.4,372.8,61.4z
				 M372.8,26.1c-8.6,0-15.6,7-15.6,15.6s7,15.6,15.6,15.6s15.6-7,15.6-15.6S381.4,26.1,372.8,26.1z"/>
		</g>
	</g>
</g>
</svg>
