<?xml version="1.0" encoding="utf-8"?>
<!-- Generator: Adobe Illustrator 27.9.0, SVG Export Plug-In . SVG Version: 6.00 Build 0)  -->
<svg version="1.1" id="Layer_1" xmlns="http://www.w3.org/2000/svg" xmlns:xlink="http://www.w3.org/1999/xlink" x="0px" y="0px"
	 viewBox="0 0 260 260" style="enable-background:new 0 0 260 260;" xml:space="preserve">
<style type="text/css">
	.st0{fill:#FFFFFF;}
</style>
<rect class="st0" width="260" height="260"/>
<g>
	<g>
		<path d="M206.5,245h-153C32.3,245,15,227.7,15,206.5v-153C15,32.3,32.3,15,53.5,15h153.1c21.2,0,38.5,17.2,38.5,38.5v153.1
			C245,227.7,227.7,245,206.5,245z M53.5,21.8C36,21.8,21.8,36,21.8,53.5v153.1c0,17.5,14.2,31.7,31.7,31.7h153.1
			c17.5,0,31.7-14.2,31.7-31.7V53.5c0-17.5-14.2-31.7-31.7-31.7H53.5z"/>
	</g>
	<g>
		<path d="M175.5,94.1c-5.7-5.8-12.5-10.3-20.3-13.6c-7.8-3.3-16.3-5-25.3-5s-17.4,1.7-25.3,5c-7.8,3.3-14.6,7.9-20.3,13.6
			c-5.7,5.8-10.2,12.6-13.5,20.4s-4.9,16.2-4.9,25.1c0,9,1.6,17.4,4.9,25.2s7.7,14.5,13.5,20.3c5.7,5.8,12.5,10.3,20.3,13.6
			s16.3,5,25.3,5s17.4-1.7,25.3-5c7.8-3.3,14.6-7.9,20.3-13.6c5.7-5.8,10.2-12.5,13.5-20.3s4.9-16.2,4.9-25.2
			c0-8.9-1.6-17.3-4.9-25.1S181.2,99.8,175.5,94.1z M161.9,154.1c-1.7,4.5-4.2,8.3-7.3,11.5s-6.7,5.7-10.9,7.6
			c-4.2,1.8-8.8,2.8-13.8,2.8s-9.6-0.9-13.8-2.8c-4.2-1.8-7.8-4.4-10.9-7.6c-3.1-3.2-5.5-7-7.3-11.5c-1.7-4.5-2.6-9.3-2.6-14.5
			s0.9-10.1,2.6-14.5c1.7-4.5,4.2-8.3,7.3-11.5c3.1-3.2,6.7-5.7,10.9-7.6c4.2-1.8,8.8-2.8,13.8-2.8s9.6,0.9,13.8,2.8
			c4.2,1.8,7.8,4.4,10.9,7.6c3.1,3.2,5.5,7,7.3,11.5c1.7,4.5,2.6,9.3,2.6,14.5S163.7,149.6,161.9,154.1z"/>
		<path d="M190.3,47.2c-11.3,0-20.5,9.6-20.5,20.5c0,11.3,9.2,20.2,20.5,20.2c11,0,19.9-8.9,19.9-20.2
			C210.2,56.8,201.3,47.2,190.3,47.2z"/>
	</g>
</g>
</svg>
