<svg xmlns="http://www.w3.org/2000/svg" viewBox="0 0 260 260">
<g>
	<g>
		<path class="st0" d="M206.5,245H53.5C32.3,245,15,227.7,15,206.5V53.5C15,32.3,32.3,15,53.5,15h153.1c21.2,0,38.5,17.2,38.5,38.5
			v153.1C245,227.7,227.7,245,206.5,245z M53.5,21.8C36,21.8,21.8,36,21.8,53.5v153.1c0,17.5,14.2,31.7,31.7,31.7h153.1
			c17.5,0,31.7-14.2,31.7-31.7V53.5c0-17.5-14.2-31.7-31.7-31.7H53.5z" fill="#ffffff" />
	</g>
	<g>
		<path class="st0" d="M74.3,50c-10.9,0-19.7,9.5-19.7,20.4c0,11.2,8.9,20.1,19.7,20.1c11.2,0,20.4-8.9,20.4-20.1
			C94.7,59.5,85.5,50,74.3,50z" fill="#ffffff" />
		<rect x="60" y="105.2" class="st0" width="28.2" height="92.7" fill="#ffffff" />
		<path class="st0" d="M199.8,126.1c-2.2-4.9-5.4-9.1-9.4-12.5c-3.8-3.4-8.2-6.1-13.3-8c-5.1-1.9-10.6-2.8-16.5-2.8
			c-5.5,0-10.7,0.9-15.5,2.7c-4.9,1.8-9,4.2-12.5,7.2v-7.4h-26.3v92.7h28.2v-51.4c0-4.4,0.5-7.8,1.5-10.1c1-2.3,2.5-4.4,4.3-6.2
			c3.6-3.4,8.4-5.1,14.3-5.1c5.9,0,10.7,1.7,14.3,5.1c1.9,1.6,3.3,3.7,4.3,6.1c1,2.4,1.5,5.8,1.5,10.2v51.4h28.2v-53.5
			C203.2,137.1,202,131,199.8,126.1z" fill="#ffffff" />
	</g>
</g>
</svg>
