<?xml version="1.0" encoding="utf-8"?>
<!-- Generator: Adobe Illustrator 27.9.0, SVG Export Plug-In . SVG Version: 6.00 Build 0)  -->
<svg version="1.1" id="Layer_1" xmlns="http://www.w3.org/2000/svg" xmlns:xlink="http://www.w3.org/1999/xlink" x="0px" y="0px"
	 viewBox="0 0 260 260" style="enable-background:new 0 0 260 260;" xml:space="preserve">
<style type="text/css">
	.st0{fill:#FFFFFF;}
</style>
<rect class="st0" width="260" height="260"/>
<g>
	<g>
		<path d="M206.5,245h-153C32.3,245,15,227.7,15,206.5v-153C15,32.3,32.3,15,53.5,15h153.1c21.2,0,38.5,17.2,38.5,38.5v153.1
			C245,227.7,227.7,245,206.5,245z M53.5,21.8C36,21.8,21.8,36,21.8,53.5v153.1c0,17.5,14.2,31.7,31.7,31.7h153.1
			c17.5,0,31.7-14.2,31.7-31.7V53.5c0-17.5-14.2-31.7-31.7-31.7H53.5z"/>
	</g>
	<g>
		<path d="M74.3,50c-10.9,0-19.7,9.5-19.7,20.4c0,11.2,8.9,20.1,19.7,20.1c11.2,0,20.4-8.9,20.4-20.1C94.7,59.5,85.5,50,74.3,50z"/>
		<rect x="60" y="105.2" width="28.2" height="92.7"/>
		<path d="M199.8,126.1c-2.2-4.9-5.4-9.1-9.4-12.5c-3.8-3.4-8.2-6.1-13.3-8s-10.6-2.8-16.5-2.8c-5.5,0-10.7,0.9-15.5,2.7
			c-4.9,1.8-9,4.2-12.5,7.2v-7.4h-26.3V198h28.2v-51.4c0-4.4,0.5-7.8,1.5-10.1s2.5-4.4,4.3-6.2c3.6-3.4,8.4-5.1,14.3-5.1
			c5.9,0,10.7,1.7,14.3,5.1c1.9,1.6,3.3,3.7,4.3,6.1c1,2.4,1.5,5.8,1.5,10.2V198h28.2v-53.5C203.2,137.1,202,131,199.8,126.1z"/>
	</g>
</g>
</svg>
