<svg xmlns="http://www.w3.org/2000/svg" viewBox="0 0 260 260">
<g>
	<g>
		<path class="st0" d="M206.5,245H53.5C32.3,245,15,227.7,15,206.5V53.5C15,32.3,32.3,15,53.5,15h153.1c21.2,0,38.5,17.3,38.5,38.5
			v153.1C245,227.7,227.7,245,206.5,245z M53.5,21.8C36,21.8,21.8,36,21.8,53.5v153.1c0,17.5,14.2,31.7,31.7,31.7h153.1
			c17.5,0,31.7-14.2,31.7-31.7V53.5c0-17.5-14.2-31.7-31.7-31.7H53.5z" fill="#ffffff" />
	</g>
	<g>
		<g>
			<path class="st0" d="M165.7,136.5c0,2.9,0.2,5.1,0.7,6.6c0.4,1.5,1.2,2.8,2.2,3.8c1.6,1.6,3.8,2.5,6.6,2.5
				c4.5,0,8.4-2.3,11.5-6.8c3.1-4.5,4.7-11.9,4.7-22.1c0-7.7-1.5-14.9-4.6-21.7C183.7,91.9,179.5,86,174,81c-5.4-5-11.8-9-19.3-12
				c-7.4-3-15.5-4.4-24.2-4.4c-9.1,0-17.5,1.7-25.3,5c-7.8,3.3-14.6,7.9-20.3,13.7c-5.7,5.8-10.3,12.6-13.6,20.4
				c-3.3,7.8-5,16.2-5,25.1c0,8.9,1.7,17.3,5,25.1c3.3,7.8,7.9,14.6,13.8,20.4c5.9,5.8,12.7,10.4,20.5,13.7c7.8,3.3,16.2,5,25.3,5
				c13.3,0,25.9-4,37.8-12.1l11.1,16.2c-7.1,4.9-14.7,8.7-23,11.4c-8.3,2.7-16.9,4.1-26,4.1c-12,0-23.1-2.2-33.5-6.5
				C87,201.8,78,195.9,70.3,188.3c-7.7-7.6-13.8-16.4-18.2-26.6c-4.5-10.2-6.7-21.2-6.7-32.9c0-11.7,2.2-22.7,6.6-32.9
				c4.4-10.2,10.5-19.1,18.1-26.6c7.7-7.6,16.7-13.5,27.1-17.9c10.4-4.3,21.5-6.5,33.3-6.5c11.6,0,22.4,2,32.3,5.9
				c9.9,3.9,18.6,9.3,26,16.1c7.4,6.8,13.1,14.8,17.3,23.9c4.2,9.1,6.2,18.9,6.2,29.2c0,7.2-0.8,13.7-2.5,19.6
				c-1.6,5.9-4.1,11-7.3,15.3c-3.2,4.3-7.2,7.6-11.8,9.9c-4.7,2.3-10,3.5-16.1,3.5c-5,0-9.5-0.9-13.5-2.6c-4-1.8-7.2-4.2-9.7-7.4
				c-3.3,3.1-6.9,5.6-11,7.3c-4,1.7-8.4,2.5-13,2.5c-5.7,0-10.9-1-15.7-3c-4.8-2-8.9-4.8-12.5-8.3c-3.5-3.5-6.3-7.7-8.3-12.5
				c-2-4.8-3-9.9-3-15.3c0-5.4,1-10.5,2.9-15.4c2-4.8,4.6-9,8-12.6c3.4-3.5,7.4-6.3,12.1-8.4c4.7-2.1,9.7-3.1,15.1-3.1
				c3.7,0,7.1,0.6,10.4,1.7c3.3,1.1,6.3,2.8,9.1,4.9v-4.9h20V136.5z M127.8,148.4c2.6,0,5.1-0.5,7.4-1.5c2.3-1,4.3-2.4,6-4.1
				s3-3.7,4-6.1c0.9-2.4,1.4-5,1.4-7.7c0-5.8-1.8-10.6-5.4-14.4c-3.6-3.8-8-5.7-13.3-5.7s-9.7,1.9-13.3,5.7
				c-3.6,3.8-5.4,8.6-5.4,14.4c0,2.8,0.5,5.4,1.4,7.7c0.9,2.4,2.3,4.4,4,6.1c1.7,1.7,3.7,3.1,6,4.1
				C122.7,147.9,125.1,148.4,127.8,148.4z" fill="#ffffff" />
		</g>
	</g>
</g>
</svg>
